<?xml version="1.0" encoding="utf-8"?>
<svg version="1.1" xmlns:xlink="http://www.w3.org/1999/xlink" width="75px" height="10px" preserveAspectRatio="xMinYMid meet" viewBox="2881 1293 75 8" xmlns="http://www.w3.org/2000/svg">
  <path d="M 2883 1297  L 2946 1297  A 5 5 0 0 1 2951 1302 L 2951 1398  A 5 5 0 0 0 2956 1403 L 3016 1403  " stroke-width="2" stroke-dasharray="0" stroke="rgba(88, 0, 170, 1)" fill="none" class="stroke" />
  <path d="M 2884.5 1293.5  A 3.5 3.5 0 0 0 2881 1297 A 3.5 3.5 0 0 0 2884.5 1300.5 A 3.5 3.5 0 0 0 2888 1297 A 3.5 3.5 0 0 0 2884.5 1293.5 Z M 3015 1410.6  L 3022 1403  L 3015 1395.4  L 3015 1410.6  Z " fill-rule="nonzero" fill="rgba(88, 0, 170, 1)" stroke="none" class="fill" />
</svg>