<?xml version="1.0" encoding="utf-8"?>
<svg version="1.1" xmlns:xlink="http://www.w3.org/1999/xlink" width="76px" height="10px" preserveAspectRatio="xMinYMid meet" viewBox="2187 1383 76 8" xmlns="http://www.w3.org/2000/svg">
  <path d="M 2124 1281  L 2187 1281  A 5 5 0 0 1 2192 1286 L 2192 1382  A 5 5 0 0 0 2197 1387 L 2257 1387  " stroke-width="2" stroke-dasharray="0" stroke="rgba(88, 0, 170, 1)" fill="none" class="stroke" />
  <path d="M 2125.5 1277.5  A 3.5 3.5 0 0 0 2122 1281 A 3.5 3.5 0 0 0 2125.5 1284.5 A 3.5 3.5 0 0 0 2129 1281 A 3.5 3.5 0 0 0 2125.5 1277.5 Z M 2256 1394.6  L 2263 1387  L 2256 1379.4  L 2256 1394.6  Z " fill-rule="nonzero" fill="rgba(88, 0, 170, 1)" stroke="none" class="fill" />
</svg>