<?xml version="1.0" encoding="utf-8"?>
<svg version="1.1" xmlns:xlink="http://www.w3.org/1999/xlink" width="56px" height="10px" preserveAspectRatio="xMinYMid meet" viewBox="2407 1196 56 8" xmlns="http://www.w3.org/2000/svg">
  <path d="M 2508 1297  L 2463 1297  A 5 5 0 0 1 2458 1292 L 2458 1205  A 5 5 0 0 0 2453 1200 L 2413 1200  " stroke-width="2" stroke-dasharray="0" stroke="rgba(88, 0, 170, 1)" fill="none" class="stroke" />
  <path d="M 2506.5 1293.5  A 3.5 3.5 0 0 0 2503 1297 A 3.5 3.5 0 0 0 2506.5 1300.5 A 3.5 3.5 0 0 0 2510 1297 A 3.5 3.5 0 0 0 2506.5 1293.5 Z M 2414 1192.4  L 2407 1200  L 2414 1207.6  L 2414 1192.4  Z " fill-rule="nonzero" fill="rgba(88, 0, 170, 1)" stroke="none" class="fill" />
</svg>