<?xml version="1.0" encoding="utf-8"?>
<svg version="1.1" xmlns:xlink="http://www.w3.org/1999/xlink" width="57px" height="10px" preserveAspectRatio="xMinYMid meet" viewBox="1694 1277 57 8" xmlns="http://www.w3.org/2000/svg">
  <path d="M 1749 1281  L 1704 1281  A 5 5 0 0 1 1699 1276 L 1699 1189  A 5 5 0 0 0 1694 1184 L 1654 1184  " stroke-width="2" stroke-dasharray="0" stroke="rgba(88, 0, 170, 1)" fill="none" class="stroke" />
  <path d="M 1747.5 1277.5  A 3.5 3.5 0 0 0 1744 1281 A 3.5 3.5 0 0 0 1747.5 1284.5 A 3.5 3.5 0 0 0 1751 1281 A 3.5 3.5 0 0 0 1747.5 1277.5 Z M 1655 1176.4  L 1648 1184  L 1655 1191.6  L 1655 1176.4  Z " fill-rule="nonzero" fill="rgba(88, 0, 170, 1)" stroke="none" class="fill" />
</svg>