<?xml version="1.0" encoding="utf-8"?>
<svg version="1.1" xmlns:xlink="http://www.w3.org/1999/xlink" width="10px" height="101px" preserveAspectRatio="xMidYMin meet" viewBox="676.2857142857143 690 8 101" xmlns="http://www.w3.org/2000/svg">
  <path d="M 665 786  L 675.2857142857143 786  A 5 5 0 0 0 680.2857142857143 781 L 680.2857142857143 700  A 5 5 0 0 1 685.2857142857143 695 L 738 695  " stroke-width="2" stroke-dasharray="0" stroke="rgba(88, 0, 170, 1)" fill="none" class="stroke" />
  <path d="M 666.5 782.5  A 3.5 3.5 0 0 0 663 786 A 3.5 3.5 0 0 0 666.5 789.5 A 3.5 3.5 0 0 0 670 786 A 3.5 3.5 0 0 0 666.5 782.5 Z M 737 702.6  L 744 695  L 737 687.4  L 737 702.6  Z " fill-rule="nonzero" fill="rgba(88, 0, 170, 1)" stroke="none" class="fill" />
</svg>