<?xml version="1.0" encoding="utf-8"?>
<svg version="1.1" xmlns:xlink="http://www.w3.org/1999/xlink" width="20px" height="20px" preserveAspectRatio="xMinYMid meet" viewBox="227 721 20 18" xmlns="http://www.w3.org/2000/svg">
  <path d="M 290 786  L 267 786  A 5 5 0 0 1 262 781 L 262 735  A 5 5 0 0 0 257 730 L 238 730  " stroke-width="2" stroke-dasharray="0" stroke="rgba(88, 0, 170, 1)" fill="none" class="stroke" />
  <path d="M 288.5 782.5  A 3.5 3.5 0 0 0 285 786 A 3.5 3.5 0 0 0 288.5 789.5 A 3.5 3.5 0 0 0 292 786 A 3.5 3.5 0 0 0 288.5 782.5 Z M 239 722.4  L 232 730  L 239 737.6  L 239 722.4  Z " fill-rule="nonzero" fill="rgba(88, 0, 170, 1)" stroke="none" class="fill" />
</svg>