<?xml version="1.0" encoding="utf-8"?>
<svg version="1.1" xmlns:xlink="http://www.w3.org/1999/xlink" width="20px" height="20px" preserveAspectRatio="xMinYMid meet" viewBox="1732 1378 20 18" xmlns="http://www.w3.org/2000/svg">
  <path d="M 1311 1527  L 1626 1527  A 5 5 0 0 0 1631 1522 L 1631 1392  A 5 5 0 0 1 1636 1387 L 1741 1387  " stroke-width="2" stroke-dasharray="0" stroke="rgba(88, 0, 170, 1)" fill="none" class="stroke" />
  <path d="M 1312.5 1523.5  A 3.5 3.5 0 0 0 1309 1527 A 3.5 3.5 0 0 0 1312.5 1530.5 A 3.5 3.5 0 0 0 1316 1527 A 3.5 3.5 0 0 0 1312.5 1523.5 Z M 1740 1394.6  L 1747 1387  L 1740 1379.4  L 1740 1394.6  Z " fill-rule="nonzero" fill="rgba(88, 0, 170, 1)" stroke="none" class="fill" />
</svg>