<?xml version="1.0" encoding="utf-8"?>
<svg version="1.1" xmlns:xlink="http://www.w3.org/1999/xlink" width="114px" height="10px" preserveAspectRatio="xMinYMid meet" viewBox="1633 1381 114 8" xmlns="http://www.w3.org/2000/svg">
  <path d="M 1310 1475  L 1633 1475  A 5 5 0 0 0 1638 1470 L 1638 1390  A 5 5 0 0 1 1643 1385 L 1741 1385  " stroke-width="2" stroke-dasharray="0" stroke="rgba(88, 0, 170, 1)" fill="none" class="stroke" />
  <path d="M 1311.5 1471.5  A 3.5 3.5 0 0 0 1308 1475 A 3.5 3.5 0 0 0 1311.5 1478.5 A 3.5 3.5 0 0 0 1315 1475 A 3.5 3.5 0 0 0 1311.5 1471.5 Z M 1740 1392.6  L 1747 1385  L 1740 1377.4  L 1740 1392.6  Z " fill-rule="nonzero" fill="rgba(88, 0, 170, 1)" stroke="none" class="fill" />
</svg>