<?xml version="1.0" encoding="utf-8"?>
<svg version="1.1" xmlns:xlink="http://www.w3.org/1999/xlink" width="20px" height="21px" preserveAspectRatio="xMidYMin meet" viewBox="1115 1571 18 21" xmlns="http://www.w3.org/2000/svg">
  <path d="M 1124 1580  L 1124 1685  A 5 5 0 0 0 1129 1690 L 1508 1690  A 5 5 0 0 1 1513 1695 L 1513 1803  " stroke-width="2" stroke-dasharray="0" stroke="rgba(88, 0, 170, 1)" fill="none" class="stroke" />
  <path d="M 1124 1578  A 3.5 3.5 0 0 0 1120.5 1581.5 A 3.5 3.5 0 0 0 1124 1585 A 3.5 3.5 0 0 0 1127.5 1581.5 A 3.5 3.5 0 0 0 1124 1578 Z M 1505.4 1802  L 1513 1809  L 1520.6 1802  L 1505.4 1802  Z " fill-rule="nonzero" fill="rgba(88, 0, 170, 1)" stroke="none" class="fill" />
</svg>