<?xml version="1.0" encoding="utf-8"?>
<svg version="1.1" xmlns:xlink="http://www.w3.org/1999/xlink" width="20px" height="20px" preserveAspectRatio="xMinYMid meet" viewBox="1472 874 20 18" xmlns="http://www.w3.org/2000/svg">
  <path d="M 1694 1248  L 1611 1248  A 5 5 0 0 1 1606 1243 L 1606 888  A 5 5 0 0 0 1601 883 L 1483 883  " stroke-width="2" stroke-dasharray="0" stroke="rgba(88, 0, 170, 1)" fill="none" class="stroke" />
  <path d="M 1692.5 1244.5  A 3.5 3.5 0 0 0 1689 1248 A 3.5 3.5 0 0 0 1692.5 1251.5 A 3.5 3.5 0 0 0 1696 1248 A 3.5 3.5 0 0 0 1692.5 1244.5 Z M 1484 875.4  L 1477 883  L 1484 890.6  L 1484 875.4  Z " fill-rule="nonzero" fill="rgba(88, 0, 170, 1)" stroke="none" class="fill" />
</svg>