<?xml version="1.0" encoding="utf-8"?>
<svg version="1.1" xmlns:xlink="http://www.w3.org/1999/xlink" width="21px" height="20px" preserveAspectRatio="xMinYMid meet" viewBox="1037 793 21 18" xmlns="http://www.w3.org/2000/svg">
  <path d="M 1049 802  L 1026 802  A 5 5 0 0 1 1021 797 L 1021 751  A 5 5 0 0 0 1016 746 L 997 746  " stroke-width="2" stroke-dasharray="0" stroke="rgba(88, 0, 170, 1)" fill="none" class="stroke" />
  <path d="M 1047.5 798.5  A 3.5 3.5 0 0 0 1044 802 A 3.5 3.5 0 0 0 1047.5 805.5 A 3.5 3.5 0 0 0 1051 802 A 3.5 3.5 0 0 0 1047.5 798.5 Z M 998 738.4  L 991 746  L 998 753.6  L 998 738.4  Z " fill-rule="nonzero" fill="rgba(88, 0, 170, 1)" stroke="none" class="fill" />
</svg>