<?xml version="1.0" encoding="utf-8"?>
<svg version="1.1" xmlns:xlink="http://www.w3.org/1999/xlink" width="10px" height="57px" preserveAspectRatio="xMidYMin meet" viewBox="1013 785 8 57" xmlns="http://www.w3.org/2000/svg">
  <path d="M 1049 837  L 1022 837  A 5 5 0 0 1 1017 832 L 1017 795  A 5 5 0 0 0 1012 790 L 989 790  " stroke-width="2" stroke-dasharray="0" stroke="rgba(88, 0, 170, 1)" fill="none" class="stroke" />
  <path d="M 1047.5 833.5  A 3.5 3.5 0 0 0 1044 837 A 3.5 3.5 0 0 0 1047.5 840.5 A 3.5 3.5 0 0 0 1051 837 A 3.5 3.5 0 0 0 1047.5 833.5 Z M 990 782.4  L 983 790  L 990 797.6  L 990 782.4  Z " fill-rule="nonzero" fill="rgba(88, 0, 170, 1)" stroke="none" class="fill" />
</svg>