<?xml version="1.0" encoding="utf-8"?>
<svg version="1.1" xmlns:xlink="http://www.w3.org/1999/xlink" width="21px" height="20px" preserveAspectRatio="xMinYMid meet" viewBox="278 812 21 18" xmlns="http://www.w3.org/2000/svg">
  <path d="M 290 821  L 263 821  A 5 5 0 0 1 258 816 L 258 779  A 5 5 0 0 0 253 774 L 230 774  " stroke-width="2" stroke-dasharray="0" stroke="rgba(88, 0, 170, 1)" fill="none" class="stroke" />
  <path d="M 288.5 817.5  A 3.5 3.5 0 0 0 285 821 A 3.5 3.5 0 0 0 288.5 824.5 A 3.5 3.5 0 0 0 292 821 A 3.5 3.5 0 0 0 288.5 817.5 Z M 231 766.4  L 224 774  L 231 781.6  L 231 766.4  Z " fill-rule="nonzero" fill="rgba(88, 0, 170, 1)" stroke="none" class="fill" />
</svg>