<?xml version="1.0" encoding="utf-8"?>
<svg version="1.1" xmlns:xlink="http://www.w3.org/1999/xlink" width="53px" height="10px" preserveAspectRatio="xMinYMid meet" viewBox="1450 744 53 8" xmlns="http://www.w3.org/2000/svg">
  <path d="M 1424 837  L 1450 837  A 5 5 0 0 0 1455 832 L 1455 753  A 5 5 0 0 1 1460 748 L 1497 748  " stroke-width="2" stroke-dasharray="0" stroke="rgba(88, 0, 170, 1)" fill="none" class="stroke" />
  <path d="M 1425.5 833.5  A 3.5 3.5 0 0 0 1422 837 A 3.5 3.5 0 0 0 1425.5 840.5 A 3.5 3.5 0 0 0 1429 837 A 3.5 3.5 0 0 0 1425.5 833.5 Z M 1496 755.6  L 1503 748  L 1496 740.4  L 1496 755.6  Z " fill-rule="nonzero" fill="rgba(88, 0, 170, 1)" stroke="none" class="fill" />
</svg>