<?xml version="1.0" encoding="utf-8"?>
<svg version="1.1" xmlns:xlink="http://www.w3.org/1999/xlink" width="21px" height="20px" preserveAspectRatio="xMinYMid meet" viewBox="1415 863 21 18" xmlns="http://www.w3.org/2000/svg">
  <path d="M 1424 872  L 1450 872  A 5 5 0 0 1 1455 877 L 1455 926  A 5 5 0 0 0 1460 931 L 1486 931  " stroke-width="2" stroke-dasharray="0" stroke="rgba(88, 0, 170, 1)" fill="none" class="stroke" />
  <path d="M 1425.5 868.5  A 3.5 3.5 0 0 0 1422 872 A 3.5 3.5 0 0 0 1425.5 875.5 A 3.5 3.5 0 0 0 1429 872 A 3.5 3.5 0 0 0 1425.5 868.5 Z M 1485 938.6  L 1492 931  L 1485 923.4  L 1485 938.6  Z " fill-rule="nonzero" fill="rgba(88, 0, 170, 1)" stroke="none" class="fill" />
</svg>