<?xml version="1.0" encoding="utf-8"?>
<svg version="1.1" xmlns:xlink="http://www.w3.org/1999/xlink" width="21px" height="20px" preserveAspectRatio="xMinYMid meet" viewBox="1415 793 21 18" xmlns="http://www.w3.org/2000/svg">
  <path d="M 1424 802  L 1434.2857142857142 802  A 5 5 0 0 0 1439.2857142857142 797 L 1439.2857142857142 716  A 5 5 0 0 1 1444.2857142857142 711 L 1497 711  " stroke-width="2" stroke-dasharray="0" stroke="rgba(88, 0, 170, 1)" fill="none" class="stroke" />
  <path d="M 1425.5 798.5  A 3.5 3.5 0 0 0 1422 802 A 3.5 3.5 0 0 0 1425.5 805.5 A 3.5 3.5 0 0 0 1429 802 A 3.5 3.5 0 0 0 1425.5 798.5 Z M 1496 718.6  L 1503 711  L 1496 703.4  L 1496 718.6  Z " fill-rule="nonzero" fill="rgba(88, 0, 170, 1)" stroke="none" class="fill" />
</svg>