<?xml version="1.0" encoding="utf-8"?>
<svg version="1.1" xmlns:xlink="http://www.w3.org/1999/xlink" width="21px" height="20px" preserveAspectRatio="xMinYMid meet" viewBox="656 847 21 18" xmlns="http://www.w3.org/2000/svg">
  <path d="M 665 856  L 691 856  A 5 5 0 0 1 696 861 L 696 910  A 5 5 0 0 0 701 915 L 727 915  " stroke-width="2" stroke-dasharray="0" stroke="rgba(88, 0, 170, 1)" fill="none" class="stroke" />
  <path d="M 666.5 852.5  A 3.5 3.5 0 0 0 663 856 A 3.5 3.5 0 0 0 666.5 859.5 A 3.5 3.5 0 0 0 670 856 A 3.5 3.5 0 0 0 666.5 852.5 Z M 726 922.6  L 733 915  L 726 907.4  L 726 922.6  Z " fill-rule="nonzero" fill="rgba(88, 0, 170, 1)" stroke="none" class="fill" />
</svg>