<?xml version="1.0" encoding="utf-8"?>
<svg version="1.1" xmlns:xlink="http://www.w3.org/1999/xlink" width="53px" height="10px" preserveAspectRatio="xMinYMid meet" viewBox="691 728 53 8" xmlns="http://www.w3.org/2000/svg">
  <path d="M 665 821  L 691 821  A 5 5 0 0 0 696 816 L 696 737  A 5 5 0 0 1 701 732 L 738 732  " stroke-width="2" stroke-dasharray="0" stroke="rgba(88, 0, 170, 1)" fill="none" class="stroke" />
  <path d="M 666.5 817.5  A 3.5 3.5 0 0 0 663 821 A 3.5 3.5 0 0 0 666.5 824.5 A 3.5 3.5 0 0 0 670 821 A 3.5 3.5 0 0 0 666.5 817.5 Z M 737 739.6  L 744 732  L 737 724.4  L 737 739.6  Z " fill-rule="nonzero" fill="rgba(88, 0, 170, 1)" stroke="none" class="fill" />
</svg>