<?xml version="1.0" encoding="utf-8"?>
<svg version="1.1" xmlns:xlink="http://www.w3.org/1999/xlink" width="116px" height="10px" preserveAspectRatio="xMinYMid meet" viewBox="479 2365 116 8" xmlns="http://www.w3.org/2000/svg">
  <path d="M 700 2299  L 595 2299  A 5 5 0 0 0 590 2304 L 590 2364  A 5 5 0 0 1 585 2369 L 485 2369  " stroke-width="2" stroke-dasharray="0" stroke="rgba(88, 0, 170, 1)" fill="none" class="stroke" />
  <path d="M 698.5 2295.5  A 3.5 3.5 0 0 0 695 2299 A 3.5 3.5 0 0 0 698.5 2302.5 A 3.5 3.5 0 0 0 702 2299 A 3.5 3.5 0 0 0 698.5 2295.5 Z M 486 2361.4  L 479 2369  L 486 2376.6  L 486 2361.4  Z " fill-rule="nonzero" fill="rgba(88, 0, 170, 1)" stroke="none" class="fill" />
</svg>