<?xml version="1.0" encoding="utf-8"?>
<svg version="1.1" xmlns:xlink="http://www.w3.org/1999/xlink" width="20px" height="20px" preserveAspectRatio="xMinYMid meet" viewBox="609 2416 20 18" xmlns="http://www.w3.org/2000/svg">
  <path d="M 700 2334  L 663 2334  A 5 5 0 0 0 658 2339 L 658 2420  A 5 5 0 0 1 653 2425 L 620 2425  " stroke-width="2" stroke-dasharray="0" stroke="rgba(88, 0, 170, 1)" fill="none" class="stroke" />
  <path d="M 698.5 2330.5  A 3.5 3.5 0 0 0 695 2334 A 3.5 3.5 0 0 0 698.5 2337.5 A 3.5 3.5 0 0 0 702 2334 A 3.5 3.5 0 0 0 698.5 2330.5 Z M 621 2417.4  L 614 2425  L 621 2432.6  L 621 2417.4  Z " fill-rule="nonzero" fill="rgba(88, 0, 170, 1)" stroke="none" class="fill" />
</svg>