<?xml version="1.0" encoding="utf-8"?>
<svg version="1.1" xmlns:xlink="http://www.w3.org/1999/xlink" width="117px" height="10px" preserveAspectRatio="xMinYMid meet" viewBox="-174 2279 117 8" xmlns="http://www.w3.org/2000/svg">
  <path d="M -59 2283  L -164 2283  A 5 5 0 0 0 -169 2288 L -169 2348  A 5 5 0 0 1 -174 2353 L -274 2353  " stroke-width="2" stroke-dasharray="0" stroke="rgba(88, 0, 170, 1)" fill="none" class="stroke" />
  <path d="M -60.5 2279.5  A 3.5 3.5 0 0 0 -64 2283 A 3.5 3.5 0 0 0 -60.5 2286.5 A 3.5 3.5 0 0 0 -57 2283 A 3.5 3.5 0 0 0 -60.5 2279.5 Z M -273 2345.4  L -280 2353  L -273 2360.6  L -273 2345.4  Z " fill-rule="nonzero" fill="rgba(88, 0, 170, 1)" stroke="none" class="fill" />
</svg>