<?xml version="1.0" encoding="utf-8"?>
<svg version="1.1" xmlns:xlink="http://www.w3.org/1999/xlink" width="21px" height="20px" preserveAspectRatio="xMinYMid meet" viewBox="-71 2309 21 18" xmlns="http://www.w3.org/2000/svg">
  <path d="M -59 2318  L -96 2318  A 5 5 0 0 0 -101 2323 L -101 2404  A 5 5 0 0 1 -106 2409 L -139 2409  " stroke-width="2" stroke-dasharray="0" stroke="rgba(88, 0, 170, 1)" fill="none" class="stroke" />
  <path d="M -60.5 2314.5  A 3.5 3.5 0 0 0 -64 2318 A 3.5 3.5 0 0 0 -60.5 2321.5 A 3.5 3.5 0 0 0 -57 2318 A 3.5 3.5 0 0 0 -60.5 2314.5 Z M -138 2401.4  L -145 2409  L -138 2416.6  L -138 2401.4  Z " fill-rule="nonzero" fill="rgba(88, 0, 170, 1)" stroke="none" class="fill" />
</svg>