<?xml version="1.0" encoding="utf-8"?>
<svg version="1.1" xmlns:xlink="http://www.w3.org/1999/xlink" width="10px" height="143px" preserveAspectRatio="xMidYMin meet" viewBox="1151 2161 8 143" xmlns="http://www.w3.org/2000/svg">
  <path d="M 1075 2299  L 1150 2299  A 5 5 0 0 0 1155 2294 L 1155 2171  A 5 5 0 0 1 1160 2166 L 1388 2166  " stroke-width="2" stroke-dasharray="0" stroke="rgba(88, 0, 170, 1)" fill="none" class="stroke" />
  <path d="M 1076.5 2295.5  A 3.5 3.5 0 0 0 1073 2299 A 3.5 3.5 0 0 0 1076.5 2302.5 A 3.5 3.5 0 0 0 1080 2299 A 3.5 3.5 0 0 0 1076.5 2295.5 Z M 1387 2173.6  L 1394 2166  L 1387 2158.4  L 1387 2173.6  Z " fill-rule="nonzero" fill="rgba(88, 0, 170, 1)" stroke="none" class="fill" />
</svg>