<?xml version="1.0" encoding="utf-8"?>
<svg version="1.1" xmlns:xlink="http://www.w3.org/1999/xlink" width="20px" height="20px" preserveAspectRatio="xMinYMid meet" viewBox="620 2141 20 18" xmlns="http://www.w3.org/2000/svg">
  <path d="M 316 2283  L 391 2283  A 5 5 0 0 0 396 2278 L 396 2155  A 5 5 0 0 1 401 2150 L 629 2150  " stroke-width="2" stroke-dasharray="0" stroke="rgba(88, 0, 170, 1)" fill="none" class="stroke" />
  <path d="M 317.5 2279.5  A 3.5 3.5 0 0 0 314 2283 A 3.5 3.5 0 0 0 317.5 2286.5 A 3.5 3.5 0 0 0 321 2283 A 3.5 3.5 0 0 0 317.5 2279.5 Z M 628 2157.6  L 635 2150  L 628 2142.4  L 628 2157.6  Z " fill-rule="nonzero" fill="rgba(88, 0, 170, 1)" stroke="none" class="fill" />
</svg>