<?xml version="1.0" encoding="utf-8"?>
<svg version="1.1" xmlns:xlink="http://www.w3.org/1999/xlink" width="20px" height="20px" preserveAspectRatio="xMinYMid meet" viewBox="1379 2988 20 18" xmlns="http://www.w3.org/2000/svg">
  <path d="M 1075 2334  L 1146 2334  A 5 5 0 0 1 1151 2339 L 1151 2992  A 5 5 0 0 0 1156 2997 L 1388 2997  " stroke-width="2" stroke-dasharray="0" stroke="rgba(88, 0, 170, 1)" fill="none" class="stroke" />
  <path d="M 1076.5 2330.5  A 3.5 3.5 0 0 0 1073 2334 A 3.5 3.5 0 0 0 1076.5 2337.5 A 3.5 3.5 0 0 0 1080 2334 A 3.5 3.5 0 0 0 1076.5 2330.5 Z M 1387 3004.6  L 1394 2997  L 1387 2989.4  L 1387 3004.6  Z " fill-rule="nonzero" fill="rgba(88, 0, 170, 1)" stroke="none" class="fill" />
</svg>