<?xml version="1.0" encoding="utf-8"?>
<svg version="1.1" xmlns:xlink="http://www.w3.org/1999/xlink" width="20px" height="20px" preserveAspectRatio="xMinYMid meet" viewBox="620 2972 20 18" xmlns="http://www.w3.org/2000/svg">
  <path d="M 316 2318  L 387 2318  A 5 5 0 0 1 392 2323 L 392 2976  A 5 5 0 0 0 397 2981 L 629 2981  " stroke-width="2" stroke-dasharray="0" stroke="rgba(88, 0, 170, 1)" fill="none" class="stroke" />
  <path d="M 317.5 2314.5  A 3.5 3.5 0 0 0 314 2318 A 3.5 3.5 0 0 0 317.5 2321.5 A 3.5 3.5 0 0 0 321 2318 A 3.5 3.5 0 0 0 317.5 2314.5 Z M 628 2988.6  L 635 2981  L 628 2973.4  L 628 2988.6  Z " fill-rule="nonzero" fill="rgba(88, 0, 170, 1)" stroke="none" class="fill" />
</svg>