<?xml version="1.0" encoding="utf-8"?>
<svg version="1.1" xmlns:xlink="http://www.w3.org/1999/xlink" width="335px" height="10px" preserveAspectRatio="xMinYMid meet" viewBox="2067 1487 335 8" xmlns="http://www.w3.org/2000/svg">
  <path d="M 2069 1491  L 2392 1491  A 5 5 0 0 0 2397 1486 L 2397 1406  A 5 5 0 0 1 2402 1401 L 2500 1401  " stroke-width="2" stroke-dasharray="0" stroke="rgba(88, 0, 170, 1)" fill="none" class="stroke" />
  <path d="M 2070.5 1487.5  A 3.5 3.5 0 0 0 2067 1491 A 3.5 3.5 0 0 0 2070.5 1494.5 A 3.5 3.5 0 0 0 2074 1491 A 3.5 3.5 0 0 0 2070.5 1487.5 Z M 2499 1408.6  L 2506 1401  L 2499 1393.4  L 2499 1408.6  Z " fill-rule="nonzero" fill="rgba(88, 0, 170, 1)" stroke="none" class="fill" />
</svg>