<?xml version="1.0" encoding="utf-8"?>
<svg version="1.1" xmlns:xlink="http://www.w3.org/1999/xlink" width="10px" height="198px" preserveAspectRatio="xMidYMin meet" viewBox="2268 1627 8 198" xmlns="http://www.w3.org/2000/svg">
  <path d="M 1882 1441  L 1882 1627  A 5 5 0 0 0 1887 1632 L 2267 1632  A 5 5 0 0 1 2272 1637 L 2272 1819  " stroke-width="2" stroke-dasharray="0" stroke="rgba(88, 0, 170, 1)" fill="none" class="stroke" />
  <path d="M 1882 1439  A 3.5 3.5 0 0 0 1878.5 1442.5 A 3.5 3.5 0 0 0 1882 1446 A 3.5 3.5 0 0 0 1885.5 1442.5 A 3.5 3.5 0 0 0 1882 1439 Z M 2264.4 1818  L 2272 1825  L 2279.6 1818  L 2264.4 1818  Z " fill-rule="nonzero" fill="rgba(88, 0, 170, 1)" stroke="none" class="fill" />
</svg>