<?xml version="1.0" encoding="utf-8"?>
<svg version="1.1" xmlns:xlink="http://www.w3.org/1999/xlink" width="400px" height="10px" preserveAspectRatio="xMinYMid meet" viewBox="1118 1612 400 8" xmlns="http://www.w3.org/2000/svg">
  <path d="M 1123 1425  L 1123 1611  A 5 5 0 0 0 1128 1616 L 1508 1616  A 5 5 0 0 1 1513 1621 L 1513 1803  " stroke-width="2" stroke-dasharray="0" stroke="rgba(88, 0, 170, 1)" fill="none" class="stroke" />
  <path d="M 1123 1423  A 3.5 3.5 0 0 0 1119.5 1426.5 A 3.5 3.5 0 0 0 1123 1430 A 3.5 3.5 0 0 0 1126.5 1426.5 A 3.5 3.5 0 0 0 1123 1423 Z M 1505.4 1802  L 1513 1809  L 1520.6 1802  L 1505.4 1802  Z " fill-rule="nonzero" fill="rgba(88, 0, 170, 1)" stroke="none" class="fill" />
</svg>