<?xml version="1.0" encoding="utf-8"?>
<svg version="1.1" xmlns:xlink="http://www.w3.org/1999/xlink" width="21px" height="20px" preserveAspectRatio="xMinYMid meet" viewBox="2929 896 21 18" xmlns="http://www.w3.org/2000/svg">
  <path d="M 2938 905  L 3001 905  A 5 5 0 0 1 3006 910 L 3006 1006  A 5 5 0 0 0 3011 1011 L 3071 1011  " stroke-width="2" stroke-dasharray="0" stroke="rgba(88, 0, 170, 1)" fill="none" class="stroke" />
  <path d="M 2939.5 901.5  A 3.5 3.5 0 0 0 2936 905 A 3.5 3.5 0 0 0 2939.5 908.5 A 3.5 3.5 0 0 0 2943 905 A 3.5 3.5 0 0 0 2939.5 901.5 Z M 3070 1018.6  L 3077 1011  L 3070 1003.4  L 3070 1018.6  Z " fill-rule="nonzero" fill="rgba(88, 0, 170, 1)" stroke="none" class="fill" />
</svg>