<?xml version="1.0" encoding="utf-8"?>
<svg version="1.1" xmlns:xlink="http://www.w3.org/1999/xlink" width="57px" height="10px" preserveAspectRatio="xMinYMid meet" viewBox="2508 901 57 8" xmlns="http://www.w3.org/2000/svg">
  <path d="M 2563 905  L 2518 905  A 5 5 0 0 1 2513 900 L 2513 813  A 5 5 0 0 0 2508 808 L 2468 808  " stroke-width="2" stroke-dasharray="0" stroke="rgba(88, 0, 170, 1)" fill="none" class="stroke" />
  <path d="M 2561.5 901.5  A 3.5 3.5 0 0 0 2558 905 A 3.5 3.5 0 0 0 2561.5 908.5 A 3.5 3.5 0 0 0 2565 905 A 3.5 3.5 0 0 0 2561.5 901.5 Z M 2469 800.4  L 2462 808  L 2469 815.6  L 2469 800.4  Z " fill-rule="nonzero" fill="rgba(88, 0, 170, 1)" stroke="none" class="fill" />
</svg>