<?xml version="1.0" encoding="utf-8"?>
<svg version="1.1" xmlns:xlink="http://www.w3.org/1999/xlink" width="10px" height="116px" preserveAspectRatio="xMidYMin meet" viewBox="1891 697 8 116" xmlns="http://www.w3.org/2000/svg">
  <path d="M 1827 702  L 1890 702  A 5 5 0 0 1 1895 707 L 1895 803  A 5 5 0 0 0 1900 808 L 1960 808  " stroke-width="2" stroke-dasharray="0" stroke="rgba(88, 0, 170, 1)" fill="none" class="stroke" />
  <path d="M 1828.5 698.5  A 3.5 3.5 0 0 0 1825 702 A 3.5 3.5 0 0 0 1828.5 705.5 A 3.5 3.5 0 0 0 1832 702 A 3.5 3.5 0 0 0 1828.5 698.5 Z M 1959 815.6  L 1966 808  L 1959 800.4  L 1959 815.6  Z " fill-rule="nonzero" fill="rgba(88, 0, 170, 1)" stroke="none" class="fill" />
</svg>