<?xml version="1.0" encoding="utf-8"?>
<svg version="1.1" xmlns:xlink="http://www.w3.org/1999/xlink" width="20px" height="20px" preserveAspectRatio="xMinYMid meet" viewBox="2406 1378 20 18" xmlns="http://www.w3.org/2000/svg">
  <path d="M 2282 1281  L 2345 1281  A 5 5 0 0 1 2350 1286 L 2350 1382  A 5 5 0 0 0 2355 1387 L 2415 1387  " stroke-width="2" stroke-dasharray="0" stroke="rgba(88, 0, 170, 1)" fill="none" class="stroke" />
  <path d="M 2283.5 1277.5  A 3.5 3.5 0 0 0 2280 1281 A 3.5 3.5 0 0 0 2283.5 1284.5 A 3.5 3.5 0 0 0 2287 1281 A 3.5 3.5 0 0 0 2283.5 1277.5 Z M 2414 1394.6  L 2421 1387  L 2414 1379.4  L 2414 1394.6  Z " fill-rule="nonzero" fill="rgba(88, 0, 170, 1)" stroke="none" class="fill" />
</svg>