<?xml version="1.0" encoding="utf-8"?>
<svg version="1.1" xmlns:xlink="http://www.w3.org/1999/xlink" width="21px" height="20px" preserveAspectRatio="xMinYMid meet" viewBox="1895 1272 21 18" xmlns="http://www.w3.org/2000/svg">
  <path d="M 1907 1281  L 1862 1281  A 5 5 0 0 1 1857 1276 L 1857 1189  A 5 5 0 0 0 1852 1184 L 1812 1184  " stroke-width="2" stroke-dasharray="0" stroke="rgba(88, 0, 170, 1)" fill="none" class="stroke" />
  <path d="M 1905.5 1277.5  A 3.5 3.5 0 0 0 1902 1281 A 3.5 3.5 0 0 0 1905.5 1284.5 A 3.5 3.5 0 0 0 1909 1281 A 3.5 3.5 0 0 0 1905.5 1277.5 Z M 1813 1176.4  L 1806 1184  L 1813 1191.6  L 1813 1176.4  Z " fill-rule="nonzero" fill="rgba(88, 0, 170, 1)" stroke="none" class="fill" />
</svg>