<?xml version="1.0" encoding="utf-8"?>
<svg version="1.1" xmlns:xlink="http://www.w3.org/1999/xlink" width="56px" height="10px" preserveAspectRatio="xMinYMid meet" viewBox="1351 601 56 8" xmlns="http://www.w3.org/2000/svg">
  <path d="M 1452 702  L 1407 702  A 5 5 0 0 1 1402 697 L 1402 610  A 5 5 0 0 0 1397 605 L 1357 605  " stroke-width="2" stroke-dasharray="0" stroke="rgba(88, 0, 170, 1)" fill="none" class="stroke" />
  <path d="M 1450.5 698.5  A 3.5 3.5 0 0 0 1447 702 A 3.5 3.5 0 0 0 1450.5 705.5 A 3.5 3.5 0 0 0 1454 702 A 3.5 3.5 0 0 0 1450.5 698.5 Z M 1358 597.4  L 1351 605  L 1358 612.6  L 1358 597.4  Z " fill-rule="nonzero" fill="rgba(88, 0, 170, 1)" stroke="none" class="fill" />
</svg>