<?xml version="1.0" encoding="utf-8"?>
<svg version="1.1" xmlns:xlink="http://www.w3.org/1999/xlink" width="57px" height="10px" preserveAspectRatio="xMinYMid meet" viewBox="1152 698 57 8" xmlns="http://www.w3.org/2000/svg">
  <path d="M 1207 702  L 1162 702  A 5 5 0 0 1 1157 697 L 1157 610  A 5 5 0 0 0 1152 605 L 1112 605  " stroke-width="2" stroke-dasharray="0" stroke="rgba(88, 0, 170, 1)" fill="none" class="stroke" />
  <path d="M 1205.5 698.5  A 3.5 3.5 0 0 0 1202 702 A 3.5 3.5 0 0 0 1205.5 705.5 A 3.5 3.5 0 0 0 1209 702 A 3.5 3.5 0 0 0 1205.5 698.5 Z M 1113 597.4  L 1106 605  L 1113 612.6  L 1113 597.4  Z " fill-rule="nonzero" fill="rgba(88, 0, 170, 1)" stroke="none" class="fill" />
</svg>