<?xml version="1.0" encoding="utf-8"?>
<svg version="1.1" xmlns:xlink="http://www.w3.org/1999/xlink" width="10px" height="554px" preserveAspectRatio="xMidYMin meet" viewBox="1391 803 8 554" xmlns="http://www.w3.org/2000/svg">
  <path d="M 1360 1352  L 1390 1352  A 5 5 0 0 0 1395 1347 L 1395 813  A 5 5 0 0 1 1400 808 L 1444 808  " stroke-width="2" stroke-dasharray="0" stroke="rgba(88, 0, 170, 1)" fill="none" class="stroke" />
  <path d="M 1361.5 1348.5  A 3.5 3.5 0 0 0 1358 1352 A 3.5 3.5 0 0 0 1361.5 1355.5 A 3.5 3.5 0 0 0 1365 1352 A 3.5 3.5 0 0 0 1361.5 1348.5 Z M 1443 815.6  L 1450 808  L 1443 800.4  L 1443 815.6  Z " fill-rule="nonzero" fill="rgba(88, 0, 170, 1)" stroke="none" class="fill" />
</svg>