<?xml version="1.0" encoding="utf-8"?>
<svg version="1.1" xmlns:xlink="http://www.w3.org/1999/xlink" width="100px" height="10px" preserveAspectRatio="xMinYMid meet" viewBox="592 1488 100 8" xmlns="http://www.w3.org/2000/svg">
  <path d="M 690 1492  L 602 1492  A 5 5 0 0 0 597 1497 L 597 1605  A 5 5 0 0 1 592 1610 L 508 1610  " stroke-width="2" stroke-dasharray="0" stroke="rgba(88, 0, 170, 1)" fill="none" class="stroke" />
  <path d="M 688.5 1488.5  A 3.5 3.5 0 0 0 685 1492 A 3.5 3.5 0 0 0 688.5 1495.5 A 3.5 3.5 0 0 0 692 1492 A 3.5 3.5 0 0 0 688.5 1488.5 Z M 509 1602.4  L 502 1610  L 509 1617.6  L 509 1602.4  Z " fill-rule="nonzero" fill="rgba(88, 0, 170, 1)" stroke="none" class="fill" />
</svg>