<?xml version="1.0" encoding="utf-8"?>
<svg version="1.1" xmlns:xlink="http://www.w3.org/1999/xlink" width="10px" height="57px" preserveAspectRatio="xMidYMin meet" viewBox="283 1512 8 57" xmlns="http://www.w3.org/2000/svg">
  <path d="M 319 1564  L 292 1564  A 5 5 0 0 1 287 1559 L 287 1522  A 5 5 0 0 0 282 1517 L 259 1517  " stroke-width="2" stroke-dasharray="0" stroke="rgba(88, 0, 170, 1)" fill="none" class="stroke" />
  <path d="M 317.5 1560.5  A 3.5 3.5 0 0 0 314 1564 A 3.5 3.5 0 0 0 317.5 1567.5 A 3.5 3.5 0 0 0 321 1564 A 3.5 3.5 0 0 0 317.5 1560.5 Z M 260 1509.4  L 253 1517  L 260 1524.6  L 260 1509.4  Z " fill-rule="nonzero" fill="rgba(88, 0, 170, 1)" stroke="none" class="fill" />
</svg>