<?xml version="1.0" encoding="utf-8"?>
<svg version="1.1" xmlns:xlink="http://www.w3.org/1999/xlink" width="21px" height="20px" preserveAspectRatio="xMinYMid meet" viewBox="62 1555 21 18" xmlns="http://www.w3.org/2000/svg">
  <path d="M 74 1564  L 47 1564  A 5 5 0 0 1 42 1559 L 42 1522  A 5 5 0 0 0 37 1517 L 14 1517  " stroke-width="2" stroke-dasharray="0" stroke="rgba(88, 0, 170, 1)" fill="none" class="stroke" />
  <path d="M 72.5 1560.5  A 3.5 3.5 0 0 0 69 1564 A 3.5 3.5 0 0 0 72.5 1567.5 A 3.5 3.5 0 0 0 76 1564 A 3.5 3.5 0 0 0 72.5 1560.5 Z M 15 1509.4  L 8 1517  L 15 1524.6  L 15 1509.4  Z " fill-rule="nonzero" fill="rgba(88, 0, 170, 1)" stroke="none" class="fill" />
</svg>