<?xml version="1.0" encoding="utf-8"?>
<svg version="1.1" xmlns:xlink="http://www.w3.org/1999/xlink" width="10px" height="66px" preserveAspectRatio="xMidYMin meet" viewBox="287 1468 8 66" xmlns="http://www.w3.org/2000/svg">
  <path d="M 319 1529  L 296 1529  A 5 5 0 0 1 291 1524 L 291 1478  A 5 5 0 0 0 286 1473 L 267 1473  " stroke-width="2" stroke-dasharray="0" stroke="rgba(88, 0, 170, 1)" fill="none" class="stroke" />
  <path d="M 317.5 1525.5  A 3.5 3.5 0 0 0 314 1529 A 3.5 3.5 0 0 0 317.5 1532.5 A 3.5 3.5 0 0 0 321 1529 A 3.5 3.5 0 0 0 317.5 1525.5 Z M 268 1465.4  L 261 1473  L 268 1480.6  L 268 1465.4  Z " fill-rule="nonzero" fill="rgba(88, 0, 170, 1)" stroke="none" class="fill" />
</svg>