<?xml version="1.0" encoding="utf-8"?>
<svg version="1.1" xmlns:xlink="http://www.w3.org/1999/xlink" width="20px" height="20px" preserveAspectRatio="xMinYMid meet" viewBox="742 1601 20 18" xmlns="http://www.w3.org/2000/svg">
  <path d="M 935 1492  L 847 1492  A 5 5 0 0 0 842 1497 L 842 1605  A 5 5 0 0 1 837 1610 L 753 1610  " stroke-width="2" stroke-dasharray="0" stroke="rgba(88, 0, 170, 1)" fill="none" class="stroke" />
  <path d="M 933.5 1488.5  A 3.5 3.5 0 0 0 930 1492 A 3.5 3.5 0 0 0 933.5 1495.5 A 3.5 3.5 0 0 0 937 1492 A 3.5 3.5 0 0 0 933.5 1488.5 Z M 754 1602.4  L 747 1610  L 754 1617.6  L 754 1602.4  Z " fill-rule="nonzero" fill="rgba(88, 0, 170, 1)" stroke="none" class="fill" />
</svg>