<?xml version="1.0" encoding="utf-8"?>
<svg version="1.1" xmlns:xlink="http://www.w3.org/1999/xlink" width="21px" height="20px" preserveAspectRatio="xMinYMid meet" viewBox="62 1520 21 18" xmlns="http://www.w3.org/2000/svg">
  <path d="M 74 1529  L 51 1529  A 5 5 0 0 1 46 1524 L 46 1478  A 5 5 0 0 0 41 1473 L 22 1473  " stroke-width="2" stroke-dasharray="0" stroke="rgba(88, 0, 170, 1)" fill="none" class="stroke" />
  <path d="M 72.5 1525.5  A 3.5 3.5 0 0 0 69 1529 A 3.5 3.5 0 0 0 72.5 1532.5 A 3.5 3.5 0 0 0 76 1529 A 3.5 3.5 0 0 0 72.5 1525.5 Z M 23 1465.4  L 16 1473  L 23 1480.6  L 23 1465.4  Z " fill-rule="nonzero" fill="rgba(88, 0, 170, 1)" stroke="none" class="fill" />
</svg>