<?xml version="1.0" encoding="utf-8"?>
<svg version="1.1" xmlns:xlink="http://www.w3.org/1999/xlink" width="20px" height="20px" preserveAspectRatio="xMinYMid meet" viewBox="747 1649 20 18" xmlns="http://www.w3.org/2000/svg">
  <path d="M 694 1599  L 720 1599  A 5 5 0 0 1 725 1604 L 725 1653  A 5 5 0 0 0 730 1658 L 756 1658  " stroke-width="2" stroke-dasharray="0" stroke="rgba(88, 0, 170, 1)" fill="none" class="stroke" />
  <path d="M 695.5 1595.5  A 3.5 3.5 0 0 0 692 1599 A 3.5 3.5 0 0 0 695.5 1602.5 A 3.5 3.5 0 0 0 699 1599 A 3.5 3.5 0 0 0 695.5 1595.5 Z M 755 1665.6  L 762 1658  L 755 1650.4  L 755 1665.6  Z " fill-rule="nonzero" fill="rgba(88, 0, 170, 1)" stroke="none" class="fill" />
</svg>