<?xml version="1.0" encoding="utf-8"?>
<svg version="1.1" xmlns:xlink="http://www.w3.org/1999/xlink" width="22.285714285714334px" height="10px" preserveAspectRatio="xMinYMid meet" viewBox="692 1525 22.285714285714334 8" xmlns="http://www.w3.org/2000/svg">
  <path d="M 694 1529  L 704.2857142857143 1529  A 5 5 0 0 0 709.2857142857143 1524 L 709.2857142857143 1443  A 5 5 0 0 1 714.2857142857143 1438 L 767 1438  " stroke-width="2" stroke-dasharray="0" stroke="rgba(88, 0, 170, 1)" fill="none" class="stroke" />
  <path d="M 695.5 1525.5  A 3.5 3.5 0 0 0 692 1529 A 3.5 3.5 0 0 0 695.5 1532.5 A 3.5 3.5 0 0 0 699 1529 A 3.5 3.5 0 0 0 695.5 1525.5 Z M 766 1445.6  L 773 1438  L 766 1430.4  L 766 1445.6  Z " fill-rule="nonzero" fill="rgba(88, 0, 170, 1)" stroke="none" class="fill" />
</svg>