<?xml version="1.0" encoding="utf-8"?>
<svg version="1.1" xmlns:xlink="http://www.w3.org/1999/xlink" width="53px" height="10px" preserveAspectRatio="xMinYMid meet" viewBox="720 1471 53 8" xmlns="http://www.w3.org/2000/svg">
  <path d="M 694 1564  L 720 1564  A 5 5 0 0 0 725 1559 L 725 1480  A 5 5 0 0 1 730 1475 L 767 1475  " stroke-width="2" stroke-dasharray="0" stroke="rgba(88, 0, 170, 1)" fill="none" class="stroke" />
  <path d="M 695.5 1560.5  A 3.5 3.5 0 0 0 692 1564 A 3.5 3.5 0 0 0 695.5 1567.5 A 3.5 3.5 0 0 0 699 1564 A 3.5 3.5 0 0 0 695.5 1560.5 Z M 766 1482.6  L 773 1475  L 766 1467.4  L 766 1482.6  Z " fill-rule="nonzero" fill="rgba(88, 0, 170, 1)" stroke="none" class="fill" />
</svg>