<?xml version="1.0" encoding="utf-8"?>
<svg version="1.1" xmlns:xlink="http://www.w3.org/1999/xlink" width="68.71428571428567px" height="10px" preserveAspectRatio="xMinYMid meet" viewBox="459.28571428571433 1434 68.71428571428567 8" xmlns="http://www.w3.org/2000/svg">
  <path d="M 449 1529  L 459.28571428571433 1529  A 5 5 0 0 0 464.28571428571433 1524 L 464.28571428571433 1443  A 5 5 0 0 1 469.28571428571433 1438 L 522 1438  " stroke-width="2" stroke-dasharray="0" stroke="rgba(88, 0, 170, 1)" fill="none" class="stroke" />
  <path d="M 450.5 1525.5  A 3.5 3.5 0 0 0 447 1529 A 3.5 3.5 0 0 0 450.5 1532.5 A 3.5 3.5 0 0 0 454 1529 A 3.5 3.5 0 0 0 450.5 1525.5 Z M 521 1445.6  L 528 1438  L 521 1430.4  L 521 1445.6  Z " fill-rule="nonzero" fill="rgba(88, 0, 170, 1)" stroke="none" class="fill" />
</svg>