<?xml version="1.0" encoding="utf-8"?>
<svg version="1.1" xmlns:xlink="http://www.w3.org/1999/xlink" width="21px" height="20px" preserveAspectRatio="xMinYMid meet" viewBox="440 1590 21 18" xmlns="http://www.w3.org/2000/svg">
  <path d="M 449 1599  L 475 1599  A 5 5 0 0 1 480 1604 L 480 1653  A 5 5 0 0 0 485 1658 L 511 1658  " stroke-width="2" stroke-dasharray="0" stroke="rgba(88, 0, 170, 1)" fill="none" class="stroke" />
  <path d="M 450.5 1595.5  A 3.5 3.5 0 0 0 447 1599 A 3.5 3.5 0 0 0 450.5 1602.5 A 3.5 3.5 0 0 0 454 1599 A 3.5 3.5 0 0 0 450.5 1595.5 Z M 510 1665.6  L 517 1658  L 510 1650.4  L 510 1665.6  Z " fill-rule="nonzero" fill="rgba(88, 0, 170, 1)" stroke="none" class="fill" />
</svg>