<?xml version="1.0" encoding="utf-8"?>
<svg version="1.1" xmlns:xlink="http://www.w3.org/1999/xlink" width="10px" height="101px" preserveAspectRatio="xMidYMin meet" viewBox="677 2441 8 101" xmlns="http://www.w3.org/2000/svg">
  <path d="M 723 2446  L 686 2446  A 5 5 0 0 0 681 2451 L 681 2532  A 5 5 0 0 1 676 2537 L 643 2537  " stroke-width="2" stroke-dasharray="0" stroke="rgba(88, 0, 170, 1)" fill="none" class="stroke" />
  <path d="M 721.5 2442.5  A 3.5 3.5 0 0 0 718 2446 A 3.5 3.5 0 0 0 721.5 2449.5 A 3.5 3.5 0 0 0 725 2446 A 3.5 3.5 0 0 0 721.5 2442.5 Z M 644 2529.4  L 637 2537  L 644 2544.6  L 644 2529.4  Z " fill-rule="nonzero" fill="rgba(88, 0, 170, 1)" stroke="none" class="fill" />
</svg>