<?xml version="1.0" encoding="utf-8"?>
<svg version="1.1" xmlns:xlink="http://www.w3.org/1999/xlink" width="20px" height="21px" preserveAspectRatio="xMidYMin meet" viewBox="788 1536 18 21" xmlns="http://www.w3.org/2000/svg">
  <path d="M 797 1545  L 797 1795  A 5 5 0 0 0 802 1800 L 931 1800  A 5 5 0 0 1 936 1805 L 936 2052  " stroke-width="2" stroke-dasharray="0" stroke="rgba(88, 0, 170, 1)" fill="none" class="stroke" />
  <path d="M 797 1543  A 3.5 3.5 0 0 0 793.5 1546.5 A 3.5 3.5 0 0 0 797 1550 A 3.5 3.5 0 0 0 800.5 1546.5 A 3.5 3.5 0 0 0 797 1543 Z M 928.4 2051  L 936 2058  L 943.6 2051  L 928.4 2051  Z " fill-rule="nonzero" fill="rgba(88, 0, 170, 1)" stroke="none" class="fill" />
</svg>