<?xml version="1.0" encoding="utf-8"?>
<svg version="1.1" xmlns:xlink="http://www.w3.org/1999/xlink" width="10px" height="80px" preserveAspectRatio="xMidYMin meet" viewBox="609 2406 8 80" xmlns="http://www.w3.org/2000/svg">
  <path d="M 723 2411  L 618 2411  A 5 5 0 0 0 613 2416 L 613 2476  A 5 5 0 0 1 608 2481 L 508 2481  " stroke-width="2" stroke-dasharray="0" stroke="rgba(88, 0, 170, 1)" fill="none" class="stroke" />
  <path d="M 721.5 2407.5  A 3.5 3.5 0 0 0 718 2411 A 3.5 3.5 0 0 0 721.5 2414.5 A 3.5 3.5 0 0 0 725 2411 A 3.5 3.5 0 0 0 721.5 2407.5 Z M 509 2473.4  L 502 2481  L 509 2488.6  L 509 2473.4  Z " fill-rule="nonzero" fill="rgba(88, 0, 170, 1)" stroke="none" class="fill" />
</svg>