<?xml version="1.0" encoding="utf-8"?>
<svg version="1.1" xmlns:xlink="http://www.w3.org/1999/xlink" width="20px" height="21px" preserveAspectRatio="xMidYMin meet" viewBox="1033 1536 18 21" xmlns="http://www.w3.org/2000/svg">
  <path d="M 1042 1545  L 1042 1795  A 5 5 0 0 0 1047 1800 L 1176 1800  A 5 5 0 0 1 1181 1805 L 1181 2052  " stroke-width="2" stroke-dasharray="0" stroke="rgba(88, 0, 170, 1)" fill="none" class="stroke" />
  <path d="M 1042 1543  A 3.5 3.5 0 0 0 1038.5 1546.5 A 3.5 3.5 0 0 0 1042 1550 A 3.5 3.5 0 0 0 1045.5 1546.5 A 3.5 3.5 0 0 0 1042 1543 Z M 1173.4 2051  L 1181 2058  L 1188.6 2051  L 1173.4 2051  Z " fill-rule="nonzero" fill="rgba(88, 0, 170, 1)" stroke="none" class="fill" />
</svg>