<?xml version="1.0" encoding="utf-8"?>
<svg version="1.1" xmlns:xlink="http://www.w3.org/1999/xlink" width="20px" height="20px" preserveAspectRatio="xMinYMid meet" viewBox="877 2528 20 18" xmlns="http://www.w3.org/2000/svg">
  <path d="M 968 2446  L 931 2446  A 5 5 0 0 0 926 2451 L 926 2532  A 5 5 0 0 1 921 2537 L 888 2537  " stroke-width="2" stroke-dasharray="0" stroke="rgba(88, 0, 170, 1)" fill="none" class="stroke" />
  <path d="M 966.5 2442.5  A 3.5 3.5 0 0 0 963 2446 A 3.5 3.5 0 0 0 966.5 2449.5 A 3.5 3.5 0 0 0 970 2446 A 3.5 3.5 0 0 0 966.5 2442.5 Z M 889 2529.4  L 882 2537  L 889 2544.6  L 889 2529.4  Z " fill-rule="nonzero" fill="rgba(88, 0, 170, 1)" stroke="none" class="fill" />
</svg>