<?xml version="1.0" encoding="utf-8"?>
<svg version="1.1" xmlns:xlink="http://www.w3.org/1999/xlink" width="116px" height="10px" preserveAspectRatio="xMinYMid meet" viewBox="747 2477 116 8" xmlns="http://www.w3.org/2000/svg">
  <path d="M 968 2411  L 863 2411  A 5 5 0 0 0 858 2416 L 858 2476  A 5 5 0 0 1 853 2481 L 753 2481  " stroke-width="2" stroke-dasharray="0" stroke="rgba(88, 0, 170, 1)" fill="none" class="stroke" />
  <path d="M 966.5 2407.5  A 3.5 3.5 0 0 0 963 2411 A 3.5 3.5 0 0 0 966.5 2414.5 A 3.5 3.5 0 0 0 970 2411 A 3.5 3.5 0 0 0 966.5 2407.5 Z M 754 2473.4  L 747 2481  L 754 2488.6  L 754 2473.4  Z " fill-rule="nonzero" fill="rgba(88, 0, 170, 1)" stroke="none" class="fill" />
</svg>