<?xml version="1.0" encoding="utf-8"?>
<svg version="1.1" xmlns:xlink="http://www.w3.org/1999/xlink" width="10px" height="304px" preserveAspectRatio="xMidYMin meet" viewBox="1174 2112 8 304" xmlns="http://www.w3.org/2000/svg">
  <path d="M 1098 2411  L 1173 2411  A 5 5 0 0 0 1178 2406 L 1178 2122  A 5 5 0 0 1 1183 2117 L 1411 2117  " stroke-width="2" stroke-dasharray="0" stroke="rgba(88, 0, 170, 1)" fill="none" class="stroke" />
  <path d="M 1099.5 2407.5  A 3.5 3.5 0 0 0 1096 2411 A 3.5 3.5 0 0 0 1099.5 2414.5 A 3.5 3.5 0 0 0 1103 2411 A 3.5 3.5 0 0 0 1099.5 2407.5 Z M 1410 2124.6  L 1417 2117  L 1410 2109.4  L 1410 2124.6  Z " fill-rule="nonzero" fill="rgba(88, 0, 170, 1)" stroke="none" class="fill" />
</svg>