<?xml version="1.0" encoding="utf-8"?>
<svg version="1.1" xmlns:xlink="http://www.w3.org/1999/xlink" width="20px" height="20px" preserveAspectRatio="xMinYMid meet" viewBox="1647 2108 20 18" xmlns="http://www.w3.org/2000/svg">
  <path d="M 1343 2411  L 1418 2411  A 5 5 0 0 0 1423 2406 L 1423 2122  A 5 5 0 0 1 1428 2117 L 1656 2117  " stroke-width="2" stroke-dasharray="0" stroke="rgba(88, 0, 170, 1)" fill="none" class="stroke" />
  <path d="M 1344.5 2407.5  A 3.5 3.5 0 0 0 1341 2411 A 3.5 3.5 0 0 0 1344.5 2414.5 A 3.5 3.5 0 0 0 1348 2411 A 3.5 3.5 0 0 0 1344.5 2407.5 Z M 1655 2124.6  L 1662 2117  L 1655 2109.4  L 1655 2124.6  Z " fill-rule="nonzero" fill="rgba(88, 0, 170, 1)" stroke="none" class="fill" />
</svg>