<?xml version="1.0" encoding="utf-8"?>
<svg version="1.1" xmlns:xlink="http://www.w3.org/1999/xlink" width="83px" height="10px" preserveAspectRatio="xMinYMid meet" viewBox="1096 2442 83 8" xmlns="http://www.w3.org/2000/svg">
  <path d="M 1098 2446  L 1169 2446  A 5 5 0 0 1 1174 2451 L 1174 3104  A 5 5 0 0 0 1179 3109 L 1411 3109  " stroke-width="2" stroke-dasharray="0" stroke="rgba(88, 0, 170, 1)" fill="none" class="stroke" />
  <path d="M 1099.5 2442.5  A 3.5 3.5 0 0 0 1096 2446 A 3.5 3.5 0 0 0 1099.5 2449.5 A 3.5 3.5 0 0 0 1103 2446 A 3.5 3.5 0 0 0 1099.5 2442.5 Z M 1410 3116.6  L 1417 3109  L 1410 3101.4  L 1410 3116.6  Z " fill-rule="nonzero" fill="rgba(88, 0, 170, 1)" stroke="none" class="fill" />
</svg>