<?xml version="1.0" encoding="utf-8"?>
<svg version="1.1" xmlns:xlink="http://www.w3.org/1999/xlink" width="203px" height="10px" preserveAspectRatio="xMinYMid meet" viewBox="1358 1453 203 8" xmlns="http://www.w3.org/2000/svg">
  <path d="M 1360 1457  L 1551 1457  A 5 5 0 0 0 1556 1452 L 1556 470  A 5 5 0 0 1 1561 465 L 1644 465  " stroke-width="2" stroke-dasharray="0" stroke="rgba(88, 0, 170, 1)" fill="none" class="stroke" />
  <path d="M 1361.5 1453.5  A 3.5 3.5 0 0 0 1358 1457 A 3.5 3.5 0 0 0 1361.5 1460.5 A 3.5 3.5 0 0 0 1365 1457 A 3.5 3.5 0 0 0 1361.5 1453.5 Z M 1643 472.6  L 1650 465  L 1643 457.4  L 1643 472.6  Z " fill-rule="nonzero" fill="rgba(88, 0, 170, 1)" stroke="none" class="fill" />
</svg>