<?xml version="1.0" encoding="utf-8"?>
<svg version="1.1" xmlns:xlink="http://www.w3.org/1999/xlink" width="279px" height="10px" preserveAspectRatio="xMinYMid meet" viewBox="1626 1383 279 8" xmlns="http://www.w3.org/2000/svg">
  <path d="M 1360 1492  L 1626 1492  A 5 5 0 0 0 1631 1487 L 1631 1392  A 5 5 0 0 1 1636 1387 L 1899 1387  " stroke-width="2" stroke-dasharray="0" stroke="rgba(88, 0, 170, 1)" fill="none" class="stroke" />
  <path d="M 1361.5 1488.5  A 3.5 3.5 0 0 0 1358 1492 A 3.5 3.5 0 0 0 1361.5 1495.5 A 3.5 3.5 0 0 0 1365 1492 A 3.5 3.5 0 0 0 1361.5 1488.5 Z M 1898 1394.6  L 1905 1387  L 1898 1379.4  L 1898 1394.6  Z " fill-rule="nonzero" fill="rgba(88, 0, 170, 1)" stroke="none" class="fill" />
</svg>