<?xml version="1.0" encoding="utf-8"?>
<svg version="1.1" xmlns:xlink="http://www.w3.org/1999/xlink" width="134px" height="10px" preserveAspectRatio="xMinYMid meet" viewBox="1532 487 134 8" xmlns="http://www.w3.org/2000/svg">
  <path d="M 1749 856  L 1666 856  A 5 5 0 0 1 1661 851 L 1661 496  A 5 5 0 0 0 1656 491 L 1538 491  " stroke-width="2" stroke-dasharray="0" stroke="rgba(88, 0, 170, 1)" fill="none" class="stroke" />
  <path d="M 1747.5 852.5  A 3.5 3.5 0 0 0 1744 856 A 3.5 3.5 0 0 0 1747.5 859.5 A 3.5 3.5 0 0 0 1751 856 A 3.5 3.5 0 0 0 1747.5 852.5 Z M 1539 483.4  L 1532 491  L 1539 498.6  L 1539 483.4  Z " fill-rule="nonzero" fill="rgba(88, 0, 170, 1)" stroke="none" class="fill" />
</svg>