<?xml version="1.0" encoding="utf-8"?>
<svg version="1.1" xmlns:xlink="http://www.w3.org/1999/xlink" width="35px" height="10px" preserveAspectRatio="xMinYMid meet" viewBox="1046 350 35 8" xmlns="http://www.w3.org/2000/svg">
  <path d="M 1104 410  L 1081 410  A 5 5 0 0 1 1076 405 L 1076 359  A 5 5 0 0 0 1071 354 L 1052 354  " stroke-width="2" stroke-dasharray="0" stroke="rgba(88, 0, 170, 1)" fill="none" class="stroke" />
  <path d="M 1102.5 406.5  A 3.5 3.5 0 0 0 1099 410 A 3.5 3.5 0 0 0 1102.5 413.5 A 3.5 3.5 0 0 0 1106 410 A 3.5 3.5 0 0 0 1102.5 406.5 Z M 1053 346.4  L 1046 354  L 1053 361.6  L 1053 346.4  Z " fill-rule="nonzero" fill="rgba(88, 0, 170, 1)" stroke="none" class="fill" />
</svg>