<?xml version="1.0" encoding="utf-8"?>
<svg version="1.1" xmlns:xlink="http://www.w3.org/1999/xlink" width="39px" height="10px" preserveAspectRatio="xMinYMid meet" viewBox="1067 441 39 8" xmlns="http://www.w3.org/2000/svg">
  <path d="M 1104 445  L 1077 445  A 5 5 0 0 1 1072 440 L 1072 403  A 5 5 0 0 0 1067 398 L 1044 398  " stroke-width="2" stroke-dasharray="0" stroke="rgba(88, 0, 170, 1)" fill="none" class="stroke" />
  <path d="M 1102.5 441.5  A 3.5 3.5 0 0 0 1099 445 A 3.5 3.5 0 0 0 1102.5 448.5 A 3.5 3.5 0 0 0 1106 445 A 3.5 3.5 0 0 0 1102.5 441.5 Z M 1045 390.4  L 1038 398  L 1045 405.6  L 1045 390.4  Z " fill-rule="nonzero" fill="rgba(88, 0, 170, 1)" stroke="none" class="fill" />
</svg>