<?xml version="1.0" encoding="utf-8"?>
<svg version="1.1" xmlns:xlink="http://www.w3.org/1999/xlink" width="20px" height="20px" preserveAspectRatio="xMinYMid meet" viewBox="1543 347 20 18" xmlns="http://www.w3.org/2000/svg">
  <path d="M 1479 445  L 1505 445  A 5 5 0 0 0 1510 440 L 1510 361  A 5 5 0 0 1 1515 356 L 1552 356  " stroke-width="2" stroke-dasharray="0" stroke="rgba(88, 0, 170, 1)" fill="none" class="stroke" />
  <path d="M 1480.5 441.5  A 3.5 3.5 0 0 0 1477 445 A 3.5 3.5 0 0 0 1480.5 448.5 A 3.5 3.5 0 0 0 1484 445 A 3.5 3.5 0 0 0 1480.5 441.5 Z M 1551 363.6  L 1558 356  L 1551 348.4  L 1551 363.6  Z " fill-rule="nonzero" fill="rgba(88, 0, 170, 1)" stroke="none" class="fill" />
</svg>