<?xml version="1.0" encoding="utf-8"?>
<svg version="1.1" xmlns:xlink="http://www.w3.org/1999/xlink" width="42px" height="10px" preserveAspectRatio="xMinYMid meet" viewBox="1505 535 42 8" xmlns="http://www.w3.org/2000/svg">
  <path d="M 1479 480  L 1505 480  A 5 5 0 0 1 1510 485 L 1510 534  A 5 5 0 0 0 1515 539 L 1541 539  " stroke-width="2" stroke-dasharray="0" stroke="rgba(88, 0, 170, 1)" fill="none" class="stroke" />
  <path d="M 1480.5 476.5  A 3.5 3.5 0 0 0 1477 480 A 3.5 3.5 0 0 0 1480.5 483.5 A 3.5 3.5 0 0 0 1484 480 A 3.5 3.5 0 0 0 1480.5 476.5 Z M 1540 546.6  L 1547 539  L 1540 531.4  L 1540 546.6  Z " fill-rule="nonzero" fill="rgba(88, 0, 170, 1)" stroke="none" class="fill" />
</svg>