<?xml version="1.0" encoding="utf-8"?>
<svg version="1.1" xmlns:xlink="http://www.w3.org/1999/xlink" width="10px" height="101px" preserveAspectRatio="xMidYMin meet" viewBox="1490.2857142857142 314 8 101" xmlns="http://www.w3.org/2000/svg">
  <path d="M 1479 410  L 1489.2857142857142 410  A 5 5 0 0 0 1494.2857142857142 405 L 1494.2857142857142 324  A 5 5 0 0 1 1499.2857142857142 319 L 1552 319  " stroke-width="2" stroke-dasharray="0" stroke="rgba(88, 0, 170, 1)" fill="none" class="stroke" />
  <path d="M 1480.5 406.5  A 3.5 3.5 0 0 0 1477 410 A 3.5 3.5 0 0 0 1480.5 413.5 A 3.5 3.5 0 0 0 1484 410 A 3.5 3.5 0 0 0 1480.5 406.5 Z M 1551 326.6  L 1558 319  L 1551 311.4  L 1551 326.6  Z " fill-rule="nonzero" fill="rgba(88, 0, 170, 1)" stroke="none" class="fill" />
</svg>