<?xml version="1.0" encoding="utf-8"?>
<svg version="1.1" xmlns:xlink="http://www.w3.org/1999/xlink" width="10px" height="80px" preserveAspectRatio="xMidYMin meet" viewBox="641 1902 8 80" xmlns="http://www.w3.org/2000/svg">
  <path d="M 755 1907  L 650 1907  A 5 5 0 0 0 645 1912 L 645 1972  A 5 5 0 0 1 640 1977 L 540 1977  " stroke-width="2" stroke-dasharray="0" stroke="rgba(88, 0, 170, 1)" fill="none" class="stroke" />
  <path d="M 753.5 1903.5  A 3.5 3.5 0 0 0 750 1907 A 3.5 3.5 0 0 0 753.5 1910.5 A 3.5 3.5 0 0 0 757 1907 A 3.5 3.5 0 0 0 753.5 1903.5 Z M 541 1969.4  L 534 1977  L 541 1984.6  L 541 1969.4  Z " fill-rule="nonzero" fill="rgba(88, 0, 170, 1)" stroke="none" class="fill" />
</svg>