<?xml version="1.0" encoding="utf-8"?>
<svg version="1.1" xmlns:xlink="http://www.w3.org/1999/xlink" width="49px" height="10px" preserveAspectRatio="xMinYMid meet" viewBox="669 2029 49 8" xmlns="http://www.w3.org/2000/svg">
  <path d="M 755 1942  L 718 1942  A 5 5 0 0 0 713 1947 L 713 2028  A 5 5 0 0 1 708 2033 L 675 2033  " stroke-width="2" stroke-dasharray="0" stroke="rgba(88, 0, 170, 1)" fill="none" class="stroke" />
  <path d="M 753.5 1938.5  A 3.5 3.5 0 0 0 750 1942 A 3.5 3.5 0 0 0 753.5 1945.5 A 3.5 3.5 0 0 0 757 1942 A 3.5 3.5 0 0 0 753.5 1938.5 Z M 676 2025.4  L 669 2033  L 676 2040.6  L 676 2025.4  Z " fill-rule="nonzero" fill="rgba(88, 0, 170, 1)" stroke="none" class="fill" />
</svg>