<?xml version="1.0" encoding="utf-8"?>
<svg version="1.1" xmlns:xlink="http://www.w3.org/1999/xlink" width="20px" height="20px" preserveAspectRatio="xMinYMid meet" viewBox="1434 1765 20 18" xmlns="http://www.w3.org/2000/svg">
  <path d="M 1130 1907  L 1205 1907  A 5 5 0 0 0 1210 1902 L 1210 1779  A 5 5 0 0 1 1215 1774 L 1443 1774  " stroke-width="2" stroke-dasharray="0" stroke="rgba(88, 0, 170, 1)" fill="none" class="stroke" />
  <path d="M 1131.5 1903.5  A 3.5 3.5 0 0 0 1128 1907 A 3.5 3.5 0 0 0 1131.5 1910.5 A 3.5 3.5 0 0 0 1135 1907 A 3.5 3.5 0 0 0 1131.5 1903.5 Z M 1442 1781.6  L 1449 1774  L 1442 1766.4  L 1442 1781.6  Z " fill-rule="nonzero" fill="rgba(88, 0, 170, 1)" stroke="none" class="fill" />
</svg>