<?xml version="1.0" encoding="utf-8"?>
<svg version="1.1" xmlns:xlink="http://www.w3.org/1999/xlink" width="83px" height="10px" preserveAspectRatio="xMinYMid meet" viewBox="1128 1938 83 8" xmlns="http://www.w3.org/2000/svg">
  <path d="M 1130 1942  L 1201 1942  A 5 5 0 0 1 1206 1947 L 1206 2600  A 5 5 0 0 0 1211 2605 L 1443 2605  " stroke-width="2" stroke-dasharray="0" stroke="rgba(88, 0, 170, 1)" fill="none" class="stroke" />
  <path d="M 1131.5 1938.5  A 3.5 3.5 0 0 0 1128 1942 A 3.5 3.5 0 0 0 1131.5 1945.5 A 3.5 3.5 0 0 0 1135 1942 A 3.5 3.5 0 0 0 1131.5 1938.5 Z M 1442 2612.6  L 1449 2605  L 1442 2597.4  L 1442 2612.6  Z " fill-rule="nonzero" fill="rgba(88, 0, 170, 1)" stroke="none" class="fill" />
</svg>