<?xml version="1.0" encoding="utf-8"?>
<svg version="1.1" xmlns:xlink="http://www.w3.org/1999/xlink" width="10px" height="100px" preserveAspectRatio="xMidYMin meet" viewBox="2448 1004 8 100" xmlns="http://www.w3.org/2000/svg">
  <path d="M 2124 1099  L 2447 1099  A 5 5 0 0 0 2452 1094 L 2452 1014  A 5 5 0 0 1 2457 1009 L 2555 1009  " stroke-width="2" stroke-dasharray="0" stroke="rgba(88, 0, 170, 1)" fill="none" class="stroke" />
  <path d="M 2125.5 1095.5  A 3.5 3.5 0 0 0 2122 1099 A 3.5 3.5 0 0 0 2125.5 1102.5 A 3.5 3.5 0 0 0 2129 1099 A 3.5 3.5 0 0 0 2125.5 1095.5 Z M 2554 1016.6  L 2561 1009  L 2554 1001.4  L 2554 1016.6  Z " fill-rule="nonzero" fill="rgba(88, 0, 170, 1)" stroke="none" class="fill" />
</svg>