<?xml version="1.0" encoding="utf-8"?>
<svg version="1.1" xmlns:xlink="http://www.w3.org/1999/xlink" width="20px" height="21px" preserveAspectRatio="xMidYMin meet" viewBox="1928 1040 18 21" xmlns="http://www.w3.org/2000/svg">
  <path d="M 1937 1049  L 1937 1235  A 5 5 0 0 0 1942 1240 L 2322 1240  A 5 5 0 0 1 2327 1245 L 2327 1427  " stroke-width="2" stroke-dasharray="0" stroke="rgba(88, 0, 170, 1)" fill="none" class="stroke" />
  <path d="M 1937 1047  A 3.5 3.5 0 0 0 1933.5 1050.5 A 3.5 3.5 0 0 0 1937 1054 A 3.5 3.5 0 0 0 1940.5 1050.5 A 3.5 3.5 0 0 0 1937 1047 Z M 2319.4 1426  L 2327 1433  L 2334.6 1426  L 2319.4 1426  Z " fill-rule="nonzero" fill="rgba(88, 0, 170, 1)" stroke="none" class="fill" />
</svg>