<?xml version="1.0" encoding="utf-8"?>
<svg version="1.1" xmlns:xlink="http://www.w3.org/1999/xlink" width="10px" height="117px" preserveAspectRatio="xMidYMin meet" viewBox="879 6283 8 117" xmlns="http://www.w3.org/2000/svg">
  <defs>
    <mask fill="white" id="Clip673">
      <path d="M 867.5 6326  L 898.5 6326  L 898.5 6353  L 867.5 6353  Z M 867.5 6273  L 898.5 6273  L 898.5 6405  L 867.5 6405  Z " fill-rule="evenodd" />
    </mask>
  </defs>
  <path d="M 883 6326  L 883 6285  M 883 6353  L 883 6389  " stroke-width="2" stroke-dasharray="0" stroke="rgba(88, 0, 170, 1)" fill="none" class="stroke" />
  <path d="M 883 6283  A 3.5 3.5 0 0 0 879.5 6286.5 A 3.5 3.5 0 0 0 883 6290 A 3.5 3.5 0 0 0 886.5 6286.5 A 3.5 3.5 0 0 0 883 6283 Z M 875.4 6388  L 883 6395  L 890.6 6388  L 875.4 6388  Z " fill-rule="nonzero" fill="rgba(88, 0, 170, 1)" stroke="none" class="fill" mask="url(#Clip673)" />
</svg>