<?xml version="1.0" encoding="utf-8"?>
<svg version="1.1" xmlns:xlink="http://www.w3.org/1999/xlink" width="10px" height="56px" preserveAspectRatio="xMidYMin meet" viewBox="690 6969 8 56" xmlns="http://www.w3.org/2000/svg">
  <path d="M 817 6974  L 699 6974  A 5 5 0 0 0 694 6979 L 694 7015  A 5 5 0 0 1 689 7020 L 576 7020  " stroke-width="2" stroke-dasharray="0" stroke="rgba(88, 0, 170, 1)" fill="none" class="stroke" />
  <path d="M 815.5 6970.5  A 3.5 3.5 0 0 0 812 6974 A 3.5 3.5 0 0 0 815.5 6977.5 A 3.5 3.5 0 0 0 819 6974 A 3.5 3.5 0 0 0 815.5 6970.5 Z M 577 7012.4  L 570 7020  L 577 7027.6  L 577 7012.4  Z " fill-rule="nonzero" fill="rgba(88, 0, 170, 1)" stroke="none" class="fill" />
</svg>