<?xml version="1.0" encoding="utf-8"?>
<svg version="1.1" xmlns:xlink="http://www.w3.org/1999/xlink" width="113px" height="10px" preserveAspectRatio="xMinYMid meet" viewBox="317 7016 113 8" xmlns="http://www.w3.org/2000/svg">
  <path d="M 428 7020  L 327 7020  A 5 5 0 0 1 322 7015 L 322 6979  A 5 5 0 0 0 317 6974 L 220 6974  " stroke-width="2" stroke-dasharray="0" stroke="rgba(88, 0, 170, 1)" fill="none" class="stroke" />
  <path d="M 426.5 7016.5  A 3.5 3.5 0 0 0 423 7020 A 3.5 3.5 0 0 0 426.5 7023.5 A 3.5 3.5 0 0 0 430 7020 A 3.5 3.5 0 0 0 426.5 7016.5 Z M 221 6966.4  L 214 6974  L 221 6981.6  L 221 6966.4  Z " fill-rule="nonzero" fill="rgba(88, 0, 170, 1)" stroke="none" class="fill" />
</svg>