<?xml version="1.0" encoding="utf-8"?>
<svg version="1.1" xmlns:xlink="http://www.w3.org/1999/xlink" width="10px" height="33px" preserveAspectRatio="xMidYMin meet" viewBox="687 5726 8 33" xmlns="http://www.w3.org/2000/svg">
  <path d="M 572 5754  L 686 5754  A 5 5 0 0 0 691 5749 L 691 5736  A 5 5 0 0 1 696 5731 L 807 5731  " stroke-width="2" stroke-dasharray="0" stroke="rgba(88, 0, 170, 1)" fill="none" class="stroke" />
  <path d="M 573.5 5750.5  A 3.5 3.5 0 0 0 570 5754 A 3.5 3.5 0 0 0 573.5 5757.5 A 3.5 3.5 0 0 0 577 5754 A 3.5 3.5 0 0 0 573.5 5750.5 Z M 806 5738.6  L 813 5731  L 806 5723.4  L 806 5738.6  Z " fill-rule="nonzero" fill="rgba(88, 0, 170, 1)" stroke="none" class="fill" />
</svg>