<?xml version="1.0" encoding="utf-8"?>
<svg version="1.1" xmlns:xlink="http://www.w3.org/1999/xlink" width="136px" height="10px" preserveAspectRatio="xMinYMid meet" viewBox="570 6180 136 8" xmlns="http://www.w3.org/2000/svg">
  <path d="M 572 6184  L 696 6184  A 5 5 0 0 1 701 6189 L 701 6248  A 5 5 0 0 0 706 6253 L 827 6253  " stroke-width="2" stroke-dasharray="0" stroke="rgba(88, 0, 170, 1)" fill="none" class="stroke" />
  <path d="M 573.5 6180.5  A 3.5 3.5 0 0 0 570 6184 A 3.5 3.5 0 0 0 573.5 6187.5 A 3.5 3.5 0 0 0 577 6184 A 3.5 3.5 0 0 0 573.5 6180.5 Z M 826 6260.6  L 833 6253  L 826 6245.4  L 826 6260.6  Z " fill-rule="nonzero" fill="rgba(88, 0, 170, 1)" stroke="none" class="fill" />
</svg>