<?xml version="1.0" encoding="utf-8"?>
<svg version="1.1" xmlns:xlink="http://www.w3.org/1999/xlink" width="136px" height="10px" preserveAspectRatio="xMinYMid meet" viewBox="570 6226 136 8" xmlns="http://www.w3.org/2000/svg">
  <path d="M 572 6230  L 696 6230  A 5 5 0 0 1 701 6235 L 701 6248  A 5 5 0 0 0 706 6253 L 827 6253  " stroke-width="2" stroke-dasharray="0" stroke="rgba(88, 0, 170, 1)" fill="none" class="stroke" />
  <path d="M 573.5 6226.5  A 3.5 3.5 0 0 0 570 6230 A 3.5 3.5 0 0 0 573.5 6233.5 A 3.5 3.5 0 0 0 577 6230 A 3.5 3.5 0 0 0 573.5 6226.5 Z M 826 6260.6  L 833 6253  L 826 6245.4  L 826 6260.6  Z " fill-rule="nonzero" fill="rgba(88, 0, 170, 1)" stroke="none" class="fill" />
</svg>