<?xml version="1.0" encoding="utf-8"?>
<svg version="1.1" xmlns:xlink="http://www.w3.org/1999/xlink" width="20px" height="20px" preserveAspectRatio="xMinYMid meet" viewBox="415 6175 20 18" xmlns="http://www.w3.org/2000/svg">
  <path d="M 216 6253  L 317 6253  A 5 5 0 0 0 322 6248 L 322 6189  A 5 5 0 0 1 327 6184 L 424 6184  " stroke-width="2" stroke-dasharray="0" stroke="rgba(88, 0, 170, 1)" fill="none" class="stroke" />
  <path d="M 217.5 6249.5  A 3.5 3.5 0 0 0 214 6253 A 3.5 3.5 0 0 0 217.5 6256.5 A 3.5 3.5 0 0 0 221 6253 A 3.5 3.5 0 0 0 217.5 6249.5 Z M 423 6191.6  L 430 6184  L 423 6176.4  L 423 6191.6  Z " fill-rule="nonzero" fill="rgba(88, 0, 170, 1)" stroke="none" class="fill" />
</svg>