<?xml version="1.0" encoding="utf-8"?>
<svg version="1.1" xmlns:xlink="http://www.w3.org/1999/xlink" width="127px" height="10px" preserveAspectRatio="xMinYMid meet" viewBox="686 6411 127 8" xmlns="http://www.w3.org/2000/svg">
  <path d="M 811 6415  L 696 6415  A 5 5 0 0 0 691 6420 L 691 6582  A 5 5 0 0 1 686 6587 L 576 6587  " stroke-width="2" stroke-dasharray="0" stroke="rgba(88, 0, 170, 1)" fill="none" class="stroke" />
  <path d="M 809.5 6411.5  A 3.5 3.5 0 0 0 806 6415 A 3.5 3.5 0 0 0 809.5 6418.5 A 3.5 3.5 0 0 0 813 6415 A 3.5 3.5 0 0 0 809.5 6411.5 Z M 577 6579.4  L 570 6587  L 577 6594.6  L 577 6579.4  Z " fill-rule="nonzero" fill="rgba(88, 0, 170, 1)" stroke="none" class="fill" />
</svg>