<?xml version="1.0" encoding="utf-8"?>
<svg version="1.1" xmlns:xlink="http://www.w3.org/1999/xlink" width="20px" height="20px" preserveAspectRatio="xMinYMid meet" viewBox="565 6624 20 18" xmlns="http://www.w3.org/2000/svg">
  <path d="M 811 6415  L 696 6415  A 5 5 0 0 0 691 6420 L 691 6628  A 5 5 0 0 1 686 6633 L 576 6633  " stroke-width="2" stroke-dasharray="0" stroke="rgba(88, 0, 170, 1)" fill="none" class="stroke" />
  <path d="M 809.5 6411.5  A 3.5 3.5 0 0 0 806 6415 A 3.5 3.5 0 0 0 809.5 6418.5 A 3.5 3.5 0 0 0 813 6415 A 3.5 3.5 0 0 0 809.5 6411.5 Z M 577 6625.4  L 570 6633  L 577 6640.6  L 577 6625.4  Z " fill-rule="nonzero" fill="rgba(88, 0, 170, 1)" stroke="none" class="fill" />
</svg>