<?xml version="1.0" encoding="utf-8"?>
<svg version="1.1" xmlns:xlink="http://www.w3.org/1999/xlink" width="10px" height="173px" preserveAspectRatio="xMidYMin meet" viewBox="318 6536 8 173" xmlns="http://www.w3.org/2000/svg">
  <path d="M 428 6541  L 327 6541  A 5 5 0 0 0 322 6546 L 322 6699  A 5 5 0 0 1 317 6704 L 220 6704  " stroke-width="2" stroke-dasharray="0" stroke="rgba(88, 0, 170, 1)" fill="none" class="stroke" />
  <path d="M 426.5 6537.5  A 3.5 3.5 0 0 0 423 6541 A 3.5 3.5 0 0 0 426.5 6544.5 A 3.5 3.5 0 0 0 430 6541 A 3.5 3.5 0 0 0 426.5 6537.5 Z M 221 6696.4  L 214 6704  L 221 6711.6  L 221 6696.4  Z " fill-rule="nonzero" fill="rgba(88, 0, 170, 1)" stroke="none" class="fill" />
</svg>