<?xml version="1.0" encoding="utf-8"?>
<svg version="1.1" xmlns:xlink="http://www.w3.org/1999/xlink" width="10px" height="127px" preserveAspectRatio="xMidYMin meet" viewBox="318 6582 8 127" xmlns="http://www.w3.org/2000/svg">
  <path d="M 428 6587  L 327 6587  A 5 5 0 0 0 322 6592 L 322 6699  A 5 5 0 0 1 317 6704 L 220 6704  " stroke-width="2" stroke-dasharray="0" stroke="rgba(88, 0, 170, 1)" fill="none" class="stroke" />
  <path d="M 426.5 6583.5  A 3.5 3.5 0 0 0 423 6587 A 3.5 3.5 0 0 0 426.5 6590.5 A 3.5 3.5 0 0 0 430 6587 A 3.5 3.5 0 0 0 426.5 6583.5 Z M 221 6696.4  L 214 6704  L 221 6711.6  L 221 6696.4  Z " fill-rule="nonzero" fill="rgba(88, 0, 170, 1)" stroke="none" class="fill" />
</svg>