<?xml version="1.0" encoding="utf-8"?>
<svg version="1.1" xmlns:xlink="http://www.w3.org/1999/xlink" width="21px" height="20px" preserveAspectRatio="xMinYMid meet" viewBox="416 6429 21 18" xmlns="http://www.w3.org/2000/svg">
  <path d="M 428 6438  L 327 6438  A 5 5 0 0 1 322 6433 L 322 6420  A 5 5 0 0 0 317 6415 L 220 6415  " stroke-width="2" stroke-dasharray="0" stroke="rgba(245, 154, 35, 1)" fill="none" class="stroke" />
  <path d="M 426.5 6434.5  A 3.5 3.5 0 0 0 423 6438 A 3.5 3.5 0 0 0 426.5 6441.5 A 3.5 3.5 0 0 0 430 6438 A 3.5 3.5 0 0 0 426.5 6434.5 Z M 221 6407.4  L 214 6415  L 221 6422.6  L 221 6407.4  Z " fill-rule="nonzero" fill="rgba(245, 154, 35, 1)" stroke="none" class="fill" />
</svg>