<?xml version="1.0" encoding="utf-8"?>
<svg version="1.1" xmlns:xlink="http://www.w3.org/1999/xlink" width="15px" height="15px" xmlns="http://www.w3.org/2000/svg">
  <defs>
    <pattern id="BGPattern" patternUnits="userSpaceOnUse" alignment="0 0" imageRepeat="None" />
    <mask fill="white" id="Clip240">
      <path d="M 9.375 9.687499999999998  C 9.544270833333334 9.687499999999998  9.690755208333334 9.625651041666666  9.814453125 9.501953125000002  L 13.251953125 6.064453125  C 13.375651041666668 5.940755208333333  13.4375 5.794270833333333  13.4375 5.625  C 13.4375 5.455729166666665  13.375651041666668 5.309244791666665  13.251953125 5.185546875  L 9.814453125 1.7480468750000004  C 9.619140625000002 1.546223958333333  9.39453125 1.5006510416666652  9.140625 1.611328125  C 8.880208333333334 1.722005208333333  8.75 1.9140624999999996  8.75 2.1875000000000004  L 8.75 3.75  C 7.975260416666667 3.75  7.272135416666668 3.8134765625000004  6.640625 3.9404296875  C 6.009114583333333 4.067382812499999  5.480143229166667 4.2333984375  5.0537109375 4.4384765625  C 4.627278645833334 4.6435546875  4.256184895833334 4.900716145833333  3.9404296875 5.209960937499999  C 3.624674479166667 5.519205729166666  3.375651041666667 5.830078125  3.193359375 6.142578125000001  C 3.0110677083333335 6.455078124999999  2.8662109375 6.809895833333332  2.7587890625 7.20703125  C 2.6513671875 7.604166666666666  2.581380208333334 7.967122395833334  2.548828125 8.295898437499998  C 2.516276041666667 8.624674479166668  2.5 8.984374999999998  2.5 9.375  C 2.5 10.553385416666664  3.043619791666667 11.868489583333332  4.130859375 13.3203125  C 4.202473958333334 13.3984375  4.283854166666667 13.4375  4.375 13.4375  C 4.420572916666667 13.4375  4.462890625 13.427734375  4.501953125 13.408203125  C 4.645182291666667 13.349609375  4.707031250000001 13.2421875  4.6875 13.0859375  C 4.401041666666667 10.78125  4.602864583333333 9.241536458333334  5.29296875 8.466796875  C 5.592447916666668 8.128255208333334  6.015625 7.882486979166666  6.5625 7.729492187500001  C 7.109375 7.576497395833332  7.838541666666668 7.5  8.75 7.5  L 8.75 9.062500000000002  C 8.75 9.335937499999998  8.880208333333334 9.527994791666664  9.140625 9.638671875  C 9.21875 9.671223958333332  9.296875000000002 9.687499999999998  9.375 9.687499999999998  Z M 14.1748046875 0.8251953125000006  C 14.724934895833332 1.3753255208333321  15 2.0377604166666647  15 2.8125  L 15 12.1875  C 15 12.962239583333332  14.724934895833332 13.624674479166668  14.1748046875 14.1748046875  C 13.624674479166668 14.724934895833332  12.962239583333336 15  12.1875 15  L 2.8125 15  C 2.0377604166666665 15  1.3753255208333335 14.724934895833332  0.8251953125 14.1748046875  C 0.27506510416666663 13.624674479166668  0 12.962239583333332  0 12.1875  L 0 2.8125  C 0 2.0377604166666647  0.27506510416666663 1.3753255208333321  0.8251953125 0.8251953125000006  C 1.3753255208333335 0.27506510416666574  2.0377604166666665 0  2.8125 0  L 12.1875 0  C 12.962239583333336 0  13.624674479166668 0.27506510416666574  14.1748046875 0.8251953125000006  Z " fill-rule="evenodd" />
    </mask>
  </defs>
  <g transform="matrix(1 0 0 1 -719 -1124 )">
    <path d="M 9.375 9.687499999999998  C 9.544270833333334 9.687499999999998  9.690755208333334 9.625651041666666  9.814453125 9.501953125000002  L 13.251953125 6.064453125  C 13.375651041666668 5.940755208333333  13.4375 5.794270833333333  13.4375 5.625  C 13.4375 5.455729166666665  13.375651041666668 5.309244791666665  13.251953125 5.185546875  L 9.814453125 1.7480468750000004  C 9.619140625000002 1.546223958333333  9.39453125 1.5006510416666652  9.140625 1.611328125  C 8.880208333333334 1.722005208333333  8.75 1.9140624999999996  8.75 2.1875000000000004  L 8.75 3.75  C 7.975260416666667 3.75  7.272135416666668 3.8134765625000004  6.640625 3.9404296875  C 6.009114583333333 4.067382812499999  5.480143229166667 4.2333984375  5.0537109375 4.4384765625  C 4.627278645833334 4.6435546875  4.256184895833334 4.900716145833333  3.9404296875 5.209960937499999  C 3.624674479166667 5.519205729166666  3.375651041666667 5.830078125  3.193359375 6.142578125000001  C 3.0110677083333335 6.455078124999999  2.8662109375 6.809895833333332  2.7587890625 7.20703125  C 2.6513671875 7.604166666666666  2.581380208333334 7.967122395833334  2.548828125 8.295898437499998  C 2.516276041666667 8.624674479166668  2.5 8.984374999999998  2.5 9.375  C 2.5 10.553385416666664  3.043619791666667 11.868489583333332  4.130859375 13.3203125  C 4.202473958333334 13.3984375  4.283854166666667 13.4375  4.375 13.4375  C 4.420572916666667 13.4375  4.462890625 13.427734375  4.501953125 13.408203125  C 4.645182291666667 13.349609375  4.707031250000001 13.2421875  4.6875 13.0859375  C 4.401041666666667 10.78125  4.602864583333333 9.241536458333334  5.29296875 8.466796875  C 5.592447916666668 8.128255208333334  6.015625 7.882486979166666  6.5625 7.729492187500001  C 7.109375 7.576497395833332  7.838541666666668 7.5  8.75 7.5  L 8.75 9.062500000000002  C 8.75 9.335937499999998  8.880208333333334 9.527994791666664  9.140625 9.638671875  C 9.21875 9.671223958333332  9.296875000000002 9.687499999999998  9.375 9.687499999999998  Z M 14.1748046875 0.8251953125000006  C 14.724934895833332 1.3753255208333321  15 2.0377604166666647  15 2.8125  L 15 12.1875  C 15 12.962239583333332  14.724934895833332 13.624674479166668  14.1748046875 14.1748046875  C 13.624674479166668 14.724934895833332  12.962239583333336 15  12.1875 15  L 2.8125 15  C 2.0377604166666665 15  1.3753255208333335 14.724934895833332  0.8251953125 14.1748046875  C 0.27506510416666663 13.624674479166668  0 12.962239583333332  0 12.1875  L 0 2.8125  C 0 2.0377604166666647  0.27506510416666663 1.3753255208333321  0.8251953125 0.8251953125000006  C 1.3753255208333335 0.27506510416666574  2.0377604166666665 0  2.8125 0  L 12.1875 0  C 12.962239583333336 0  13.624674479166668 0.27506510416666574  14.1748046875 0.8251953125000006  Z " fill-rule="nonzero" fill="rgba(242, 242, 242, 1)" stroke="none" transform="matrix(1 0 0 1 719 1124 )" class="fill" />
    <path d="M 9.375 9.687499999999998  C 9.544270833333334 9.687499999999998  9.690755208333334 9.625651041666666  9.814453125 9.501953125000002  L 13.251953125 6.064453125  C 13.375651041666668 5.940755208333333  13.4375 5.794270833333333  13.4375 5.625  C 13.4375 5.455729166666665  13.375651041666668 5.309244791666665  13.251953125 5.185546875  L 9.814453125 1.7480468750000004  C 9.619140625000002 1.546223958333333  9.39453125 1.5006510416666652  9.140625 1.611328125  C 8.880208333333334 1.722005208333333  8.75 1.9140624999999996  8.75 2.1875000000000004  L 8.75 3.75  C 7.975260416666667 3.75  7.272135416666668 3.8134765625000004  6.640625 3.9404296875  C 6.009114583333333 4.067382812499999  5.480143229166667 4.2333984375  5.0537109375 4.4384765625  C 4.627278645833334 4.6435546875  4.256184895833334 4.900716145833333  3.9404296875 5.209960937499999  C 3.624674479166667 5.519205729166666  3.375651041666667 5.830078125  3.193359375 6.142578125000001  C 3.0110677083333335 6.455078124999999  2.8662109375 6.809895833333332  2.7587890625 7.20703125  C 2.6513671875 7.604166666666666  2.581380208333334 7.967122395833334  2.548828125 8.295898437499998  C 2.516276041666667 8.624674479166668  2.5 8.984374999999998  2.5 9.375  C 2.5 10.553385416666664  3.043619791666667 11.868489583333332  4.130859375 13.3203125  C 4.202473958333334 13.3984375  4.283854166666667 13.4375  4.375 13.4375  C 4.420572916666667 13.4375  4.462890625 13.427734375  4.501953125 13.408203125  C 4.645182291666667 13.349609375  4.707031250000001 13.2421875  4.6875 13.0859375  C 4.401041666666667 10.78125  4.602864583333333 9.241536458333334  5.29296875 8.466796875  C 5.592447916666668 8.128255208333334  6.015625 7.882486979166666  6.5625 7.729492187500001  C 7.109375 7.576497395833332  7.838541666666668 7.5  8.75 7.5  L 8.75 9.062500000000002  C 8.75 9.335937499999998  8.880208333333334 9.527994791666664  9.140625 9.638671875  C 9.21875 9.671223958333332  9.296875000000002 9.687499999999998  9.375 9.687499999999998  Z " stroke-width="0" stroke-dasharray="0" stroke="rgba(255, 255, 255, 0)" fill="none" transform="matrix(1 0 0 1 719 1124 )" class="stroke" mask="url(#Clip240)" />
    <path d="M 14.1748046875 0.8251953125000006  C 14.724934895833332 1.3753255208333321  15 2.0377604166666647  15 2.8125  L 15 12.1875  C 15 12.962239583333332  14.724934895833332 13.624674479166668  14.1748046875 14.1748046875  C 13.624674479166668 14.724934895833332  12.962239583333336 15  12.1875 15  L 2.8125 15  C 2.0377604166666665 15  1.3753255208333335 14.724934895833332  0.8251953125 14.1748046875  C 0.27506510416666663 13.624674479166668  0 12.962239583333332  0 12.1875  L 0 2.8125  C 0 2.0377604166666647  0.27506510416666663 1.3753255208333321  0.8251953125 0.8251953125000006  C 1.3753255208333335 0.27506510416666574  2.0377604166666665 0  2.8125 0  L 12.1875 0  C 12.962239583333336 0  13.624674479166668 0.27506510416666574  14.1748046875 0.8251953125000006  Z " stroke-width="0" stroke-dasharray="0" stroke="rgba(255, 255, 255, 0)" fill="none" transform="matrix(1 0 0 1 719 1124 )" class="stroke" mask="url(#Clip240)" />
  </g>
</svg>