<?xml version="1.0" encoding="utf-8"?>
<svg version="1.1" xmlns:xlink="http://www.w3.org/1999/xlink" width="21px" height="21px" xmlns="http://www.w3.org/2000/svg">
  <defs>
    <pattern id="BGPattern" patternUnits="userSpaceOnUse" alignment="0 0" imageRepeat="None" />
    <mask fill="white" id="Clip271">
      <path d="M 20.25041829336308 0  C 20.40658114891244 0  20.54712771890686 0.04296875000000189  20.672058003346347 0.128906250000001  C 20.92972671500279 0.31640625000000033  21.03513664249861 0.5664062499999994  20.988287785833798 0.8789062500000007  L 17.989960959286115 18.87890625  C 17.950920245398773 19.10546875  17.825989960959287 19.28125  17.615170105967653 19.40625  C 17.5058561070831 19.46875  17.38482989403235 19.5  17.252091466815394 19.5  C 17.166201896263246 19.5  17.07250418293363 19.480468749999996  16.970998326826546 19.44140625  L 11.665365309537089 17.2734375  L 8.83100948131623 20.73046875  C 8.690462911321807 20.91015625  8.499163413273845 21  8.257110987172338 21  C 8.155605131065254 21  8.069715560513107 20.984375  7.999442275515896 20.953125  C 7.851087562744006 20.8984375  7.73201338538762 20.806640625  7.642219743446738 20.677734375  C 7.552426101505857 20.548828125  7.507529280535415 20.40625  7.507529280535415 20.25  L 7.507529280535415 16.16015625  L 17.626882320133856 3.750000000000001  L 5.106525376464027 14.58984375  L 0.48020078081427775 12.69140625  C 0.1912994980479643 12.582031249999998  0.035136642498605694 12.3671875  0.011712214166201896 12.046875  C -0.003904071388733967 11.734375  0.12102621305075291 11.50390625  0.3865030674846626 11.355468750000002  L 19.875627440044617 0.10546874999999933  C 19.992749581706637 0.035156249999999  20.117679866146126 0  20.25041829336308 0  Z " fill-rule="evenodd" />
    </mask>
  </defs>
  <g transform="matrix(1 0 0 1 0 -5 )">
    <path d="M 20.25041829336308 0  C 20.40658114891244 0  20.54712771890686 0.04296875000000189  20.672058003346347 0.128906250000001  C 20.92972671500279 0.31640625000000033  21.03513664249861 0.5664062499999994  20.988287785833798 0.8789062500000007  L 17.989960959286115 18.87890625  C 17.950920245398773 19.10546875  17.825989960959287 19.28125  17.615170105967653 19.40625  C 17.5058561070831 19.46875  17.38482989403235 19.5  17.252091466815394 19.5  C 17.166201896263246 19.5  17.07250418293363 19.480468749999996  16.970998326826546 19.44140625  L 11.665365309537089 17.2734375  L 8.83100948131623 20.73046875  C 8.690462911321807 20.91015625  8.499163413273845 21  8.257110987172338 21  C 8.155605131065254 21  8.069715560513107 20.984375  7.999442275515896 20.953125  C 7.851087562744006 20.8984375  7.73201338538762 20.806640625  7.642219743446738 20.677734375  C 7.552426101505857 20.548828125  7.507529280535415 20.40625  7.507529280535415 20.25  L 7.507529280535415 16.16015625  L 17.626882320133856 3.750000000000001  L 5.106525376464027 14.58984375  L 0.48020078081427775 12.69140625  C 0.1912994980479643 12.582031249999998  0.035136642498605694 12.3671875  0.011712214166201896 12.046875  C -0.003904071388733967 11.734375  0.12102621305075291 11.50390625  0.3865030674846626 11.355468750000002  L 19.875627440044617 0.10546874999999933  C 19.992749581706637 0.035156249999999  20.117679866146126 0  20.25041829336308 0  Z " fill-rule="nonzero" fill="rgba(2, 167, 240, 1)" stroke="none" transform="matrix(1 0 0 1 0 5 )" class="fill" />
    <path d="M 20.25041829336308 0  C 20.40658114891244 0  20.54712771890686 0.04296875000000189  20.672058003346347 0.128906250000001  C 20.92972671500279 0.31640625000000033  21.03513664249861 0.5664062499999994  20.988287785833798 0.8789062500000007  L 17.989960959286115 18.87890625  C 17.950920245398773 19.10546875  17.825989960959287 19.28125  17.615170105967653 19.40625  C 17.5058561070831 19.46875  17.38482989403235 19.5  17.252091466815394 19.5  C 17.166201896263246 19.5  17.07250418293363 19.480468749999996  16.970998326826546 19.44140625  L 11.665365309537089 17.2734375  L 8.83100948131623 20.73046875  C 8.690462911321807 20.91015625  8.499163413273845 21  8.257110987172338 21  C 8.155605131065254 21  8.069715560513107 20.984375  7.999442275515896 20.953125  C 7.851087562744006 20.8984375  7.73201338538762 20.806640625  7.642219743446738 20.677734375  C 7.552426101505857 20.548828125  7.507529280535415 20.40625  7.507529280535415 20.25  L 7.507529280535415 16.16015625  L 17.626882320133856 3.750000000000001  L 5.106525376464027 14.58984375  L 0.48020078081427775 12.69140625  C 0.1912994980479643 12.582031249999998  0.035136642498605694 12.3671875  0.011712214166201896 12.046875  C -0.003904071388733967 11.734375  0.12102621305075291 11.50390625  0.3865030674846626 11.355468750000002  L 19.875627440044617 0.10546874999999933  C 19.992749581706637 0.035156249999999  20.117679866146126 0  20.25041829336308 0  Z " stroke-width="0" stroke-dasharray="0" stroke="rgba(255, 255, 255, 0)" fill="none" transform="matrix(1 0 0 1 0 5 )" class="stroke" mask="url(#Clip271)" />
  </g>
</svg>