<?xml version="1.0" encoding="utf-8"?>
<svg version="1.1" xmlns:xlink="http://www.w3.org/1999/xlink" width="18px" height="15px" xmlns="http://www.w3.org/2000/svg">
  <defs>
    <pattern id="BGPattern" patternUnits="userSpaceOnUse" alignment="0 0" imageRepeat="None" />
    <mask fill="white" id="Clip241">
      <path d="M 17.275240384615383 4.975142045454545  C 17.758413461538463 5.969460227272727  18 7.002840909090908  18 8.07528409090909  C 18 9.254261363636363  17.783653846153847 10.36931818181818  17.35096153846154 11.420454545454545  L 17.134615384615383 11.94247159090909  L 15.133413461538462 12.29403409090909  C 14.974759615384617 12.883522727272727  14.6484375 13.36825284090909  14.154447115384617 13.748224431818182  C 13.660456730769232 14.128196022727273  13.096153846153847 14.318181818181818  12.461538461538462 14.318181818181818  L 12.461538461538462 14.65909090909091  C 12.461538461538462 14.758522727272727  12.429086538461538 14.840198863636363  12.364182692307692 14.904119318181818  C 12.299278846153847 14.968039772727273  12.216346153846157 15  12.115384615384617 15  L 11.423076923076923 15  C 11.322115384615387 15  11.239182692307692 14.968039772727273  11.174278846153847 14.904119318181818  C 11.109375 14.840198863636363  11.076923076923077 14.758522727272727  11.076923076923077 14.65909090909091  L 11.076923076923077 8.522727272727272  C 11.076923076923077 8.423295454545453  11.109375 8.341619318181818  11.174278846153847 8.277698863636363  C 11.239182692307692 8.21377840909091  11.322115384615387 8.181818181818182  11.423076923076923 8.181818181818182  L 12.115384615384617 8.181818181818182  C 12.216346153846157 8.181818181818182  12.299278846153847 8.21377840909091  12.364182692307692 8.277698863636363  C 12.429086538461538 8.341619318181818  12.461538461538462 8.423295454545453  12.461538461538462 8.522727272727272  L 12.461538461538462 8.863636363636363  C 12.973557692307693 8.863636363636363  13.442307692307693 8.989701704545453  13.867788461538462 9.241832386363637  C 14.293269230769232 9.493963068181817  14.62860576923077 9.83309659090909  14.873798076923077 10.259232954545455  L 15.609375 10.131392045454545  C 15.818509615384617 9.456676136363635  15.923076923076923 8.771306818181818  15.923076923076923 8.07528409090909  C 15.923076923076923 7.024147727272727  15.605769230769232 6.033380681818182  14.971153846153847 5.102982954545455  C 14.336538461538463 4.1725852272727275  13.483774038461538 3.4303977272727266  12.412860576923077 2.8764204545454546  C 11.341947115384617 2.322443181818181  10.204326923076923 2.0454545454545454  9 2.0454545454545454  C 7.795673076923078 2.0454545454545454  6.658052884615385 2.322443181818181  5.587139423076923 2.8764204545454546  C 4.516225961538462 3.4303977272727266  3.6634615384615383 4.1725852272727275  3.028846153846154 5.102982954545455  C 2.394230769230769 6.033380681818182  2.076923076923077 7.024147727272727  2.076923076923077 8.07528409090909  C 2.076923076923077 8.771306818181818  2.1814903846153846 9.456676136363635  2.390625 10.131392045454545  L 3.126201923076923 10.259232954545455  C 3.371394230769231 9.83309659090909  3.7067307692307696 9.493963068181817  4.132211538461538 9.241832386363637  C 4.557692307692308 8.989701704545453  5.026442307692308 8.863636363636363  5.538461538461538 8.863636363636363  L 5.538461538461538 8.522727272727272  C 5.538461538461538 8.423295454545453  5.570913461538462 8.341619318181818  5.635817307692308 8.277698863636363  C 5.700721153846154 8.21377840909091  5.783653846153847 8.181818181818182  5.884615384615385 8.181818181818182  L 6.576923076923077 8.181818181818182  C 6.677884615384616 8.181818181818182  6.760817307692308 8.21377840909091  6.825721153846154 8.277698863636363  C 6.890625 8.341619318181818  6.923076923076923 8.423295454545453  6.923076923076923 8.522727272727272  L 6.923076923076923 14.65909090909091  C 6.923076923076923 14.758522727272727  6.890625 14.840198863636363  6.825721153846154 14.904119318181818  C 6.760817307692308 14.968039772727273  6.677884615384616 15  6.576923076923077 15  L 5.884615384615385 15  C 5.783653846153847 15  5.700721153846154 14.968039772727273  5.635817307692308 14.904119318181818  C 5.570913461538462 14.840198863636363  5.538461538461538 14.758522727272727  5.538461538461538 14.65909090909091  L 5.538461538461538 14.318181818181818  C 4.903846153846154 14.318181818181818  4.339543269230769 14.128196022727273  3.8455528846153846 13.748224431818182  C 3.3515625000000004 13.36825284090909  3.025240384615385 12.883522727272727  2.8665865384615383 12.29403409090909  L 0.8653846153846154 11.94247159090909  L 0.6490384615384615 11.420454545454545  C 0.21634615384615385 10.36931818181818  0 9.254261363636363  0 8.07528409090909  C 0 7.002840909090908  0.24158653846153844 5.969460227272727  0.7247596153846154 4.975142045454545  C 1.2079326923076923 3.980823863636362  1.8533653846153848 3.119673295454544  2.6610576923076925 2.391690340909091  C 3.46875 1.6637073863636354  4.427884615384616 1.08309659090909  5.538461538461538 0.6498579545454547  C 6.649038461538462 0.21661931818181768  7.802884615384616 0  9 0  C 10.197115384615387 0  11.35096153846154 0.21661931818181768  12.461538461538462 0.6498579545454547  C 13.572115384615387 1.08309659090909  14.531250000000002 1.6637073863636354  15.338942307692308 2.391690340909091  C 16.146634615384617 3.119673295454544  16.79206730769231 3.980823863636362  17.275240384615383 4.975142045454545  Z " fill-rule="evenodd" />
    </mask>
  </defs>
  <g transform="matrix(1 0 0 1 -45 -62 )">
    <path d="M 17.275240384615383 4.975142045454545  C 17.758413461538463 5.969460227272727  18 7.002840909090908  18 8.07528409090909  C 18 9.254261363636363  17.783653846153847 10.36931818181818  17.35096153846154 11.420454545454545  L 17.134615384615383 11.94247159090909  L 15.133413461538462 12.29403409090909  C 14.974759615384617 12.883522727272727  14.6484375 13.36825284090909  14.154447115384617 13.748224431818182  C 13.660456730769232 14.128196022727273  13.096153846153847 14.318181818181818  12.461538461538462 14.318181818181818  L 12.461538461538462 14.65909090909091  C 12.461538461538462 14.758522727272727  12.429086538461538 14.840198863636363  12.364182692307692 14.904119318181818  C 12.299278846153847 14.968039772727273  12.216346153846157 15  12.115384615384617 15  L 11.423076923076923 15  C 11.322115384615387 15  11.239182692307692 14.968039772727273  11.174278846153847 14.904119318181818  C 11.109375 14.840198863636363  11.076923076923077 14.758522727272727  11.076923076923077 14.65909090909091  L 11.076923076923077 8.522727272727272  C 11.076923076923077 8.423295454545453  11.109375 8.341619318181818  11.174278846153847 8.277698863636363  C 11.239182692307692 8.21377840909091  11.322115384615387 8.181818181818182  11.423076923076923 8.181818181818182  L 12.115384615384617 8.181818181818182  C 12.216346153846157 8.181818181818182  12.299278846153847 8.21377840909091  12.364182692307692 8.277698863636363  C 12.429086538461538 8.341619318181818  12.461538461538462 8.423295454545453  12.461538461538462 8.522727272727272  L 12.461538461538462 8.863636363636363  C 12.973557692307693 8.863636363636363  13.442307692307693 8.989701704545453  13.867788461538462 9.241832386363637  C 14.293269230769232 9.493963068181817  14.62860576923077 9.83309659090909  14.873798076923077 10.259232954545455  L 15.609375 10.131392045454545  C 15.818509615384617 9.456676136363635  15.923076923076923 8.771306818181818  15.923076923076923 8.07528409090909  C 15.923076923076923 7.024147727272727  15.605769230769232 6.033380681818182  14.971153846153847 5.102982954545455  C 14.336538461538463 4.1725852272727275  13.483774038461538 3.4303977272727266  12.412860576923077 2.8764204545454546  C 11.341947115384617 2.322443181818181  10.204326923076923 2.0454545454545454  9 2.0454545454545454  C 7.795673076923078 2.0454545454545454  6.658052884615385 2.322443181818181  5.587139423076923 2.8764204545454546  C 4.516225961538462 3.4303977272727266  3.6634615384615383 4.1725852272727275  3.028846153846154 5.102982954545455  C 2.394230769230769 6.033380681818182  2.076923076923077 7.024147727272727  2.076923076923077 8.07528409090909  C 2.076923076923077 8.771306818181818  2.1814903846153846 9.456676136363635  2.390625 10.131392045454545  L 3.126201923076923 10.259232954545455  C 3.371394230769231 9.83309659090909  3.7067307692307696 9.493963068181817  4.132211538461538 9.241832386363637  C 4.557692307692308 8.989701704545453  5.026442307692308 8.863636363636363  5.538461538461538 8.863636363636363  L 5.538461538461538 8.522727272727272  C 5.538461538461538 8.423295454545453  5.570913461538462 8.341619318181818  5.635817307692308 8.277698863636363  C 5.700721153846154 8.21377840909091  5.783653846153847 8.181818181818182  5.884615384615385 8.181818181818182  L 6.576923076923077 8.181818181818182  C 6.677884615384616 8.181818181818182  6.760817307692308 8.21377840909091  6.825721153846154 8.277698863636363  C 6.890625 8.341619318181818  6.923076923076923 8.423295454545453  6.923076923076923 8.522727272727272  L 6.923076923076923 14.65909090909091  C 6.923076923076923 14.758522727272727  6.890625 14.840198863636363  6.825721153846154 14.904119318181818  C 6.760817307692308 14.968039772727273  6.677884615384616 15  6.576923076923077 15  L 5.884615384615385 15  C 5.783653846153847 15  5.700721153846154 14.968039772727273  5.635817307692308 14.904119318181818  C 5.570913461538462 14.840198863636363  5.538461538461538 14.758522727272727  5.538461538461538 14.65909090909091  L 5.538461538461538 14.318181818181818  C 4.903846153846154 14.318181818181818  4.339543269230769 14.128196022727273  3.8455528846153846 13.748224431818182  C 3.3515625000000004 13.36825284090909  3.025240384615385 12.883522727272727  2.8665865384615383 12.29403409090909  L 0.8653846153846154 11.94247159090909  L 0.6490384615384615 11.420454545454545  C 0.21634615384615385 10.36931818181818  0 9.254261363636363  0 8.07528409090909  C 0 7.002840909090908  0.24158653846153844 5.969460227272727  0.7247596153846154 4.975142045454545  C 1.2079326923076923 3.980823863636362  1.8533653846153848 3.119673295454544  2.6610576923076925 2.391690340909091  C 3.46875 1.6637073863636354  4.427884615384616 1.08309659090909  5.538461538461538 0.6498579545454547  C 6.649038461538462 0.21661931818181768  7.802884615384616 0  9 0  C 10.197115384615387 0  11.35096153846154 0.21661931818181768  12.461538461538462 0.6498579545454547  C 13.572115384615387 1.08309659090909  14.531250000000002 1.6637073863636354  15.338942307692308 2.391690340909091  C 16.146634615384617 3.119673295454544  16.79206730769231 3.980823863636362  17.275240384615383 4.975142045454545  Z " fill-rule="nonzero" fill="rgba(242, 242, 242, 1)" stroke="none" transform="matrix(1 0 0 1 45 62 )" class="fill" />
    <path d="M 17.275240384615383 4.975142045454545  C 17.758413461538463 5.969460227272727  18 7.002840909090908  18 8.07528409090909  C 18 9.254261363636363  17.783653846153847 10.36931818181818  17.35096153846154 11.420454545454545  L 17.134615384615383 11.94247159090909  L 15.133413461538462 12.29403409090909  C 14.974759615384617 12.883522727272727  14.6484375 13.36825284090909  14.154447115384617 13.748224431818182  C 13.660456730769232 14.128196022727273  13.096153846153847 14.318181818181818  12.461538461538462 14.318181818181818  L 12.461538461538462 14.65909090909091  C 12.461538461538462 14.758522727272727  12.429086538461538 14.840198863636363  12.364182692307692 14.904119318181818  C 12.299278846153847 14.968039772727273  12.216346153846157 15  12.115384615384617 15  L 11.423076923076923 15  C 11.322115384615387 15  11.239182692307692 14.968039772727273  11.174278846153847 14.904119318181818  C 11.109375 14.840198863636363  11.076923076923077 14.758522727272727  11.076923076923077 14.65909090909091  L 11.076923076923077 8.522727272727272  C 11.076923076923077 8.423295454545453  11.109375 8.341619318181818  11.174278846153847 8.277698863636363  C 11.239182692307692 8.21377840909091  11.322115384615387 8.181818181818182  11.423076923076923 8.181818181818182  L 12.115384615384617 8.181818181818182  C 12.216346153846157 8.181818181818182  12.299278846153847 8.21377840909091  12.364182692307692 8.277698863636363  C 12.429086538461538 8.341619318181818  12.461538461538462 8.423295454545453  12.461538461538462 8.522727272727272  L 12.461538461538462 8.863636363636363  C 12.973557692307693 8.863636363636363  13.442307692307693 8.989701704545453  13.867788461538462 9.241832386363637  C 14.293269230769232 9.493963068181817  14.62860576923077 9.83309659090909  14.873798076923077 10.259232954545455  L 15.609375 10.131392045454545  C 15.818509615384617 9.456676136363635  15.923076923076923 8.771306818181818  15.923076923076923 8.07528409090909  C 15.923076923076923 7.024147727272727  15.605769230769232 6.033380681818182  14.971153846153847 5.102982954545455  C 14.336538461538463 4.1725852272727275  13.483774038461538 3.4303977272727266  12.412860576923077 2.8764204545454546  C 11.341947115384617 2.322443181818181  10.204326923076923 2.0454545454545454  9 2.0454545454545454  C 7.795673076923078 2.0454545454545454  6.658052884615385 2.322443181818181  5.587139423076923 2.8764204545454546  C 4.516225961538462 3.4303977272727266  3.6634615384615383 4.1725852272727275  3.028846153846154 5.102982954545455  C 2.394230769230769 6.033380681818182  2.076923076923077 7.024147727272727  2.076923076923077 8.07528409090909  C 2.076923076923077 8.771306818181818  2.1814903846153846 9.456676136363635  2.390625 10.131392045454545  L 3.126201923076923 10.259232954545455  C 3.371394230769231 9.83309659090909  3.7067307692307696 9.493963068181817  4.132211538461538 9.241832386363637  C 4.557692307692308 8.989701704545453  5.026442307692308 8.863636363636363  5.538461538461538 8.863636363636363  L 5.538461538461538 8.522727272727272  C 5.538461538461538 8.423295454545453  5.570913461538462 8.341619318181818  5.635817307692308 8.277698863636363  C 5.700721153846154 8.21377840909091  5.783653846153847 8.181818181818182  5.884615384615385 8.181818181818182  L 6.576923076923077 8.181818181818182  C 6.677884615384616 8.181818181818182  6.760817307692308 8.21377840909091  6.825721153846154 8.277698863636363  C 6.890625 8.341619318181818  6.923076923076923 8.423295454545453  6.923076923076923 8.522727272727272  L 6.923076923076923 14.65909090909091  C 6.923076923076923 14.758522727272727  6.890625 14.840198863636363  6.825721153846154 14.904119318181818  C 6.760817307692308 14.968039772727273  6.677884615384616 15  6.576923076923077 15  L 5.884615384615385 15  C 5.783653846153847 15  5.700721153846154 14.968039772727273  5.635817307692308 14.904119318181818  C 5.570913461538462 14.840198863636363  5.538461538461538 14.758522727272727  5.538461538461538 14.65909090909091  L 5.538461538461538 14.318181818181818  C 4.903846153846154 14.318181818181818  4.339543269230769 14.128196022727273  3.8455528846153846 13.748224431818182  C 3.3515625000000004 13.36825284090909  3.025240384615385 12.883522727272727  2.8665865384615383 12.29403409090909  L 0.8653846153846154 11.94247159090909  L 0.6490384615384615 11.420454545454545  C 0.21634615384615385 10.36931818181818  0 9.254261363636363  0 8.07528409090909  C 0 7.002840909090908  0.24158653846153844 5.969460227272727  0.7247596153846154 4.975142045454545  C 1.2079326923076923 3.980823863636362  1.8533653846153848 3.119673295454544  2.6610576923076925 2.391690340909091  C 3.46875 1.6637073863636354  4.427884615384616 1.08309659090909  5.538461538461538 0.6498579545454547  C 6.649038461538462 0.21661931818181768  7.802884615384616 0  9 0  C 10.197115384615387 0  11.35096153846154 0.21661931818181768  12.461538461538462 0.6498579545454547  C 13.572115384615387 1.08309659090909  14.531250000000002 1.6637073863636354  15.338942307692308 2.391690340909091  C 16.146634615384617 3.119673295454544  16.79206730769231 3.980823863636362  17.275240384615383 4.975142045454545  Z " stroke-width="0" stroke-dasharray="0" stroke="rgba(255, 255, 255, 0)" fill="none" transform="matrix(1 0 0 1 45 62 )" class="stroke" mask="url(#Clip241)" />
  </g>
</svg>