<?xml version="1.0" encoding="utf-8"?>
<svg version="1.1" xmlns:xlink="http://www.w3.org/1999/xlink" width="20px" height="21px" preserveAspectRatio="xMidYMin meet" viewBox="1057 1711 18 21" xmlns="http://www.w3.org/2000/svg">
  <defs>
    <mask fill="white" id="Clip279">
      <path d="M 1043 1737  L 1089 1737  L 1089 1764  L 1043 1764  Z M 1043 1708  L 1089 1708  L 1089 1792  L 1043 1792  Z " fill-rule="evenodd" />
    </mask>
  </defs>
  <path d="M 1066 1737  L 1066 1720  M 1066 1764  L 1066 1776  " stroke-width="2" stroke-dasharray="0" stroke="rgba(88, 0, 170, 1)" fill="none" class="stroke" />
  <path d="M 1066 1718  A 3.5 3.5 0 0 0 1062.5 1721.5 A 3.5 3.5 0 0 0 1066 1725 A 3.5 3.5 0 0 0 1069.5 1721.5 A 3.5 3.5 0 0 0 1066 1718 Z M 1058.4 1775  L 1066 1782  L 1073.6 1775  L 1058.4 1775  Z " fill-rule="nonzero" fill="rgba(88, 0, 170, 1)" stroke="none" class="fill" mask="url(#Clip279)" />
</svg>