<?xml version="1.0" encoding="utf-8"?>
<svg version="1.1" xmlns:xlink="http://www.w3.org/1999/xlink" width="20px" height="21px" preserveAspectRatio="xMidYMin meet" viewBox="292 1725 18 21" xmlns="http://www.w3.org/2000/svg">
  <defs>
    <mask fill="white" id="Clip282">
      <path d="M 287 1785  L 315 1785  L 315 1812  L 287 1812  Z M 287 1722  L 315 1722  L 315 1875  L 287 1875  Z " fill-rule="evenodd" />
    </mask>
  </defs>
  <path d="M 301 1785  L 301 1734  M 301 1812  L 301 1859  " stroke-width="2" stroke-dasharray="0" stroke="rgba(88, 0, 170, 1)" fill="none" class="stroke" />
  <path d="M 301 1732  A 3.5 3.5 0 0 0 297.5 1735.5 A 3.5 3.5 0 0 0 301 1739 A 3.5 3.5 0 0 0 304.5 1735.5 A 3.5 3.5 0 0 0 301 1732 Z M 293.4 1858  L 301 1865  L 308.6 1858  L 293.4 1858  Z " fill-rule="nonzero" fill="rgba(88, 0, 170, 1)" stroke="none" class="fill" mask="url(#Clip282)" />
</svg>