<?xml version="1.0" encoding="utf-8"?>
<svg version="1.1" xmlns:xlink="http://www.w3.org/1999/xlink" width="20px" height="20px" preserveAspectRatio="xMinYMid meet" viewBox="354 1956 20 18" xmlns="http://www.w3.org/2000/svg">
  <path d="M 629 1940  L 500 1940  A 5 5 0 0 0 495 1945 L 495 1960  A 5 5 0 0 1 490 1965 L 365 1965  " stroke-width="2" stroke-dasharray="0" stroke="rgba(88, 0, 170, 1)" fill="none" class="stroke" />
  <path d="M 627.5 1936.5  A 3.5 3.5 0 0 0 624 1940 A 3.5 3.5 0 0 0 627.5 1943.5 A 3.5 3.5 0 0 0 631 1940 A 3.5 3.5 0 0 0 627.5 1936.5 Z M 366 1957.4  L 359 1965  L 366 1972.6  L 366 1957.4  Z " fill-rule="nonzero" fill="rgba(88, 0, 170, 1)" stroke="none" class="fill" />
</svg>