<?xml version="1.0" encoding="utf-8"?>
<svg version="1.1" xmlns:xlink="http://www.w3.org/1999/xlink" width="21px" height="20px" preserveAspectRatio="xMinYMid meet" viewBox="344 2378 21 18" xmlns="http://www.w3.org/2000/svg">
  <defs>
    <mask fill="white" id="Clip413">
      <path d="M 378 2374  L 406 2374  L 406 2401  L 378 2401  Z M 341 2374  L 443 2374  L 443 2401  L 341 2401  Z " fill-rule="evenodd" />
    </mask>
  </defs>
  <path d="M 378 2387  L 353 2387  M 406 2387  L 427 2387  " stroke-width="2" stroke-dasharray="0" stroke="rgba(88, 0, 170, 1)" fill="none" class="stroke" />
  <path d="M 354.5 2383.5  A 3.5 3.5 0 0 0 351 2387 A 3.5 3.5 0 0 0 354.5 2390.5 A 3.5 3.5 0 0 0 358 2387 A 3.5 3.5 0 0 0 354.5 2383.5 Z M 426 2394.6  L 433 2387  L 426 2379.4  L 426 2394.6  Z " fill-rule="nonzero" fill="rgba(88, 0, 170, 1)" stroke="none" class="fill" mask="url(#Clip413)" />
</svg>