<?xml version="1.0" encoding="utf-8"?>
<svg version="1.1" xmlns:xlink="http://www.w3.org/1999/xlink" width="21px" height="20px" preserveAspectRatio="xMinYMid meet" viewBox="237 2378 21 18" xmlns="http://www.w3.org/2000/svg">
  <defs>
    <mask fill="white" id="Clip292">
      <path d="M 194.5 2406  L 225.5 2406  L 225.5 2433  L 194.5 2433  Z M 194.5 2377  L 261 2377  L 261 2504  L 194.5 2504  Z " fill-rule="evenodd" />
    </mask>
  </defs>
  <path d="M 249 2387  L 215 2387  A 5 5 0 0 0 210 2392 L 210 2488  " stroke-width="2" stroke-dasharray="0" stroke="rgba(88, 0, 170, 1)" fill="none" class="stroke" mask="url(#Clip292)" />
  <path d="M 247.5 2383.5  A 3.5 3.5 0 0 0 244 2387 A 3.5 3.5 0 0 0 247.5 2390.5 A 3.5 3.5 0 0 0 251 2387 A 3.5 3.5 0 0 0 247.5 2383.5 Z M 202.4 2487  L 210 2494  L 217.6 2487  L 202.4 2487  Z " fill-rule="nonzero" fill="rgba(88, 0, 170, 1)" stroke="none" class="fill" mask="url(#Clip292)" />
</svg>