<?xml version="1.0" encoding="utf-8"?>
<svg version="1.1" xmlns:xlink="http://www.w3.org/1999/xlink" width="20px" height="20px" preserveAspectRatio="xMinYMid meet" viewBox="726 2502 20 18" xmlns="http://www.w3.org/2000/svg">
  <defs>
    <mask fill="white" id="Clip132">
      <path d="M 834 2498  L 906 2498  L 906 2525  L 834 2525  Z M 721 2498  L 1018 2498  L 1018 2525  L 721 2525  Z " fill-rule="evenodd" />
    </mask>
  </defs>
  <path d="M 834 2511  L 737 2511  M 906 2511  L 1006 2511  " stroke-width="2" stroke-dasharray="0" stroke="rgba(88, 0, 170, 1)" fill="none" class="stroke" />
  <path d="M 1004.5 2507.5  A 3.5 3.5 0 0 0 1001 2511 A 3.5 3.5 0 0 0 1004.5 2514.5 A 3.5 3.5 0 0 0 1008 2511 A 3.5 3.5 0 0 0 1004.5 2507.5 Z M 738 2503.4  L 731 2511  L 738 2518.6  L 738 2503.4  Z " fill-rule="nonzero" fill="rgba(88, 0, 170, 1)" stroke="none" class="fill" mask="url(#Clip132)" />
</svg>