<?xml version="1.0" encoding="utf-8"?>
<svg version="1.1" xmlns:xlink="http://www.w3.org/1999/xlink" width="4px" height="14px" xmlns="http://www.w3.org/2000/svg">
  <defs>
    <pattern id="BGPattern" patternUnits="userSpaceOnUse" alignment="0 0" imageRepeat="None" />
    <mask fill="white" id="Clip273">
      <path d="M 3.5515695067264574 10.688920454545453  C 3.665171898355755 10.814867424242422  3.7219730941704037 10.964015151515149  3.7219730941704037 11.136363636363637  L 3.7219730941704037 13.363636363636363  C 3.7219730941704037 13.535984848484848  3.665171898355755 13.685132575757574  3.5515695067264574 13.811079545454545  C 3.4379671150971602 13.937026515151516  3.3034379671150975 14  3.1479820627802693 14  L 0.852017937219731 14  C 0.696562032884903 14  0.5620328849028402 13.937026515151516  0.4484304932735426 13.811079545454545  C 0.3348281016442452 13.685132575757574  0.27802690582959644 13.535984848484848  0.27802690582959644 13.363636363636363  L 0.27802690582959644 11.136363636363637  C 0.27802690582959644 10.964015151515149  0.3348281016442452 10.814867424242422  0.4484304932735426 10.688920454545453  C 0.5620328849028402 10.562973484848484  0.696562032884903 10.5  0.852017937219731 10.5  L 3.1479820627802693 10.5  C 3.3034379671150975 10.5  3.4379671150971602 10.562973484848484  3.5515695067264574 10.688920454545453  Z M 3.8340807174887894 0.18892045454545525  C 3.9446935724962633 0.3148674242424223  3.997010463378177 0.4640151515151507  3.991031390134529 0.6363636363636358  L 3.7399103139013454 8.272727272727272  C 3.7339312406576983 8.445075757575756  3.6726457399103145 8.594223484848484  3.5560538116591927 8.720170454545453  C 3.439461883408072 8.846117424242424  3.3034379671150975 8.909090909090908  3.1479820627802693 8.909090909090908  L 0.852017937219731 8.909090909090908  C 0.696562032884903 8.909090909090908  0.5605381165919282 8.846117424242424  0.4439461883408072 8.720170454545453  C 0.3273542600896861 8.594223484848484  0.266068759342302 8.445075757575756  0.2600896860986547 8.272727272727272  L 0.008968609865470852 0.6363636363636358  C 0.0029895366218237024 0.4640151515151507  0.05530642750373696 0.3148674242424223  0.16591928251121077 0.18892045454545525  C 0.27653213751868466 0.06297348484848353  0.4095665171898357 0  0.5650224215246636 0  L 3.4349775784753365 0  C 3.5904334828101647 0  3.723467862481316 0.06297348484848353  3.8340807174887894 0.18892045454545525  Z " fill-rule="evenodd" />
    </mask>
  </defs>
  <g transform="matrix(1 0 0 1 -1461 -858 )">
    <path d="M 3.5515695067264574 10.688920454545453  C 3.665171898355755 10.814867424242422  3.7219730941704037 10.964015151515149  3.7219730941704037 11.136363636363637  L 3.7219730941704037 13.363636363636363  C 3.7219730941704037 13.535984848484848  3.665171898355755 13.685132575757574  3.5515695067264574 13.811079545454545  C 3.4379671150971602 13.937026515151516  3.3034379671150975 14  3.1479820627802693 14  L 0.852017937219731 14  C 0.696562032884903 14  0.5620328849028402 13.937026515151516  0.4484304932735426 13.811079545454545  C 0.3348281016442452 13.685132575757574  0.27802690582959644 13.535984848484848  0.27802690582959644 13.363636363636363  L 0.27802690582959644 11.136363636363637  C 0.27802690582959644 10.964015151515149  0.3348281016442452 10.814867424242422  0.4484304932735426 10.688920454545453  C 0.5620328849028402 10.562973484848484  0.696562032884903 10.5  0.852017937219731 10.5  L 3.1479820627802693 10.5  C 3.3034379671150975 10.5  3.4379671150971602 10.562973484848484  3.5515695067264574 10.688920454545453  Z M 3.8340807174887894 0.18892045454545525  C 3.9446935724962633 0.3148674242424223  3.997010463378177 0.4640151515151507  3.991031390134529 0.6363636363636358  L 3.7399103139013454 8.272727272727272  C 3.7339312406576983 8.445075757575756  3.6726457399103145 8.594223484848484  3.5560538116591927 8.720170454545453  C 3.439461883408072 8.846117424242424  3.3034379671150975 8.909090909090908  3.1479820627802693 8.909090909090908  L 0.852017937219731 8.909090909090908  C 0.696562032884903 8.909090909090908  0.5605381165919282 8.846117424242424  0.4439461883408072 8.720170454545453  C 0.3273542600896861 8.594223484848484  0.266068759342302 8.445075757575756  0.2600896860986547 8.272727272727272  L 0.008968609865470852 0.6363636363636358  C 0.0029895366218237024 0.4640151515151507  0.05530642750373696 0.3148674242424223  0.16591928251121077 0.18892045454545525  C 0.27653213751868466 0.06297348484848353  0.4095665171898357 0  0.5650224215246636 0  L 3.4349775784753365 0  C 3.5904334828101647 0  3.723467862481316 0.06297348484848353  3.8340807174887894 0.18892045454545525  Z " fill-rule="nonzero" fill="rgba(217, 0, 27, 1)" stroke="none" transform="matrix(1 0 0 1 1461 858 )" class="fill" />
    <path d="M 3.5515695067264574 10.688920454545453  C 3.665171898355755 10.814867424242422  3.7219730941704037 10.964015151515149  3.7219730941704037 11.136363636363637  L 3.7219730941704037 13.363636363636363  C 3.7219730941704037 13.535984848484848  3.665171898355755 13.685132575757574  3.5515695067264574 13.811079545454545  C 3.4379671150971602 13.937026515151516  3.3034379671150975 14  3.1479820627802693 14  L 0.852017937219731 14  C 0.696562032884903 14  0.5620328849028402 13.937026515151516  0.4484304932735426 13.811079545454545  C 0.3348281016442452 13.685132575757574  0.27802690582959644 13.535984848484848  0.27802690582959644 13.363636363636363  L 0.27802690582959644 11.136363636363637  C 0.27802690582959644 10.964015151515149  0.3348281016442452 10.814867424242422  0.4484304932735426 10.688920454545453  C 0.5620328849028402 10.562973484848484  0.696562032884903 10.5  0.852017937219731 10.5  L 3.1479820627802693 10.5  C 3.3034379671150975 10.5  3.4379671150971602 10.562973484848484  3.5515695067264574 10.688920454545453  Z " stroke-width="0" stroke-dasharray="0" stroke="rgba(255, 255, 255, 0)" fill="none" transform="matrix(1 0 0 1 1461 858 )" class="stroke" mask="url(#Clip273)" />
    <path d="M 3.8340807174887894 0.18892045454545525  C 3.9446935724962633 0.3148674242424223  3.997010463378177 0.4640151515151507  3.991031390134529 0.6363636363636358  L 3.7399103139013454 8.272727272727272  C 3.7339312406576983 8.445075757575756  3.6726457399103145 8.594223484848484  3.5560538116591927 8.720170454545453  C 3.439461883408072 8.846117424242424  3.3034379671150975 8.909090909090908  3.1479820627802693 8.909090909090908  L 0.852017937219731 8.909090909090908  C 0.696562032884903 8.909090909090908  0.5605381165919282 8.846117424242424  0.4439461883408072 8.720170454545453  C 0.3273542600896861 8.594223484848484  0.266068759342302 8.445075757575756  0.2600896860986547 8.272727272727272  L 0.008968609865470852 0.6363636363636358  C 0.0029895366218237024 0.4640151515151507  0.05530642750373696 0.3148674242424223  0.16591928251121077 0.18892045454545525  C 0.27653213751868466 0.06297348484848353  0.4095665171898357 0  0.5650224215246636 0  L 3.4349775784753365 0  C 3.5904334828101647 0  3.723467862481316 0.06297348484848353  3.8340807174887894 0.18892045454545525  Z " stroke-width="0" stroke-dasharray="0" stroke="rgba(255, 255, 255, 0)" fill="none" transform="matrix(1 0 0 1 1461 858 )" class="stroke" mask="url(#Clip273)" />
  </g>
</svg>