<?xml version="1.0" encoding="utf-8"?>
<svg version="1.1" xmlns:xlink="http://www.w3.org/1999/xlink" width="9px" height="14px" xmlns="http://www.w3.org/2000/svg">
  <defs>
    <pattern id="BGPattern" patternUnits="userSpaceOnUse" alignment="0 0" imageRepeat="None" />
    <mask fill="white" id="Clip274">
      <path d="M 6.13916015625 3.263020833333333  C 6.35888671875 3.4939236111111107  6.46875 3.7673611111111107  6.46875 4.083333333333333  C 6.46875 4.1623263888888875  6.44091796875 4.2306857638888875  6.38525390625 4.288411458333333  C 6.329589843750001 4.346137152777777  6.263671875000001 4.375  6.1875 4.375  C 6.111328125 4.375  6.04541015625 4.346137152777777  5.98974609375 4.288411458333333  C 5.934082031250001 4.2306857638888875  5.90625 4.1623263888888875  5.90625 4.083333333333333  C 5.90625 3.8038194444444438  5.748046875 3.5881076388888875  5.431640625 3.436197916666667  C 5.115234375 3.2842881944444438  4.804687500000001 3.208333333333333  4.5 3.208333333333333  C 4.423828125 3.208333333333333  4.35791015625 3.1794704861111107  4.30224609375 3.121744791666667  C 4.246582031250001 3.0640190972222205  4.218750000000001 2.9956597222222205  4.21875 2.916666666666667  C 4.218750000000001 2.8376736111111107  4.246582031250001 2.7693142361111107  4.30224609375 2.711588541666667  C 4.35791015625 2.6538628472222205  4.423828125 2.625  4.5 2.625  C 4.79296875 2.625  5.08447265625 2.6736111111111107  5.37451171875 2.770833333333333  C 5.66455078125 2.8680555555555545  5.91943359375 3.0321180555555545  6.13916015625 3.263020833333333  Z M 7.27734375 5.723958333333333  C 7.67578125 5.243923611111111  7.875 4.697048611111111  7.875 4.083333333333333  C 7.875 3.645833333333333  7.77392578125 3.238715277777777  7.57177734375 2.861979166666667  C 7.36962890625 2.4852430555555545  7.10595703125 2.1768663194444438  6.78076171875 1.9368489583333328  C 6.45556640625 1.6968315972222203  6.09521484375 1.5084635416666672  5.69970703125 1.3717447916666672  C 5.30419921875 1.2350260416666672  4.904296875 1.1666666666666672  4.5 1.1666666666666672  C 4.095703125 1.1666666666666672  3.69580078125 1.2350260416666672  3.30029296875 1.3717447916666672  C 2.90478515625 1.5084635416666672  2.54443359375 1.6968315972222203  2.21923828125 1.9368489583333328  C 1.89404296875 2.1768663194444438  1.63037109375 2.4852430555555545  1.42822265625 2.861979166666667  C 1.22607421875 3.238715277777777  1.125 3.645833333333333  1.125 4.083333333333333  C 1.125 4.697048611111111  1.3242187500000002 5.243923611111111  1.72265625 5.723958333333333  C 1.7812500000000002 5.790798611111111  1.87060546875 5.891059027777777  1.99072265625 6.024739583333333  C 2.11083984375 6.158420138888889  2.2001953125 6.2586805555555545  2.2587890625 6.325520833333333  C 3.0087890625000004 7.255208333333334  3.4218750000000004 8.160590277777779  3.498046875 9.041666666666666  L 5.501953125 9.041666666666666  C 5.578125000000001 8.160590277777779  5.991210937500001 7.255208333333334  6.7412109375 6.325520833333333  C 6.799804687500001 6.2586805555555545  6.889160156250002 6.158420138888889  7.00927734375 6.024739583333333  C 7.129394531250001 5.891059027777777  7.21875 5.790798611111111  7.27734375 5.723958333333333  Z M 8.60888671875 2.401692708333333  C 8.86962890625 2.921223958333333  9 3.481770833333333  9 4.083333333333333  C 9 5.025173611111111  8.6982421875 5.839409722222221  8.0947265625 6.526041666666667  C 7.831054687500001 6.823784722222221  7.612792968750001 7.0881076388888875  7.43994140625 7.319010416666666  C 7.26708984375 7.549913194444444  7.0927734375 7.8400607638888875  6.9169921875 8.189453125  C 6.7412109375 8.538845486111109  6.641601562500001 8.865451388888888  6.6181640625 9.169270833333334  C 6.8935546875 9.339409722222221  7.03125 9.588541666666666  7.03125 9.916666666666666  C 7.03125 10.141493055555554  6.958007812500001 10.3359375  6.8115234375 10.5  C 6.958007812500001 10.6640625  7.03125 10.858506944444443  7.03125 11.083333333333332  C 7.03125 11.399305555555557  6.8994140625 11.645399305555557  6.6357421875 11.821614583333332  C 6.7119140625 11.961371527777777  6.75 12.104166666666668  6.75 12.25  C 6.75 12.52951388888889  6.65771484375 12.745225694444443  6.47314453125 12.897135416666668  C 6.28857421875 13.04904513888889  6.061523437500001 13.125  5.7919921875 13.125  C 5.674804687500001 13.39236111111111  5.499023437500001 13.605034722222223  5.2646484375 13.763020833333332  C 5.0302734375 13.921006944444443  4.775390625 14  4.5 14  C 4.224609375000001 14  3.969726562500001 13.921006944444443  3.7353515625 13.763020833333332  C 3.5009765625000004 13.605034722222223  3.3251953125000004 13.39236111111111  3.2080078125 13.125  C 2.9384765625000004 13.125  2.71142578125 13.04904513888889  2.52685546875 12.897135416666668  C 2.34228515625 12.745225694444443  2.25 12.52951388888889  2.25 12.25  C 2.25 12.104166666666668  2.2880859375000004 11.961371527777777  2.3642578125 11.821614583333332  C 2.1005859375 11.645399305555557  1.96875 11.399305555555557  1.96875 11.083333333333332  C 1.96875 10.858506944444443  2.0419921875 10.6640625  2.1884765625 10.5  C 2.0419921875 10.3359375  1.96875 10.141493055555554  1.96875 9.916666666666666  C 1.96875 9.588541666666666  2.1064453125 9.339409722222221  2.3818359375 9.169270833333334  C 2.3583984375000004 8.865451388888888  2.2587890625 8.538845486111109  2.0830078125 8.189453125  C 1.9072265625000002 7.8400607638888875  1.7329101562500002 7.549913194444444  1.56005859375 7.319010416666666  C 1.38720703125 7.0881076388888875  1.1689453125 6.823784722222221  0.9052734375 6.526041666666667  C 0.30175781249999994 5.839409722222221  0 5.025173611111111  0 4.083333333333333  C 0 3.481770833333333  0.13037109375 2.921223958333333  0.39111328125 2.401692708333333  C 0.65185546875 1.8821614583333328  0.99462890625 1.4507378472222203  1.41943359375 1.107421875  C 1.8442382812500004 0.7641059027777766  2.32470703125 0.4937065972222203  2.86083984375 0.2962239583333328  C 3.3969726562500004 0.09874131944444375  3.943359375000001 0  4.5 0  C 5.056640625 0  5.60302734375 0.09874131944444375  6.13916015625 0.2962239583333328  C 6.67529296875 0.4937065972222203  7.155761718750001 0.7641059027777766  7.58056640625 1.107421875  C 8.00537109375 1.4507378472222203  8.34814453125 1.8821614583333328  8.60888671875 2.401692708333333  Z " fill-rule="evenodd" />
    </mask>
  </defs>
  <g transform="matrix(1 0 0 1 -1461 -838 )">
    <path d="M 6.13916015625 3.263020833333333  C 6.35888671875 3.4939236111111107  6.46875 3.7673611111111107  6.46875 4.083333333333333  C 6.46875 4.1623263888888875  6.44091796875 4.2306857638888875  6.38525390625 4.288411458333333  C 6.329589843750001 4.346137152777777  6.263671875000001 4.375  6.1875 4.375  C 6.111328125 4.375  6.04541015625 4.346137152777777  5.98974609375 4.288411458333333  C 5.934082031250001 4.2306857638888875  5.90625 4.1623263888888875  5.90625 4.083333333333333  C 5.90625 3.8038194444444438  5.748046875 3.5881076388888875  5.431640625 3.436197916666667  C 5.115234375 3.2842881944444438  4.804687500000001 3.208333333333333  4.5 3.208333333333333  C 4.423828125 3.208333333333333  4.35791015625 3.1794704861111107  4.30224609375 3.121744791666667  C 4.246582031250001 3.0640190972222205  4.218750000000001 2.9956597222222205  4.21875 2.916666666666667  C 4.218750000000001 2.8376736111111107  4.246582031250001 2.7693142361111107  4.30224609375 2.711588541666667  C 4.35791015625 2.6538628472222205  4.423828125 2.625  4.5 2.625  C 4.79296875 2.625  5.08447265625 2.6736111111111107  5.37451171875 2.770833333333333  C 5.66455078125 2.8680555555555545  5.91943359375 3.0321180555555545  6.13916015625 3.263020833333333  Z M 7.27734375 5.723958333333333  C 7.67578125 5.243923611111111  7.875 4.697048611111111  7.875 4.083333333333333  C 7.875 3.645833333333333  7.77392578125 3.238715277777777  7.57177734375 2.861979166666667  C 7.36962890625 2.4852430555555545  7.10595703125 2.1768663194444438  6.78076171875 1.9368489583333328  C 6.45556640625 1.6968315972222203  6.09521484375 1.5084635416666672  5.69970703125 1.3717447916666672  C 5.30419921875 1.2350260416666672  4.904296875 1.1666666666666672  4.5 1.1666666666666672  C 4.095703125 1.1666666666666672  3.69580078125 1.2350260416666672  3.30029296875 1.3717447916666672  C 2.90478515625 1.5084635416666672  2.54443359375 1.6968315972222203  2.21923828125 1.9368489583333328  C 1.89404296875 2.1768663194444438  1.63037109375 2.4852430555555545  1.42822265625 2.861979166666667  C 1.22607421875 3.238715277777777  1.125 3.645833333333333  1.125 4.083333333333333  C 1.125 4.697048611111111  1.3242187500000002 5.243923611111111  1.72265625 5.723958333333333  C 1.7812500000000002 5.790798611111111  1.87060546875 5.891059027777777  1.99072265625 6.024739583333333  C 2.11083984375 6.158420138888889  2.2001953125 6.2586805555555545  2.2587890625 6.325520833333333  C 3.0087890625000004 7.255208333333334  3.4218750000000004 8.160590277777779  3.498046875 9.041666666666666  L 5.501953125 9.041666666666666  C 5.578125000000001 8.160590277777779  5.991210937500001 7.255208333333334  6.7412109375 6.325520833333333  C 6.799804687500001 6.2586805555555545  6.889160156250002 6.158420138888889  7.00927734375 6.024739583333333  C 7.129394531250001 5.891059027777777  7.21875 5.790798611111111  7.27734375 5.723958333333333  Z M 8.60888671875 2.401692708333333  C 8.86962890625 2.921223958333333  9 3.481770833333333  9 4.083333333333333  C 9 5.025173611111111  8.6982421875 5.839409722222221  8.0947265625 6.526041666666667  C 7.831054687500001 6.823784722222221  7.612792968750001 7.0881076388888875  7.43994140625 7.319010416666666  C 7.26708984375 7.549913194444444  7.0927734375 7.8400607638888875  6.9169921875 8.189453125  C 6.7412109375 8.538845486111109  6.641601562500001 8.865451388888888  6.6181640625 9.169270833333334  C 6.8935546875 9.339409722222221  7.03125 9.588541666666666  7.03125 9.916666666666666  C 7.03125 10.141493055555554  6.958007812500001 10.3359375  6.8115234375 10.5  C 6.958007812500001 10.6640625  7.03125 10.858506944444443  7.03125 11.083333333333332  C 7.03125 11.399305555555557  6.8994140625 11.645399305555557  6.6357421875 11.821614583333332  C 6.7119140625 11.961371527777777  6.75 12.104166666666668  6.75 12.25  C 6.75 12.52951388888889  6.65771484375 12.745225694444443  6.47314453125 12.897135416666668  C 6.28857421875 13.04904513888889  6.061523437500001 13.125  5.7919921875 13.125  C 5.674804687500001 13.39236111111111  5.499023437500001 13.605034722222223  5.2646484375 13.763020833333332  C 5.0302734375 13.921006944444443  4.775390625 14  4.5 14  C 4.224609375000001 14  3.969726562500001 13.921006944444443  3.7353515625 13.763020833333332  C 3.5009765625000004 13.605034722222223  3.3251953125000004 13.39236111111111  3.2080078125 13.125  C 2.9384765625000004 13.125  2.71142578125 13.04904513888889  2.52685546875 12.897135416666668  C 2.34228515625 12.745225694444443  2.25 12.52951388888889  2.25 12.25  C 2.25 12.104166666666668  2.2880859375000004 11.961371527777777  2.3642578125 11.821614583333332  C 2.1005859375 11.645399305555557  1.96875 11.399305555555557  1.96875 11.083333333333332  C 1.96875 10.858506944444443  2.0419921875 10.6640625  2.1884765625 10.5  C 2.0419921875 10.3359375  1.96875 10.141493055555554  1.96875 9.916666666666666  C 1.96875 9.588541666666666  2.1064453125 9.339409722222221  2.3818359375 9.169270833333334  C 2.3583984375000004 8.865451388888888  2.2587890625 8.538845486111109  2.0830078125 8.189453125  C 1.9072265625000002 7.8400607638888875  1.7329101562500002 7.549913194444444  1.56005859375 7.319010416666666  C 1.38720703125 7.0881076388888875  1.1689453125 6.823784722222221  0.9052734375 6.526041666666667  C 0.30175781249999994 5.839409722222221  0 5.025173611111111  0 4.083333333333333  C 0 3.481770833333333  0.13037109375 2.921223958333333  0.39111328125 2.401692708333333  C 0.65185546875 1.8821614583333328  0.99462890625 1.4507378472222203  1.41943359375 1.107421875  C 1.8442382812500004 0.7641059027777766  2.32470703125 0.4937065972222203  2.86083984375 0.2962239583333328  C 3.3969726562500004 0.09874131944444375  3.943359375000001 0  4.5 0  C 5.056640625 0  5.60302734375 0.09874131944444375  6.13916015625 0.2962239583333328  C 6.67529296875 0.4937065972222203  7.155761718750001 0.7641059027777766  7.58056640625 1.107421875  C 8.00537109375 1.4507378472222203  8.34814453125 1.8821614583333328  8.60888671875 2.401692708333333  Z " fill-rule="nonzero" fill="rgba(255, 255, 0, 1)" stroke="none" transform="matrix(1 0 0 1 1461 838 )" class="fill" />
    <path d="M 6.13916015625 3.263020833333333  C 6.35888671875 3.4939236111111107  6.46875 3.7673611111111107  6.46875 4.083333333333333  C 6.46875 4.1623263888888875  6.44091796875 4.2306857638888875  6.38525390625 4.288411458333333  C 6.329589843750001 4.346137152777777  6.263671875000001 4.375  6.1875 4.375  C 6.111328125 4.375  6.04541015625 4.346137152777777  5.98974609375 4.288411458333333  C 5.934082031250001 4.2306857638888875  5.90625 4.1623263888888875  5.90625 4.083333333333333  C 5.90625 3.8038194444444438  5.748046875 3.5881076388888875  5.431640625 3.436197916666667  C 5.115234375 3.2842881944444438  4.804687500000001 3.208333333333333  4.5 3.208333333333333  C 4.423828125 3.208333333333333  4.35791015625 3.1794704861111107  4.30224609375 3.121744791666667  C 4.246582031250001 3.0640190972222205  4.218750000000001 2.9956597222222205  4.21875 2.916666666666667  C 4.218750000000001 2.8376736111111107  4.246582031250001 2.7693142361111107  4.30224609375 2.711588541666667  C 4.35791015625 2.6538628472222205  4.423828125 2.625  4.5 2.625  C 4.79296875 2.625  5.08447265625 2.6736111111111107  5.37451171875 2.770833333333333  C 5.66455078125 2.8680555555555545  5.91943359375 3.0321180555555545  6.13916015625 3.263020833333333  Z " stroke-width="2" stroke-dasharray="0" stroke="rgba(0, 0, 0, 1)" fill="none" transform="matrix(1 0 0 1 1461 838 )" class="stroke" mask="url(#Clip274)" />
    <path d="M 7.27734375 5.723958333333333  C 7.67578125 5.243923611111111  7.875 4.697048611111111  7.875 4.083333333333333  C 7.875 3.645833333333333  7.77392578125 3.238715277777777  7.57177734375 2.861979166666667  C 7.36962890625 2.4852430555555545  7.10595703125 2.1768663194444438  6.78076171875 1.9368489583333328  C 6.45556640625 1.6968315972222203  6.09521484375 1.5084635416666672  5.69970703125 1.3717447916666672  C 5.30419921875 1.2350260416666672  4.904296875 1.1666666666666672  4.5 1.1666666666666672  C 4.095703125 1.1666666666666672  3.69580078125 1.2350260416666672  3.30029296875 1.3717447916666672  C 2.90478515625 1.5084635416666672  2.54443359375 1.6968315972222203  2.21923828125 1.9368489583333328  C 1.89404296875 2.1768663194444438  1.63037109375 2.4852430555555545  1.42822265625 2.861979166666667  C 1.22607421875 3.238715277777777  1.125 3.645833333333333  1.125 4.083333333333333  C 1.125 4.697048611111111  1.3242187500000002 5.243923611111111  1.72265625 5.723958333333333  C 1.7812500000000002 5.790798611111111  1.87060546875 5.891059027777777  1.99072265625 6.024739583333333  C 2.11083984375 6.158420138888889  2.2001953125 6.2586805555555545  2.2587890625 6.325520833333333  C 3.0087890625000004 7.255208333333334  3.4218750000000004 8.160590277777779  3.498046875 9.041666666666666  L 5.501953125 9.041666666666666  C 5.578125000000001 8.160590277777779  5.991210937500001 7.255208333333334  6.7412109375 6.325520833333333  C 6.799804687500001 6.2586805555555545  6.889160156250002 6.158420138888889  7.00927734375 6.024739583333333  C 7.129394531250001 5.891059027777777  7.21875 5.790798611111111  7.27734375 5.723958333333333  Z " stroke-width="2" stroke-dasharray="0" stroke="rgba(0, 0, 0, 1)" fill="none" transform="matrix(1 0 0 1 1461 838 )" class="stroke" mask="url(#Clip274)" />
    <path d="M 8.60888671875 2.401692708333333  C 8.86962890625 2.921223958333333  9 3.481770833333333  9 4.083333333333333  C 9 5.025173611111111  8.6982421875 5.839409722222221  8.0947265625 6.526041666666667  C 7.831054687500001 6.823784722222221  7.612792968750001 7.0881076388888875  7.43994140625 7.319010416666666  C 7.26708984375 7.549913194444444  7.0927734375 7.8400607638888875  6.9169921875 8.189453125  C 6.7412109375 8.538845486111109  6.641601562500001 8.865451388888888  6.6181640625 9.169270833333334  C 6.8935546875 9.339409722222221  7.03125 9.588541666666666  7.03125 9.916666666666666  C 7.03125 10.141493055555554  6.958007812500001 10.3359375  6.8115234375 10.5  C 6.958007812500001 10.6640625  7.03125 10.858506944444443  7.03125 11.083333333333332  C 7.03125 11.399305555555557  6.8994140625 11.645399305555557  6.6357421875 11.821614583333332  C 6.7119140625 11.961371527777777  6.75 12.104166666666668  6.75 12.25  C 6.75 12.52951388888889  6.65771484375 12.745225694444443  6.47314453125 12.897135416666668  C 6.28857421875 13.04904513888889  6.061523437500001 13.125  5.7919921875 13.125  C 5.674804687500001 13.39236111111111  5.499023437500001 13.605034722222223  5.2646484375 13.763020833333332  C 5.0302734375 13.921006944444443  4.775390625 14  4.5 14  C 4.224609375000001 14  3.969726562500001 13.921006944444443  3.7353515625 13.763020833333332  C 3.5009765625000004 13.605034722222223  3.3251953125000004 13.39236111111111  3.2080078125 13.125  C 2.9384765625000004 13.125  2.71142578125 13.04904513888889  2.52685546875 12.897135416666668  C 2.34228515625 12.745225694444443  2.25 12.52951388888889  2.25 12.25  C 2.25 12.104166666666668  2.2880859375000004 11.961371527777777  2.3642578125 11.821614583333332  C 2.1005859375 11.645399305555557  1.96875 11.399305555555557  1.96875 11.083333333333332  C 1.96875 10.858506944444443  2.0419921875 10.6640625  2.1884765625 10.5  C 2.0419921875 10.3359375  1.96875 10.141493055555554  1.96875 9.916666666666666  C 1.96875 9.588541666666666  2.1064453125 9.339409722222221  2.3818359375 9.169270833333334  C 2.3583984375000004 8.865451388888888  2.2587890625 8.538845486111109  2.0830078125 8.189453125  C 1.9072265625000002 7.8400607638888875  1.7329101562500002 7.549913194444444  1.56005859375 7.319010416666666  C 1.38720703125 7.0881076388888875  1.1689453125 6.823784722222221  0.9052734375 6.526041666666667  C 0.30175781249999994 5.839409722222221  0 5.025173611111111  0 4.083333333333333  C 0 3.481770833333333  0.13037109375 2.921223958333333  0.39111328125 2.401692708333333  C 0.65185546875 1.8821614583333328  0.99462890625 1.4507378472222203  1.41943359375 1.107421875  C 1.8442382812500004 0.7641059027777766  2.32470703125 0.4937065972222203  2.86083984375 0.2962239583333328  C 3.3969726562500004 0.09874131944444375  3.943359375000001 0  4.5 0  C 5.056640625 0  5.60302734375 0.09874131944444375  6.13916015625 0.2962239583333328  C 6.67529296875 0.4937065972222203  7.155761718750001 0.7641059027777766  7.58056640625 1.107421875  C 8.00537109375 1.4507378472222203  8.34814453125 1.8821614583333328  8.60888671875 2.401692708333333  Z " stroke-width="2" stroke-dasharray="0" stroke="rgba(0, 0, 0, 1)" fill="none" transform="matrix(1 0 0 1 1461 838 )" class="stroke" mask="url(#Clip274)" />
  </g>
</svg>