<?xml version="1.0" encoding="utf-8"?>
<svg version="1.1" xmlns:xlink="http://www.w3.org/1999/xlink" width="20px" height="18px" xmlns="http://www.w3.org/2000/svg">
  <defs>
    <pattern id="BGPattern" patternUnits="userSpaceOnUse" alignment="0 0" imageRepeat="None" />
    <mask fill="white" id="Clip144">
      <path d="M 2.8571428571428568 2.5200000000000005  C 4.717261904761905 2.5200000000000005  6.242559523809525 3.3637500000000005  7.4330357142857135 5.0512500000000005  C 6.986607142857143 5.741249999999998  6.476934523809525 6.764999999999999  5.904017857142857 8.1225  C 5.740327380952381 7.785  5.602678571428572 7.513125  5.491071428571429 7.306874999999999  C 5.3794642857142865 7.100624999999999  5.228794642857143 6.8625  5.0390625 6.592499999999999  C 4.849330357142858 6.322499999999999  4.659598214285715 6.110624999999998  4.469866071428571 5.956875  C 4.280133928571429 5.803125  4.045758928571429 5.671874999999997  3.7667410714285716 5.563125  C 3.4877232142857144 5.454374999999999  3.1845238095238098 5.4  2.8571428571428568 5.4  L 0.3571428571428571 5.4  C 0.25297619047619047 5.4  0.1674107142857143 5.366249999999999  0.10044642857142858 5.298750000000001  C 0.033482142857142856 5.23125  0 5.144999999999999  0 5.040000000000001  L 0 2.880000000000001  C 0 2.774999999999998  0.033482142857142856 2.6887500000000006  0.10044642857142858 2.62125  C 0.1674107142857143 2.5537499999999995  0.25297619047619047 2.5200000000000005  0.3571428571428571 2.5200000000000005  L 2.8571428571428568 2.5200000000000005  Z M 19.899553571428573 13.78125  C 19.966517857142858 13.84875  20 13.934999999999999  20 14.040000000000001  C 20 14.145  19.966517857142858 14.231250000000001  19.899553571428573 14.298750000000002  L 16.328125 17.89875  C 16.261160714285715 17.966250000000002  16.17559523809524 18  16.071428571428573 18  C 15.974702380952383 18  15.890997023809526 17.964374999999997  15.8203125 17.893124999999998  C 15.749627976190476 17.821875  15.714285714285714 17.7375  15.714285714285714 17.64  L 15.714285714285714 15.48  C 15.476190476190476 15.48  15.159970238095239 15.481875  14.765625 15.485625  C 14.371279761904763 15.489374999999999  14.069940476190476 15.493125000000003  13.861607142857142 15.496875000000001  C 13.653273809523812 15.500625  13.381696428571427 15.496875000000001  13.046875 15.485625  C 12.712053571428573 15.474374999999998  12.447916666666668 15.455625  12.254464285714286 15.429375  C 12.061011904761905 15.403125  11.822916666666668 15.363750000000001  11.540178571428573 15.31125  C 11.257440476190476 15.25875  11.023065476190476 15.189375  10.837053571428573 15.103125  C 10.651041666666668 15.016874999999999  10.435267857142858 14.909999999999998  10.189732142857142 14.7825  C 9.944196428571429 14.655  9.724702380952381 14.504999999999999  9.53125 14.3325  C 9.33779761904762 14.160000000000002  9.133184523809526 13.959375  8.917410714285714 13.730625  C 8.701636904761905 13.501874999999998  8.493303571428571 13.241249999999999  8.292410714285714 12.94875  C 8.73139880952381 12.25125  9.237351190476192 11.227500000000001  9.810267857142858 9.877500000000001  C 9.973958333333334 10.215  10.111607142857142 10.486874999999998  10.223214285714286 10.693124999999998  C 10.334821428571427 10.899375  10.485491071428573 11.137500000000001  10.675223214285714 11.4075  C 10.864955357142858 11.677499999999998  11.0546875 11.889374999999998  11.244419642857142 12.043125  C 11.434151785714286 12.196874999999999  11.668526785714286 12.328124999999998  11.947544642857142 12.436875  C 12.2265625 12.545625000000001  12.529761904761905 12.6  12.857142857142858 12.6  L 15.714285714285714 12.6  L 15.714285714285714 10.440000000000001  C 15.714285714285714 10.335  15.747767857142858 10.24875  15.814732142857142 10.18125  C 15.881696428571427 10.11375  15.967261904761905 10.080000000000002  16.071428571428573 10.080000000000002  C 16.160714285714285 10.080000000000002  16.25 10.1175  16.339285714285715 10.192499999999999  L 19.899553571428573 13.78125  Z M 19.899553571428573 3.701249999999999  C 19.966517857142858 3.76875  20 3.854999999999999  20 3.9599999999999995  C 20 4.0649999999999995  19.966517857142858 4.151249999999999  19.899553571428573 4.21875  L 16.328125 7.81875  C 16.261160714285715 7.8862499999999995  16.17559523809524 7.919999999999999  16.071428571428573 7.919999999999999  C 15.974702380952383 7.919999999999999  15.890997023809526 7.8843749999999995  15.8203125 7.813125  C 15.749627976190476 7.741874999999999  15.714285714285714 7.657499999999998  15.714285714285714 7.5600000000000005  L 15.714285714285714 5.4  L 12.857142857142858 5.4  C 12.5 5.4  12.176339285714286 5.45625  11.886160714285714 5.56875  C 11.595982142857142 5.68125  11.339285714285715 5.85  11.116071428571427 6.075  C 10.892857142857144 6.3  10.703125000000002 6.530625  10.546875 6.766875000000001  C 10.390625000000002 7.003125  10.223214285714286 7.293749999999999  10.044642857142858 7.638749999999999  C 9.80654761904762 8.10375  9.51636904761905 8.745000000000001  9.174107142857142 9.5625  C 8.958333333333334 10.057500000000001  8.77418154761905 10.473749999999999  8.621651785714286 10.81125  C 8.469122023809524 11.14875  8.268229166666668 11.5425  8.018973214285714 11.9925  C 7.769717261904763 12.442499999999999  7.531622023809525 12.817499999999999  7.3046875 13.1175  C 7.077752976190476 13.417499999999999  6.802455357142857 13.72875  6.478794642857143 14.05125  C 6.155133928571429 14.373750000000001  5.8203125 14.630624999999998  5.474330357142857 14.821875  C 5.128348214285715 15.013125  4.732142857142858 15.170625  4.285714285714286 15.294375  C 3.8392857142857144 15.418125  3.363095238095238 15.48  2.8571428571428568 15.48  L 0.3571428571428571 15.48  C 0.25297619047619047 15.48  0.1674107142857143 15.446250000000001  0.10044642857142858 15.37875  C 0.033482142857142856 15.31125  0 15.225  0 15.12  L 0 12.959999999999999  C 0 12.854999999999999  0.033482142857142856 12.768749999999999  0.10044642857142858 12.701249999999998  C 0.1674107142857143 12.633750000000001  0.25297619047619047 12.6  0.3571428571428571 12.6  L 2.8571428571428568 12.6  C 3.2142857142857144 12.6  3.5379464285714284 12.543750000000001  3.828125 12.43125  C 4.118303571428571 12.31875  4.375 12.15  4.598214285714286 11.924999999999999  C 4.821428571428571 11.700000000000001  5.0111607142857135 11.469375  5.1674107142857135 11.233125  C 5.3236607142857135 10.996875000000001  5.491071428571429 10.706249999999999  5.669642857142857 10.361250000000002  C 5.907738095238095 9.89625  6.197916666666668 9.254999999999999  6.540178571428571 8.4375  C 6.755952380952381 7.942500000000001  6.940104166666668 7.526249999999999  7.092633928571429 7.188750000000001  C 7.245163690476192 6.85125  7.446056547619049 6.4575000000000005  7.6953125 6.0075  C 7.9445684523809526 5.557499999999999  8.182663690476192 5.182499999999999  8.409598214285714 4.8825  C 8.636532738095239 4.582499999999999  8.911830357142858 4.271249999999998  9.235491071428571 3.9487499999999995  C 9.559151785714286 3.6262499999999993  9.893973214285714 3.369374999999999  10.239955357142858 3.178124999999999  C 10.5859375 2.9868749999999995  10.982142857142858 2.8293750000000006  11.428571428571427 2.7056249999999995  C 11.875 2.581875  12.351190476190476 2.5200000000000005  12.857142857142858 2.5200000000000005  L 15.714285714285714 2.5200000000000005  L 15.714285714285714 0.3600000000000003  C 15.714285714285714 0.2549999999999979  15.747767857142858 0.1687500000000004  15.814732142857142 0.10124999999999984  C 15.881696428571427 0.03374999999999928  15.967261904761905 0  16.071428571428573 0  C 16.160714285714285 0  16.25 0.03749999999999987  16.339285714285715 0.1124999999999996  L 19.899553571428573 3.701249999999999  Z " fill-rule="evenodd" />
    </mask>
  </defs>
  <g transform="matrix(1 0 0 1 -2801 -901 )">
    <path d="M 2.8571428571428568 2.5200000000000005  C 4.717261904761905 2.5200000000000005  6.242559523809525 3.3637500000000005  7.4330357142857135 5.0512500000000005  C 6.986607142857143 5.741249999999998  6.476934523809525 6.764999999999999  5.904017857142857 8.1225  C 5.740327380952381 7.785  5.602678571428572 7.513125  5.491071428571429 7.306874999999999  C 5.3794642857142865 7.100624999999999  5.228794642857143 6.8625  5.0390625 6.592499999999999  C 4.849330357142858 6.322499999999999  4.659598214285715 6.110624999999998  4.469866071428571 5.956875  C 4.280133928571429 5.803125  4.045758928571429 5.671874999999997  3.7667410714285716 5.563125  C 3.4877232142857144 5.454374999999999  3.1845238095238098 5.4  2.8571428571428568 5.4  L 0.3571428571428571 5.4  C 0.25297619047619047 5.4  0.1674107142857143 5.366249999999999  0.10044642857142858 5.298750000000001  C 0.033482142857142856 5.23125  0 5.144999999999999  0 5.040000000000001  L 0 2.880000000000001  C 0 2.774999999999998  0.033482142857142856 2.6887500000000006  0.10044642857142858 2.62125  C 0.1674107142857143 2.5537499999999995  0.25297619047619047 2.5200000000000005  0.3571428571428571 2.5200000000000005  L 2.8571428571428568 2.5200000000000005  Z M 19.899553571428573 13.78125  C 19.966517857142858 13.84875  20 13.934999999999999  20 14.040000000000001  C 20 14.145  19.966517857142858 14.231250000000001  19.899553571428573 14.298750000000002  L 16.328125 17.89875  C 16.261160714285715 17.966250000000002  16.17559523809524 18  16.071428571428573 18  C 15.974702380952383 18  15.890997023809526 17.964374999999997  15.8203125 17.893124999999998  C 15.749627976190476 17.821875  15.714285714285714 17.7375  15.714285714285714 17.64  L 15.714285714285714 15.48  C 15.476190476190476 15.48  15.159970238095239 15.481875  14.765625 15.485625  C 14.371279761904763 15.489374999999999  14.069940476190476 15.493125000000003  13.861607142857142 15.496875000000001  C 13.653273809523812 15.500625  13.381696428571427 15.496875000000001  13.046875 15.485625  C 12.712053571428573 15.474374999999998  12.447916666666668 15.455625  12.254464285714286 15.429375  C 12.061011904761905 15.403125  11.822916666666668 15.363750000000001  11.540178571428573 15.31125  C 11.257440476190476 15.25875  11.023065476190476 15.189375  10.837053571428573 15.103125  C 10.651041666666668 15.016874999999999  10.435267857142858 14.909999999999998  10.189732142857142 14.7825  C 9.944196428571429 14.655  9.724702380952381 14.504999999999999  9.53125 14.3325  C 9.33779761904762 14.160000000000002  9.133184523809526 13.959375  8.917410714285714 13.730625  C 8.701636904761905 13.501874999999998  8.493303571428571 13.241249999999999  8.292410714285714 12.94875  C 8.73139880952381 12.25125  9.237351190476192 11.227500000000001  9.810267857142858 9.877500000000001  C 9.973958333333334 10.215  10.111607142857142 10.486874999999998  10.223214285714286 10.693124999999998  C 10.334821428571427 10.899375  10.485491071428573 11.137500000000001  10.675223214285714 11.4075  C 10.864955357142858 11.677499999999998  11.0546875 11.889374999999998  11.244419642857142 12.043125  C 11.434151785714286 12.196874999999999  11.668526785714286 12.328124999999998  11.947544642857142 12.436875  C 12.2265625 12.545625000000001  12.529761904761905 12.6  12.857142857142858 12.6  L 15.714285714285714 12.6  L 15.714285714285714 10.440000000000001  C 15.714285714285714 10.335  15.747767857142858 10.24875  15.814732142857142 10.18125  C 15.881696428571427 10.11375  15.967261904761905 10.080000000000002  16.071428571428573 10.080000000000002  C 16.160714285714285 10.080000000000002  16.25 10.1175  16.339285714285715 10.192499999999999  L 19.899553571428573 13.78125  Z M 19.899553571428573 3.701249999999999  C 19.966517857142858 3.76875  20 3.854999999999999  20 3.9599999999999995  C 20 4.0649999999999995  19.966517857142858 4.151249999999999  19.899553571428573 4.21875  L 16.328125 7.81875  C 16.261160714285715 7.8862499999999995  16.17559523809524 7.919999999999999  16.071428571428573 7.919999999999999  C 15.974702380952383 7.919999999999999  15.890997023809526 7.8843749999999995  15.8203125 7.813125  C 15.749627976190476 7.741874999999999  15.714285714285714 7.657499999999998  15.714285714285714 7.5600000000000005  L 15.714285714285714 5.4  L 12.857142857142858 5.4  C 12.5 5.4  12.176339285714286 5.45625  11.886160714285714 5.56875  C 11.595982142857142 5.68125  11.339285714285715 5.85  11.116071428571427 6.075  C 10.892857142857144 6.3  10.703125000000002 6.530625  10.546875 6.766875000000001  C 10.390625000000002 7.003125  10.223214285714286 7.293749999999999  10.044642857142858 7.638749999999999  C 9.80654761904762 8.10375  9.51636904761905 8.745000000000001  9.174107142857142 9.5625  C 8.958333333333334 10.057500000000001  8.77418154761905 10.473749999999999  8.621651785714286 10.81125  C 8.469122023809524 11.14875  8.268229166666668 11.5425  8.018973214285714 11.9925  C 7.769717261904763 12.442499999999999  7.531622023809525 12.817499999999999  7.3046875 13.1175  C 7.077752976190476 13.417499999999999  6.802455357142857 13.72875  6.478794642857143 14.05125  C 6.155133928571429 14.373750000000001  5.8203125 14.630624999999998  5.474330357142857 14.821875  C 5.128348214285715 15.013125  4.732142857142858 15.170625  4.285714285714286 15.294375  C 3.8392857142857144 15.418125  3.363095238095238 15.48  2.8571428571428568 15.48  L 0.3571428571428571 15.48  C 0.25297619047619047 15.48  0.1674107142857143 15.446250000000001  0.10044642857142858 15.37875  C 0.033482142857142856 15.31125  0 15.225  0 15.12  L 0 12.959999999999999  C 0 12.854999999999999  0.033482142857142856 12.768749999999999  0.10044642857142858 12.701249999999998  C 0.1674107142857143 12.633750000000001  0.25297619047619047 12.6  0.3571428571428571 12.6  L 2.8571428571428568 12.6  C 3.2142857142857144 12.6  3.5379464285714284 12.543750000000001  3.828125 12.43125  C 4.118303571428571 12.31875  4.375 12.15  4.598214285714286 11.924999999999999  C 4.821428571428571 11.700000000000001  5.0111607142857135 11.469375  5.1674107142857135 11.233125  C 5.3236607142857135 10.996875000000001  5.491071428571429 10.706249999999999  5.669642857142857 10.361250000000002  C 5.907738095238095 9.89625  6.197916666666668 9.254999999999999  6.540178571428571 8.4375  C 6.755952380952381 7.942500000000001  6.940104166666668 7.526249999999999  7.092633928571429 7.188750000000001  C 7.245163690476192 6.85125  7.446056547619049 6.4575000000000005  7.6953125 6.0075  C 7.9445684523809526 5.557499999999999  8.182663690476192 5.182499999999999  8.409598214285714 4.8825  C 8.636532738095239 4.582499999999999  8.911830357142858 4.271249999999998  9.235491071428571 3.9487499999999995  C 9.559151785714286 3.6262499999999993  9.893973214285714 3.369374999999999  10.239955357142858 3.178124999999999  C 10.5859375 2.9868749999999995  10.982142857142858 2.8293750000000006  11.428571428571427 2.7056249999999995  C 11.875 2.581875  12.351190476190476 2.5200000000000005  12.857142857142858 2.5200000000000005  L 15.714285714285714 2.5200000000000005  L 15.714285714285714 0.3600000000000003  C 15.714285714285714 0.2549999999999979  15.747767857142858 0.1687500000000004  15.814732142857142 0.10124999999999984  C 15.881696428571427 0.03374999999999928  15.967261904761905 0  16.071428571428573 0  C 16.160714285714285 0  16.25 0.03749999999999987  16.339285714285715 0.1124999999999996  L 19.899553571428573 3.701249999999999  Z " fill-rule="nonzero" fill="rgba(99, 161, 3, 1)" stroke="none" transform="matrix(1 0 0 1 2801 901 )" class="fill" />
    <path d="M 2.8571428571428568 2.5200000000000005  C 4.717261904761905 2.5200000000000005  6.242559523809525 3.3637500000000005  7.4330357142857135 5.0512500000000005  C 6.986607142857143 5.741249999999998  6.476934523809525 6.764999999999999  5.904017857142857 8.1225  C 5.740327380952381 7.785  5.602678571428572 7.513125  5.491071428571429 7.306874999999999  C 5.3794642857142865 7.100624999999999  5.228794642857143 6.8625  5.0390625 6.592499999999999  C 4.849330357142858 6.322499999999999  4.659598214285715 6.110624999999998  4.469866071428571 5.956875  C 4.280133928571429 5.803125  4.045758928571429 5.671874999999997  3.7667410714285716 5.563125  C 3.4877232142857144 5.454374999999999  3.1845238095238098 5.4  2.8571428571428568 5.4  L 0.3571428571428571 5.4  C 0.25297619047619047 5.4  0.1674107142857143 5.366249999999999  0.10044642857142858 5.298750000000001  C 0.033482142857142856 5.23125  0 5.144999999999999  0 5.040000000000001  L 0 2.880000000000001  C 0 2.774999999999998  0.033482142857142856 2.6887500000000006  0.10044642857142858 2.62125  C 0.1674107142857143 2.5537499999999995  0.25297619047619047 2.5200000000000005  0.3571428571428571 2.5200000000000005  L 2.8571428571428568 2.5200000000000005  Z " stroke-width="0" stroke-dasharray="0" stroke="rgba(255, 255, 255, 0)" fill="none" transform="matrix(1 0 0 1 2801 901 )" class="stroke" mask="url(#Clip144)" />
    <path d="M 19.899553571428573 13.78125  C 19.966517857142858 13.84875  20 13.934999999999999  20 14.040000000000001  C 20 14.145  19.966517857142858 14.231250000000001  19.899553571428573 14.298750000000002  L 16.328125 17.89875  C 16.261160714285715 17.966250000000002  16.17559523809524 18  16.071428571428573 18  C 15.974702380952383 18  15.890997023809526 17.964374999999997  15.8203125 17.893124999999998  C 15.749627976190476 17.821875  15.714285714285714 17.7375  15.714285714285714 17.64  L 15.714285714285714 15.48  C 15.476190476190476 15.48  15.159970238095239 15.481875  14.765625 15.485625  C 14.371279761904763 15.489374999999999  14.069940476190476 15.493125000000003  13.861607142857142 15.496875000000001  C 13.653273809523812 15.500625  13.381696428571427 15.496875000000001  13.046875 15.485625  C 12.712053571428573 15.474374999999998  12.447916666666668 15.455625  12.254464285714286 15.429375  C 12.061011904761905 15.403125  11.822916666666668 15.363750000000001  11.540178571428573 15.31125  C 11.257440476190476 15.25875  11.023065476190476 15.189375  10.837053571428573 15.103125  C 10.651041666666668 15.016874999999999  10.435267857142858 14.909999999999998  10.189732142857142 14.7825  C 9.944196428571429 14.655  9.724702380952381 14.504999999999999  9.53125 14.3325  C 9.33779761904762 14.160000000000002  9.133184523809526 13.959375  8.917410714285714 13.730625  C 8.701636904761905 13.501874999999998  8.493303571428571 13.241249999999999  8.292410714285714 12.94875  C 8.73139880952381 12.25125  9.237351190476192 11.227500000000001  9.810267857142858 9.877500000000001  C 9.973958333333334 10.215  10.111607142857142 10.486874999999998  10.223214285714286 10.693124999999998  C 10.334821428571427 10.899375  10.485491071428573 11.137500000000001  10.675223214285714 11.4075  C 10.864955357142858 11.677499999999998  11.0546875 11.889374999999998  11.244419642857142 12.043125  C 11.434151785714286 12.196874999999999  11.668526785714286 12.328124999999998  11.947544642857142 12.436875  C 12.2265625 12.545625000000001  12.529761904761905 12.6  12.857142857142858 12.6  L 15.714285714285714 12.6  L 15.714285714285714 10.440000000000001  C 15.714285714285714 10.335  15.747767857142858 10.24875  15.814732142857142 10.18125  C 15.881696428571427 10.11375  15.967261904761905 10.080000000000002  16.071428571428573 10.080000000000002  C 16.160714285714285 10.080000000000002  16.25 10.1175  16.339285714285715 10.192499999999999  L 19.899553571428573 13.78125  Z " stroke-width="0" stroke-dasharray="0" stroke="rgba(255, 255, 255, 0)" fill="none" transform="matrix(1 0 0 1 2801 901 )" class="stroke" mask="url(#Clip144)" />
    <path d="M 19.899553571428573 3.701249999999999  C 19.966517857142858 3.76875  20 3.854999999999999  20 3.9599999999999995  C 20 4.0649999999999995  19.966517857142858 4.151249999999999  19.899553571428573 4.21875  L 16.328125 7.81875  C 16.261160714285715 7.8862499999999995  16.17559523809524 7.919999999999999  16.071428571428573 7.919999999999999  C 15.974702380952383 7.919999999999999  15.890997023809526 7.8843749999999995  15.8203125 7.813125  C 15.749627976190476 7.741874999999999  15.714285714285714 7.657499999999998  15.714285714285714 7.5600000000000005  L 15.714285714285714 5.4  L 12.857142857142858 5.4  C 12.5 5.4  12.176339285714286 5.45625  11.886160714285714 5.56875  C 11.595982142857142 5.68125  11.339285714285715 5.85  11.116071428571427 6.075  C 10.892857142857144 6.3  10.703125000000002 6.530625  10.546875 6.766875000000001  C 10.390625000000002 7.003125  10.223214285714286 7.293749999999999  10.044642857142858 7.638749999999999  C 9.80654761904762 8.10375  9.51636904761905 8.745000000000001  9.174107142857142 9.5625  C 8.958333333333334 10.057500000000001  8.77418154761905 10.473749999999999  8.621651785714286 10.81125  C 8.469122023809524 11.14875  8.268229166666668 11.5425  8.018973214285714 11.9925  C 7.769717261904763 12.442499999999999  7.531622023809525 12.817499999999999  7.3046875 13.1175  C 7.077752976190476 13.417499999999999  6.802455357142857 13.72875  6.478794642857143 14.05125  C 6.155133928571429 14.373750000000001  5.8203125 14.630624999999998  5.474330357142857 14.821875  C 5.128348214285715 15.013125  4.732142857142858 15.170625  4.285714285714286 15.294375  C 3.8392857142857144 15.418125  3.363095238095238 15.48  2.8571428571428568 15.48  L 0.3571428571428571 15.48  C 0.25297619047619047 15.48  0.1674107142857143 15.446250000000001  0.10044642857142858 15.37875  C 0.033482142857142856 15.31125  0 15.225  0 15.12  L 0 12.959999999999999  C 0 12.854999999999999  0.033482142857142856 12.768749999999999  0.10044642857142858 12.701249999999998  C 0.1674107142857143 12.633750000000001  0.25297619047619047 12.6  0.3571428571428571 12.6  L 2.8571428571428568 12.6  C 3.2142857142857144 12.6  3.5379464285714284 12.543750000000001  3.828125 12.43125  C 4.118303571428571 12.31875  4.375 12.15  4.598214285714286 11.924999999999999  C 4.821428571428571 11.700000000000001  5.0111607142857135 11.469375  5.1674107142857135 11.233125  C 5.3236607142857135 10.996875000000001  5.491071428571429 10.706249999999999  5.669642857142857 10.361250000000002  C 5.907738095238095 9.89625  6.197916666666668 9.254999999999999  6.540178571428571 8.4375  C 6.755952380952381 7.942500000000001  6.940104166666668 7.526249999999999  7.092633928571429 7.188750000000001  C 7.245163690476192 6.85125  7.446056547619049 6.4575000000000005  7.6953125 6.0075  C 7.9445684523809526 5.557499999999999  8.182663690476192 5.182499999999999  8.409598214285714 4.8825  C 8.636532738095239 4.582499999999999  8.911830357142858 4.271249999999998  9.235491071428571 3.9487499999999995  C 9.559151785714286 3.6262499999999993  9.893973214285714 3.369374999999999  10.239955357142858 3.178124999999999  C 10.5859375 2.9868749999999995  10.982142857142858 2.8293750000000006  11.428571428571427 2.7056249999999995  C 11.875 2.581875  12.351190476190476 2.5200000000000005  12.857142857142858 2.5200000000000005  L 15.714285714285714 2.5200000000000005  L 15.714285714285714 0.3600000000000003  C 15.714285714285714 0.2549999999999979  15.747767857142858 0.1687500000000004  15.814732142857142 0.10124999999999984  C 15.881696428571427 0.03374999999999928  15.967261904761905 0  16.071428571428573 0  C 16.160714285714285 0  16.25 0.03749999999999987  16.339285714285715 0.1124999999999996  L 19.899553571428573 3.701249999999999  Z " stroke-width="0" stroke-dasharray="0" stroke="rgba(255, 255, 255, 0)" fill="none" transform="matrix(1 0 0 1 2801 901 )" class="stroke" mask="url(#Clip144)" />
  </g>
</svg>