<?xml version="1.0" encoding="utf-8"?>
<svg version="1.1" xmlns:xlink="http://www.w3.org/1999/xlink" width="20px" height="21px" preserveAspectRatio="xMidYMin meet" viewBox="712 3830 18 21" xmlns="http://www.w3.org/2000/svg">
  <defs>
    <mask fill="white" id="Clip643">
      <path d="M 707 3858  L 735 3858  L 735 3885  L 707 3885  Z M 707 3827  L 735 3827  L 735 3916  L 707 3916  Z " fill-rule="evenodd" />
    </mask>
  </defs>
  <path d="M 721 3858  L 721 3839  M 721 3885  L 721 3900  " stroke-width="2" stroke-dasharray="0" stroke="rgba(88, 0, 170, 1)" fill="none" class="stroke" />
  <path d="M 721 3837  A 3.5 3.5 0 0 0 717.5 3840.5 A 3.5 3.5 0 0 0 721 3844 A 3.5 3.5 0 0 0 724.5 3840.5 A 3.5 3.5 0 0 0 721 3837 Z M 713.4 3899  L 721 3906  L 728.6 3899  L 713.4 3899  Z " fill-rule="nonzero" fill="rgba(88, 0, 170, 1)" stroke="none" class="fill" mask="url(#Clip643)" />
</svg>