<?xml version="1.0" encoding="utf-8"?>
<svg version="1.1" xmlns:xlink="http://www.w3.org/1999/xlink" width="84px" height="10px" preserveAspectRatio="xMinYMid meet" viewBox="603 4043 84 8" xmlns="http://www.w3.org/2000/svg">
  <defs>
    <mask fill="white" id="Clip153">
      <path d="M 628 4034  L 656 4034  L 656 4061  L 628 4061  Z M 593 4034  L 692 4034  L 692 4061  L 593 4061  Z " fill-rule="evenodd" />
    </mask>
  </defs>
  <path d="M 628 4047  L 609 4047  M 656 4047  L 680 4047  " stroke-width="2" stroke-dasharray="0" stroke="rgba(88, 0, 170, 1)" fill="none" class="stroke" />
  <path d="M 678.5 4043.5  A 3.5 3.5 0 0 0 675 4047 A 3.5 3.5 0 0 0 678.5 4050.5 A 3.5 3.5 0 0 0 682 4047 A 3.5 3.5 0 0 0 678.5 4043.5 Z M 610 4039.4  L 603 4047  L 610 4054.6  L 610 4039.4  Z " fill-rule="nonzero" fill="rgba(88, 0, 170, 1)" stroke="none" class="fill" mask="url(#Clip153)" />
</svg>