<?xml version="1.0" encoding="utf-8"?>
<svg version="1.1" xmlns:xlink="http://www.w3.org/1999/xlink" width="10px" height="57px" preserveAspectRatio="xMidYMin meet" viewBox="728 4077 8 57" xmlns="http://www.w3.org/2000/svg">
  <defs>
    <mask fill="white" id="Clip128">
      <path d="M 716.5 4090  L 747.5 4090  L 747.5 4117  L 716.5 4117  Z M 716.5 4067  L 747.5 4067  L 747.5 4139  L 716.5 4139  Z " fill-rule="evenodd" />
    </mask>
  </defs>
  <path d="M 732 4090  L 732 4079  M 732 4117  L 732 4123  " stroke-width="2" stroke-dasharray="0" stroke="rgba(88, 0, 170, 1)" fill="none" class="stroke" />
  <path d="M 732 4077  A 3.5 3.5 0 0 0 728.5 4080.5 A 3.5 3.5 0 0 0 732 4084 A 3.5 3.5 0 0 0 735.5 4080.5 A 3.5 3.5 0 0 0 732 4077 Z M 724.4 4122  L 732 4129  L 739.6 4122  L 724.4 4122  Z " fill-rule="nonzero" fill="rgba(88, 0, 170, 1)" stroke="none" class="fill" mask="url(#Clip128)" />
</svg>