<?xml version="1.0" encoding="utf-8"?>
<svg version="1.1" xmlns:xlink="http://www.w3.org/1999/xlink" width="21px" height="20px" preserveAspectRatio="xMinYMid meet" viewBox="207 6244 21 18" xmlns="http://www.w3.org/2000/svg">
  <path d="M 216 6253  L 317 6253  A 5 5 0 0 1 322 6258 L 322 6271  A 5 5 0 0 0 327 6276 L 424 6276  " stroke-width="2" stroke-dasharray="0" stroke="rgba(88, 0, 170, 1)" fill="none" class="stroke" />
  <path d="M 217.5 6249.5  A 3.5 3.5 0 0 0 214 6253 A 3.5 3.5 0 0 0 217.5 6256.5 A 3.5 3.5 0 0 0 221 6253 A 3.5 3.5 0 0 0 217.5 6249.5 Z M 423 6283.6  L 430 6276  L 423 6268.4  L 423 6283.6  Z " fill-rule="nonzero" fill="rgba(88, 0, 170, 1)" stroke="none" class="fill" />
</svg>