<?xml version="1.0" encoding="utf-8"?>
<svg version="1.1" xmlns:xlink="http://www.w3.org/1999/xlink" width="21px" height="20px" preserveAspectRatio="xMinYMid meet" viewBox="799 6695 21 18" xmlns="http://www.w3.org/2000/svg">
  <path d="M 811 6704  L 696 6704  A 5 5 0 0 1 691 6699 L 691 6546  A 5 5 0 0 0 686 6541 L 576 6541  " stroke-width="2" stroke-dasharray="0" stroke="rgba(88, 0, 170, 1)" fill="none" class="stroke" />
  <path d="M 809.5 6700.5  A 3.5 3.5 0 0 0 806 6704 A 3.5 3.5 0 0 0 809.5 6707.5 A 3.5 3.5 0 0 0 813 6704 A 3.5 3.5 0 0 0 809.5 6700.5 Z M 577 6533.4  L 570 6541  L 577 6548.6  L 577 6533.4  Z " fill-rule="nonzero" fill="rgba(88, 0, 170, 1)" stroke="none" class="fill" />
</svg>