<?xml version="1.0" encoding="utf-8"?>
<svg version="1.1" xmlns:xlink="http://www.w3.org/1999/xlink" width="20px" height="20px" preserveAspectRatio="xMinYMid meet" viewBox="209 6965 20 18" xmlns="http://www.w3.org/2000/svg">
  <path d="M 428 6928  L 327 6928  A 5 5 0 0 0 322 6933 L 322 6969  A 5 5 0 0 1 317 6974 L 220 6974  " stroke-width="2" stroke-dasharray="0" stroke="rgba(88, 0, 170, 1)" fill="none" class="stroke" />
  <path d="M 426.5 6924.5  A 3.5 3.5 0 0 0 423 6928 A 3.5 3.5 0 0 0 426.5 6931.5 A 3.5 3.5 0 0 0 430 6928 A 3.5 3.5 0 0 0 426.5 6924.5 Z M 221 6966.4  L 214 6974  L 221 6981.6  L 221 6966.4  Z " fill-rule="nonzero" fill="rgba(88, 0, 170, 1)" stroke="none" class="fill" />
</svg>