<?xml version="1.0" encoding="utf-8"?>
<svg version="1.1" xmlns:xlink="http://www.w3.org/1999/xlink" width="20px" height="20px" preserveAspectRatio="xMinYMid meet" viewBox="840 3982 20 18" xmlns="http://www.w3.org/2000/svg">
  <path d="M 793 3926  L 814 3926  A 5 5 0 0 1 819 3931 L 819 3986  A 5 5 0 0 0 824 3991 L 849 3991  " stroke-width="2" stroke-dasharray="0" stroke="rgba(88, 0, 170, 1)" fill="none" class="stroke" />
  <path d="M 794.5 3922.5  A 3.5 3.5 0 0 0 791 3926 A 3.5 3.5 0 0 0 794.5 3929.5 A 3.5 3.5 0 0 0 798 3926 A 3.5 3.5 0 0 0 794.5 3922.5 Z M 848 3998.6  L 855 3991  L 848 3983.4  L 848 3998.6  Z " fill-rule="nonzero" fill="rgba(88, 0, 170, 1)" stroke="none" class="fill" />
</svg>