<?xml version="1.0" encoding="utf-8"?>
<svg version="1.1" xmlns:xlink="http://www.w3.org/1999/xlink" width="21px" height="20px" preserveAspectRatio="xMinYMid meet" viewBox="926 5809 21 18" xmlns="http://www.w3.org/2000/svg">
  <defs>
    <mask fill="white" id="Clip324">
      <path d="M 949.5 5805  L 980.5 5805  L 980.5 5832  L 949.5 5832  Z M 923 5805  L 1006 5805  L 1006 5832  L 923 5832  Z " fill-rule="evenodd" />
    </mask>
  </defs>
  <path d="M 949.5 5818  L 935 5818  M 980.5 5818  L 990 5818  " stroke-width="2" stroke-dasharray="0" stroke="rgba(88, 0, 170, 1)" fill="none" class="stroke" />
  <path d="M 936.5 5814.5  A 3.5 3.5 0 0 0 933 5818 A 3.5 3.5 0 0 0 936.5 5821.5 A 3.5 3.5 0 0 0 940 5818 A 3.5 3.5 0 0 0 936.5 5814.5 Z M 989 5825.6  L 996 5818  L 989 5810.4  L 989 5825.6  Z " fill-rule="nonzero" fill="rgba(88, 0, 170, 1)" stroke="none" class="fill" mask="url(#Clip324)" />
</svg>