<?xml version="1.0" encoding="utf-8"?>
<svg version="1.1" xmlns:xlink="http://www.w3.org/1999/xlink" width="20px" height="20px" preserveAspectRatio="xMinYMid meet" viewBox="150 6092 20 18" xmlns="http://www.w3.org/2000/svg">
  <defs>
    <mask fill="white" id="Clip664">
      <path d="M 146 6059  L 174 6059  L 174 6086  L 146 6086  Z M 146 6029  L 174 6029  L 174 6116  L 146 6116  Z " fill-rule="evenodd" />
    </mask>
  </defs>
  <path d="M 160 6059  L 160 6041  M 160 6086  L 160 6100  " stroke-width="2" stroke-dasharray="0" stroke="rgba(88, 0, 170, 1)" fill="none" class="stroke" />
  <path d="M 160 6039  A 3.5 3.5 0 0 0 156.5 6042.5 A 3.5 3.5 0 0 0 160 6046 A 3.5 3.5 0 0 0 163.5 6042.5 A 3.5 3.5 0 0 0 160 6039 Z M 152.4 6099  L 160 6106  L 167.6 6099  L 152.4 6099  Z " fill-rule="nonzero" fill="rgba(88, 0, 170, 1)" stroke="none" class="fill" mask="url(#Clip664)" />
</svg>