<?xml version="1.0" encoding="utf-8"?>
<svg version="1.1" xmlns:xlink="http://www.w3.org/1999/xlink" width="10px" height="127px" preserveAspectRatio="xMidYMin meet" viewBox="687 6582 8 127" xmlns="http://www.w3.org/2000/svg">
  <path d="M 811 6704  L 696 6704  A 5 5 0 0 1 691 6699 L 691 6592  A 5 5 0 0 0 686 6587 L 576 6587  " stroke-width="2" stroke-dasharray="0" stroke="rgba(88, 0, 170, 1)" fill="none" class="stroke" />
  <path d="M 809.5 6700.5  A 3.5 3.5 0 0 0 806 6704 A 3.5 3.5 0 0 0 809.5 6707.5 A 3.5 3.5 0 0 0 813 6704 A 3.5 3.5 0 0 0 809.5 6700.5 Z M 577 6579.4  L 570 6587  L 577 6594.6  L 577 6579.4  Z " fill-rule="nonzero" fill="rgba(88, 0, 170, 1)" stroke="none" class="fill" />
</svg>