<?xml version="1.0" encoding="utf-8"?>
<svg version="1.1" xmlns:xlink="http://www.w3.org/1999/xlink" width="276px" height="10px" preserveAspectRatio="xMinYMid meet" viewBox="351 1828 276 8" xmlns="http://www.w3.org/2000/svg">
  <defs>
    <mask fill="white" id="Clip64">
      <path d="M 471.5 1819  L 502.5 1819  L 502.5 1846  L 471.5 1846  Z M 341 1819  L 632 1819  L 632 1846  L 341 1846  Z " fill-rule="evenodd" />
    </mask>
  </defs>
  <path d="M 471.5 1832  L 353 1832  M 502.5 1832  L 616 1832  " stroke-width="2" stroke-dasharray="0" stroke="rgba(88, 0, 170, 1)" fill="none" class="stroke" />
  <path d="M 354.5 1828.5  A 3.5 3.5 0 0 0 351 1832 A 3.5 3.5 0 0 0 354.5 1835.5 A 3.5 3.5 0 0 0 358 1832 A 3.5 3.5 0 0 0 354.5 1828.5 Z M 615 1839.6  L 622 1832  L 615 1824.4  L 615 1839.6  Z " fill-rule="nonzero" fill="rgba(88, 0, 170, 1)" stroke="none" class="fill" mask="url(#Clip64)" />
</svg>