<?xml version="1.0" encoding="utf-8"?>
<svg version="1.1" xmlns:xlink="http://www.w3.org/1999/xlink" width="20px" height="21px" preserveAspectRatio="xMidYMin meet" viewBox="1057 1841 18 21" xmlns="http://www.w3.org/2000/svg">
  <defs>
    <mask fill="white" id="Clip274">
      <path d="M 1043 1867  L 1089 1867  L 1089 1894  L 1043 1894  Z M 1043 1838  L 1089 1838  L 1089 1922  L 1043 1922  Z " fill-rule="evenodd" />
    </mask>
  </defs>
  <path d="M 1066 1867  L 1066 1850  M 1066 1894  L 1066 1906  " stroke-width="2" stroke-dasharray="0" stroke="rgba(88, 0, 170, 1)" fill="none" class="stroke" />
  <path d="M 1066 1848  A 3.5 3.5 0 0 0 1062.5 1851.5 A 3.5 3.5 0 0 0 1066 1855 A 3.5 3.5 0 0 0 1069.5 1851.5 A 3.5 3.5 0 0 0 1066 1848 Z M 1058.4 1905  L 1066 1912  L 1073.6 1905  L 1058.4 1905  Z " fill-rule="nonzero" fill="rgba(88, 0, 170, 1)" stroke="none" class="fill" mask="url(#Clip274)" />
</svg>