<?xml version="1.0" encoding="utf-8"?>
<svg version="1.1" xmlns:xlink="http://www.w3.org/1999/xlink" width="10px" height="138px" preserveAspectRatio="xMidYMin meet" viewBox="297 1862 8 138" xmlns="http://www.w3.org/2000/svg">
  <defs>
    <mask fill="white" id="Clip276">
      <path d="M 287 1915  L 315 1915  L 315 1942  L 287 1942  Z M 287 1852  L 315 1852  L 315 2005  L 287 2005  Z " fill-rule="evenodd" />
    </mask>
  </defs>
  <path d="M 301 1915  L 301 1864  M 301 1942  L 301 1989  " stroke-width="2" stroke-dasharray="0" stroke="rgba(88, 0, 170, 1)" fill="none" class="stroke" />
  <path d="M 301 1862  A 3.5 3.5 0 0 0 297.5 1865.5 A 3.5 3.5 0 0 0 301 1869 A 3.5 3.5 0 0 0 304.5 1865.5 A 3.5 3.5 0 0 0 301 1862 Z M 293.4 1988  L 301 1995  L 308.6 1988  L 293.4 1988  Z " fill-rule="nonzero" fill="rgba(88, 0, 170, 1)" stroke="none" class="fill" mask="url(#Clip276)" />
</svg>