<?xml version="1.0" encoding="utf-8"?>
<svg version="1.1" xmlns:xlink="http://www.w3.org/1999/xlink" width="10px" height="35px" preserveAspectRatio="xMidYMin meet" viewBox="864 1935 8 35" xmlns="http://www.w3.org/2000/svg">
  <path d="M 1006 1965  L 873 1965  A 5 5 0 0 1 868 1960 L 868 1945  A 5 5 0 0 0 863 1940 L 735 1940  " stroke-width="2" stroke-dasharray="0" stroke="rgba(88, 0, 170, 1)" fill="none" class="stroke" />
  <path d="M 1004.5 1961.5  A 3.5 3.5 0 0 0 1001 1965 A 3.5 3.5 0 0 0 1004.5 1968.5 A 3.5 3.5 0 0 0 1008 1965 A 3.5 3.5 0 0 0 1004.5 1961.5 Z M 736 1932.4  L 729 1940  L 736 1947.6  L 736 1932.4  Z " fill-rule="nonzero" fill="rgba(88, 0, 170, 1)" stroke="none" class="fill" />
</svg>