<?xml version="1.0" encoding="utf-8"?>
<svg version="1.1" xmlns:xlink="http://www.w3.org/1999/xlink" width="141px" height="10px" preserveAspectRatio="xMinYMid meet" viewBox="359 1961 141 8" xmlns="http://www.w3.org/2000/svg">
  <path d="M 629 1989  L 500 1989  A 5 5 0 0 1 495 1984 L 495 1970  A 5 5 0 0 0 490 1965 L 365 1965  " stroke-width="2" stroke-dasharray="0" stroke="rgba(88, 0, 170, 1)" fill="none" class="stroke" />
  <path d="M 627.5 1985.5  A 3.5 3.5 0 0 0 624 1989 A 3.5 3.5 0 0 0 627.5 1992.5 A 3.5 3.5 0 0 0 631 1989 A 3.5 3.5 0 0 0 627.5 1985.5 Z M 366 1957.4  L 359 1965  L 366 1972.6  L 366 1957.4  Z " fill-rule="nonzero" fill="rgba(88, 0, 170, 1)" stroke="none" class="fill" />
</svg>