<?xml version="1.0" encoding="utf-8"?>
<svg version="1.1" xmlns:xlink="http://www.w3.org/1999/xlink" width="20px" height="20px" preserveAspectRatio="xMinYMid meet" viewBox="724 2110 20 18" xmlns="http://www.w3.org/2000/svg">
  <path d="M 1006 2095  L 873 2095  A 5 5 0 0 0 868 2100 L 868 2114  A 5 5 0 0 1 863 2119 L 735 2119  " stroke-width="2" stroke-dasharray="0" stroke="rgba(88, 0, 170, 1)" fill="none" class="stroke" />
  <path d="M 1004.5 2091.5  A 3.5 3.5 0 0 0 1001 2095 A 3.5 3.5 0 0 0 1004.5 2098.5 A 3.5 3.5 0 0 0 1008 2095 A 3.5 3.5 0 0 0 1004.5 2091.5 Z M 736 2111.4  L 729 2119  L 736 2126.6  L 736 2111.4  Z " fill-rule="nonzero" fill="rgba(88, 0, 170, 1)" stroke="none" class="fill" />
</svg>