<?xml version="1.0" encoding="utf-8"?>
<svg version="1.1" xmlns:xlink="http://www.w3.org/1999/xlink" width="141px" height="10px" preserveAspectRatio="xMinYMid meet" viewBox="359 2091 141 8" xmlns="http://www.w3.org/2000/svg">
  <path d="M 629 2070  L 500 2070  A 5 5 0 0 0 495 2075 L 495 2090  A 5 5 0 0 1 490 2095 L 365 2095  " stroke-width="2" stroke-dasharray="0" stroke="rgba(88, 0, 170, 1)" fill="none" class="stroke" />
  <path d="M 627.5 2066.5  A 3.5 3.5 0 0 0 624 2070 A 3.5 3.5 0 0 0 627.5 2073.5 A 3.5 3.5 0 0 0 631 2070 A 3.5 3.5 0 0 0 627.5 2066.5 Z M 366 2087.4  L 359 2095  L 366 2102.6  L 366 2087.4  Z " fill-rule="nonzero" fill="rgba(88, 0, 170, 1)" stroke="none" class="fill" />
</svg>