<?xml version="1.0" encoding="utf-8"?>
<svg version="1.1" xmlns:xlink="http://www.w3.org/1999/xlink" width="10px" height="34px" preserveAspectRatio="xMidYMin meet" viewBox="491 2090 8 34" xmlns="http://www.w3.org/2000/svg">
  <path d="M 629 2119  L 500 2119  A 5 5 0 0 1 495 2114 L 495 2100  A 5 5 0 0 0 490 2095 L 365 2095  " stroke-width="2" stroke-dasharray="0" stroke="rgba(88, 0, 170, 1)" fill="none" class="stroke" />
  <path d="M 627.5 2115.5  A 3.5 3.5 0 0 0 624 2119 A 3.5 3.5 0 0 0 627.5 2122.5 A 3.5 3.5 0 0 0 631 2119 A 3.5 3.5 0 0 0 627.5 2115.5 Z M 366 2087.4  L 359 2095  L 366 2102.6  L 366 2087.4  Z " fill-rule="nonzero" fill="rgba(88, 0, 170, 1)" stroke="none" class="fill" />
</svg>