<?xml version="1.0" encoding="utf-8"?>
<svg version="1.1" xmlns:xlink="http://www.w3.org/1999/xlink" width="10px" height="65px" preserveAspectRatio="xMidYMin meet" viewBox="297 2297 8 65" xmlns="http://www.w3.org/2000/svg">
  <defs>
    <mask fill="white" id="Clip191">
      <path d="M 287 2314  L 315 2314  L 315 2341  L 287 2341  Z M 287 2287  L 315 2287  L 315 2367  L 287 2367  Z " fill-rule="evenodd" />
    </mask>
  </defs>
  <path d="M 301 2314  L 301 2299  M 301 2341  L 301 2351  " stroke-width="2" stroke-dasharray="0" stroke="rgba(88, 0, 170, 1)" fill="none" class="stroke" />
  <path d="M 301 2297  A 3.5 3.5 0 0 0 297.5 2300.5 A 3.5 3.5 0 0 0 301 2304 A 3.5 3.5 0 0 0 304.5 2300.5 A 3.5 3.5 0 0 0 301 2297 Z M 293.4 2350  L 301 2357  L 308.6 2350  L 293.4 2350  Z " fill-rule="nonzero" fill="rgba(88, 0, 170, 1)" stroke="none" class="fill" mask="url(#Clip191)" />
</svg>