<?xml version="1.0" encoding="utf-8"?>
<svg version="1.1" xmlns:xlink="http://www.w3.org/1999/xlink" width="21px" height="20px" preserveAspectRatio="xMinYMid meet" viewBox="237 2175 21 18" xmlns="http://www.w3.org/2000/svg">
  <defs>
    <mask fill="white" id="Clip280">
      <path d="M 172 2171  L 218 2171  L 218 2198  L 172 2198  Z M 128 2171  L 261 2171  L 261 2198  L 128 2198  Z " fill-rule="evenodd" />
    </mask>
  </defs>
  <path d="M 172 2184  L 144 2184  M 218 2184  L 249 2184  " stroke-width="2" stroke-dasharray="0" stroke="rgba(88, 0, 170, 1)" fill="none" class="stroke" />
  <path d="M 247.5 2180.5  A 3.5 3.5 0 0 0 244 2184 A 3.5 3.5 0 0 0 247.5 2187.5 A 3.5 3.5 0 0 0 251 2184 A 3.5 3.5 0 0 0 247.5 2180.5 Z M 145 2176.4  L 138 2184  L 145 2191.6  L 145 2176.4  Z " fill-rule="nonzero" fill="rgba(88, 0, 170, 1)" stroke="none" class="fill" mask="url(#Clip280)" />
</svg>