<?xml version="1.0" encoding="utf-8"?>
<svg version="1.1" xmlns:xlink="http://www.w3.org/1999/xlink" width="194px" height="10px" preserveAspectRatio="xMinYMid meet" viewBox="442 2507 194 8" xmlns="http://www.w3.org/2000/svg">
  <defs>
    <mask fill="white" id="Clip201">
      <path d="M 501 2498  L 573 2498  L 573 2525  L 501 2525  Z M 432 2498  L 641 2498  L 641 2525  L 432 2525  Z " fill-rule="evenodd" />
    </mask>
  </defs>
  <path d="M 501 2511  L 448 2511  M 573 2511  L 629 2511  " stroke-width="2" stroke-dasharray="0" stroke="rgba(88, 0, 170, 1)" fill="none" class="stroke" />
  <path d="M 627.5 2507.5  A 3.5 3.5 0 0 0 624 2511 A 3.5 3.5 0 0 0 627.5 2514.5 A 3.5 3.5 0 0 0 631 2511 A 3.5 3.5 0 0 0 627.5 2507.5 Z M 449 2503.4  L 442 2511  L 449 2518.6  L 449 2503.4  Z " fill-rule="nonzero" fill="rgba(88, 0, 170, 1)" stroke="none" class="fill" mask="url(#Clip201)" />
</svg>