<?xml version="1.0" encoding="utf-8"?>
<svg version="1.1" xmlns:xlink="http://www.w3.org/1999/xlink" width="10px" height="65px" preserveAspectRatio="xMidYMin meet" viewBox="297 2427 8 65" xmlns="http://www.w3.org/2000/svg">
  <defs>
    <mask fill="white" id="Clip82">
      <path d="M 287 2444  L 315 2444  L 315 2471  L 287 2471  Z M 287 2417  L 315 2417  L 315 2497  L 287 2497  Z " fill-rule="evenodd" />
    </mask>
  </defs>
  <path d="M 301 2444  L 301 2429  M 301 2471  L 301 2481  " stroke-width="2" stroke-dasharray="0" stroke="rgba(88, 0, 170, 1)" fill="none" class="stroke" />
  <path d="M 301 2427  A 3.5 3.5 0 0 0 297.5 2430.5 A 3.5 3.5 0 0 0 301 2434 A 3.5 3.5 0 0 0 304.5 2430.5 A 3.5 3.5 0 0 0 301 2427 Z M 293.4 2480  L 301 2487  L 308.6 2480  L 293.4 2480  Z " fill-rule="nonzero" fill="rgba(88, 0, 170, 1)" stroke="none" class="fill" mask="url(#Clip82)" />
</svg>