<?xml version="1.0" encoding="utf-8"?>
<svg version="1.1" xmlns:xlink="http://www.w3.org/1999/xlink" width="282px" height="10px" preserveAspectRatio="xMinYMid meet" viewBox="731 2637 282 8" xmlns="http://www.w3.org/2000/svg">
  <defs>
    <mask fill="white" id="Clip295">
      <path d="M 834 2628  L 906 2628  L 906 2655  L 834 2655  Z M 721 2628  L 1018 2628  L 1018 2655  L 721 2655  Z " fill-rule="evenodd" />
    </mask>
  </defs>
  <path d="M 834 2641  L 737 2641  M 906 2641  L 1006 2641  " stroke-width="2" stroke-dasharray="0" stroke="rgba(88, 0, 170, 1)" fill="none" class="stroke" />
  <path d="M 1004.5 2637.5  A 3.5 3.5 0 0 0 1001 2641 A 3.5 3.5 0 0 0 1004.5 2644.5 A 3.5 3.5 0 0 0 1008 2641 A 3.5 3.5 0 0 0 1004.5 2637.5 Z M 738 2633.4  L 731 2641  L 738 2648.6  L 738 2633.4  Z " fill-rule="nonzero" fill="rgba(88, 0, 170, 1)" stroke="none" class="fill" mask="url(#Clip295)" />
</svg>