<?xml version="1.0" encoding="utf-8"?>
<svg version="1.1" xmlns:xlink="http://www.w3.org/1999/xlink" width="335px" height="10px" preserveAspectRatio="xMinYMid meet" viewBox="351 2714 335 8" xmlns="http://www.w3.org/2000/svg">
  <defs>
    <mask fill="white" id="Clip302">
      <path d="M 503 2704  L 575 2704  L 575 2731  L 503 2731  Z M 341 2661  L 691 2661  L 691 2731  L 341 2731  Z " fill-rule="evenodd" />
    </mask>
  </defs>
  <path d="M 681 2673  L 681 2713  A 5 5 0 0 1 676 2718 L 357 2718  " stroke-width="2" stroke-dasharray="0" stroke="rgba(88, 0, 170, 1)" fill="none" class="stroke" mask="url(#Clip302)" />
  <path d="M 681 2671  A 3.5 3.5 0 0 0 677.5 2674.5 A 3.5 3.5 0 0 0 681 2678 A 3.5 3.5 0 0 0 684.5 2674.5 A 3.5 3.5 0 0 0 681 2671 Z M 358 2710.4  L 351 2718  L 358 2725.6  L 358 2710.4  Z " fill-rule="nonzero" fill="rgba(88, 0, 170, 1)" stroke="none" class="fill" mask="url(#Clip302)" />
</svg>