<?xml version="1.0" encoding="utf-8"?>
<svg version="1.1" xmlns:xlink="http://www.w3.org/1999/xlink" width="10px" height="74px" preserveAspectRatio="xMidYMin meet" viewBox="717 3993 8 74" xmlns="http://www.w3.org/2000/svg">
  <defs>
    <mask fill="white" id="Clip109">
      <path d="M 707 4014  L 735 4014  L 735 4041  L 707 4041  Z M 707 3983  L 735 3983  L 735 4072  L 707 4072  Z " fill-rule="evenodd" />
    </mask>
  </defs>
  <path d="M 721 4014  L 721 3995  M 721 4041  L 721 4056  " stroke-width="2" stroke-dasharray="0" stroke="rgba(88, 0, 170, 1)" fill="none" class="stroke" />
  <path d="M 721 3993  A 3.5 3.5 0 0 0 717.5 3996.5 A 3.5 3.5 0 0 0 721 4000 A 3.5 3.5 0 0 0 724.5 3996.5 A 3.5 3.5 0 0 0 721 3993 Z M 713.4 4055  L 721 4062  L 728.6 4055  L 713.4 4055  Z " fill-rule="nonzero" fill="rgba(88, 0, 170, 1)" stroke="none" class="fill" mask="url(#Clip109)" />
</svg>