<?xml version="1.0" encoding="utf-8"?>
<svg version="1.1" xmlns:xlink="http://www.w3.org/1999/xlink" width="43px" height="10px" preserveAspectRatio="xMinYMid meet" viewBox="1028 3921 43 8" xmlns="http://www.w3.org/2000/svg">
  <path d="M 997 3862  L 1028 3862  A 5 5 0 0 1 1033 3867 L 1033 3920  A 5 5 0 0 0 1038 3925 L 1065 3925  " stroke-width="2" stroke-dasharray="0" stroke="rgba(88, 0, 170, 1)" fill="none" class="stroke" />
  <path d="M 998.5 3858.5  A 3.5 3.5 0 0 0 995 3862 A 3.5 3.5 0 0 0 998.5 3865.5 A 3.5 3.5 0 0 0 1002 3862 A 3.5 3.5 0 0 0 998.5 3858.5 Z M 1064 3932.6  L 1071 3925  L 1064 3917.4  L 1064 3932.6  Z " fill-rule="nonzero" fill="rgba(88, 0, 170, 1)" stroke="none" class="fill" />
</svg>