<?xml version="1.0" encoding="utf-8"?>
<svg version="1.1" xmlns:xlink="http://www.w3.org/1999/xlink" width="41px" height="10px" preserveAspectRatio="xMinYMid meet" viewBox="814 4014 41 8" xmlns="http://www.w3.org/2000/svg">
  <path d="M 793 4082  L 814 4082  A 5 5 0 0 0 819 4077 L 819 4023  A 5 5 0 0 1 824 4018 L 849 4018  " stroke-width="2" stroke-dasharray="0" stroke="rgba(88, 0, 170, 1)" fill="none" class="stroke" />
  <path d="M 794.5 4078.5  A 3.5 3.5 0 0 0 791 4082 A 3.5 3.5 0 0 0 794.5 4085.5 A 3.5 3.5 0 0 0 798 4082 A 3.5 3.5 0 0 0 794.5 4078.5 Z M 848 4025.6  L 855 4018  L 848 4010.4  L 848 4025.6  Z " fill-rule="nonzero" fill="rgba(88, 0, 170, 1)" stroke="none" class="fill" />
</svg>