<?xml version="1.0" encoding="utf-8"?>
<svg version="1.1" xmlns:xlink="http://www.w3.org/1999/xlink" width="20px" height="20px" preserveAspectRatio="xMinYMid meet" viewBox="840 4052 20 18" xmlns="http://www.w3.org/2000/svg">
  <path d="M 793 4082  L 814.1597444089457 4082  A 5 5 0 0 0 819.1597444089457 4077 L 819.1597444089457 4066  A 5 5 0 0 1 824.1597444089457 4061 L 849 4061  " stroke-width="2" stroke-dasharray="0" stroke="rgba(88, 0, 170, 1)" fill="none" class="stroke" />
  <path d="M 794.5 4078.5  A 3.5 3.5 0 0 0 791 4082 A 3.5 3.5 0 0 0 794.5 4085.5 A 3.5 3.5 0 0 0 798 4082 A 3.5 3.5 0 0 0 794.5 4078.5 Z M 848 4068.6  L 855 4061  L 848 4053.4  L 848 4068.6  Z " fill-rule="nonzero" fill="rgba(88, 0, 170, 1)" stroke="none" class="fill" />
</svg>