<?xml version="1.0" encoding="utf-8"?>
<svg version="1.1" xmlns:xlink="http://www.w3.org/1999/xlink" width="43px" height="10px" preserveAspectRatio="xMinYMid meet" viewBox="1028 4077 43 8" xmlns="http://www.w3.org/2000/svg">
  <path d="M 997 4061  L 1028 4061  A 5 5 0 0 1 1033 4066 L 1033 4076  A 5 5 0 0 0 1038 4081 L 1065 4081  " stroke-width="2" stroke-dasharray="0" stroke="rgba(88, 0, 170, 1)" fill="none" class="stroke" />
  <path d="M 998.5 4057.5  A 3.5 3.5 0 0 0 995 4061 A 3.5 3.5 0 0 0 998.5 4064.5 A 3.5 3.5 0 0 0 1002 4061 A 3.5 3.5 0 0 0 998.5 4057.5 Z M 1064 4088.6  L 1071 4081  L 1064 4073.4  L 1064 4088.6  Z " fill-rule="nonzero" fill="rgba(88, 0, 170, 1)" stroke="none" class="fill" />
</svg>