<?xml version="1.0" encoding="utf-8"?>
<svg version="1.1" xmlns:xlink="http://www.w3.org/1999/xlink" width="20px" height="20px" preserveAspectRatio="xMinYMid meet" viewBox="598 4194 20 18" xmlns="http://www.w3.org/2000/svg">
  <defs>
    <mask fill="white" id="Clip114">
      <path d="M 628 4190  L 656 4190  L 656 4217  L 628 4217  Z M 593 4190  L 692 4190  L 692 4217  L 593 4217  Z " fill-rule="evenodd" />
    </mask>
  </defs>
  <path d="M 628 4203  L 609 4203  M 656 4203  L 680 4203  " stroke-width="2" stroke-dasharray="0" stroke="rgba(88, 0, 170, 1)" fill="none" class="stroke" />
  <path d="M 678.5 4199.5  A 3.5 3.5 0 0 0 675 4203 A 3.5 3.5 0 0 0 678.5 4206.5 A 3.5 3.5 0 0 0 682 4203 A 3.5 3.5 0 0 0 678.5 4199.5 Z M 610 4195.4  L 603 4203  L 610 4210.6  L 610 4195.4  Z " fill-rule="nonzero" fill="rgba(88, 0, 170, 1)" stroke="none" class="fill" mask="url(#Clip114)" />
</svg>