<?xml version="1.0" encoding="utf-8"?>
<svg version="1.1" xmlns:xlink="http://www.w3.org/1999/xlink" width="20px" height="20px" preserveAspectRatio="xMinYMid meet" viewBox="722 4271 20 18" xmlns="http://www.w3.org/2000/svg">
  <defs>
    <mask fill="white" id="Clip117">
      <path d="M 716.5 4246  L 747.5 4246  L 747.5 4273  L 716.5 4273  Z M 716.5 4223  L 747.5 4223  L 747.5 4295  L 716.5 4295  Z " fill-rule="evenodd" />
    </mask>
  </defs>
  <path d="M 732 4246  L 732 4235  M 732 4273  L 732 4279  " stroke-width="2" stroke-dasharray="0" stroke="rgba(88, 0, 170, 1)" fill="none" class="stroke" />
  <path d="M 732 4233  A 3.5 3.5 0 0 0 728.5 4236.5 A 3.5 3.5 0 0 0 732 4240 A 3.5 3.5 0 0 0 735.5 4236.5 A 3.5 3.5 0 0 0 732 4233 Z M 724.4 4278  L 732 4285  L 739.6 4278  L 724.4 4278  Z " fill-rule="nonzero" fill="rgba(88, 0, 170, 1)" stroke="none" class="fill" mask="url(#Clip117)" />
</svg>