<?xml version="1.0" encoding="utf-8"?>
<svg version="1.1" xmlns:xlink="http://www.w3.org/1999/xlink" width="20px" height="10px" preserveAspectRatio="xMinYMid meet" viewBox="70 5917 20 8" xmlns="http://www.w3.org/2000/svg">
  <defs>
    <mask fill="white" id="Clip235">
      <path d="M 59.5 5962  L 90.5 5962  L 90.5 5989  L 59.5 5989  Z M 59.5 5911  L 120 5911  L 120 6019  L 59.5 6019  Z " fill-rule="evenodd" />
    </mask>
  </defs>
  <path d="M 108 6009  L 80 6009  A 5 5 0 0 1 75 6004 L 75 5926  A 5 5 0 0 1 80 5921 L 84 5921  " stroke-width="2" stroke-dasharray="0" stroke="rgba(88, 0, 170, 1)" fill="none" class="stroke" mask="url(#Clip235)" />
  <path d="M 106.5 6005.5  A 3.5 3.5 0 0 0 103 6009 A 3.5 3.5 0 0 0 106.5 6012.5 A 3.5 3.5 0 0 0 110 6009 A 3.5 3.5 0 0 0 106.5 6005.5 Z M 83 5928.6  L 90 5921  L 83 5913.4  L 83 5928.6  Z " fill-rule="nonzero" fill="rgba(88, 0, 170, 1)" stroke="none" class="fill" mask="url(#Clip235)" />
</svg>