<?xml version="1.0" encoding="utf-8"?>
<svg version="1.1" xmlns:xlink="http://www.w3.org/1999/xlink" width="21px" height="20px" preserveAspectRatio="xMinYMid meet" viewBox="223 5722 21 18" xmlns="http://www.w3.org/2000/svg">
  <path d="M 232 5731  L 325 5731  A 5 5 0 0 0 330 5726 L 330 5713  A 5 5 0 0 1 335 5708 L 424 5708  " stroke-width="2" stroke-dasharray="0" stroke="rgba(88, 0, 170, 1)" fill="none" class="stroke" />
  <path d="M 233.5 5727.5  A 3.5 3.5 0 0 0 230 5731 A 3.5 3.5 0 0 0 233.5 5734.5 A 3.5 3.5 0 0 0 237 5731 A 3.5 3.5 0 0 0 233.5 5727.5 Z M 423 5715.6  L 430 5708  L 423 5700.4  L 423 5715.6  Z " fill-rule="nonzero" fill="rgba(88, 0, 170, 1)" stroke="none" class="fill" />
</svg>