<?xml version="1.0" encoding="utf-8"?>
<svg version="1.1" xmlns:xlink="http://www.w3.org/1999/xlink" width="10px" height="33px" preserveAspectRatio="xMidYMin meet" viewBox="697 6248 8 33" xmlns="http://www.w3.org/2000/svg">
  <path d="M 572 6276  L 696 6276  A 5 5 0 0 0 701 6271 L 701 6258  A 5 5 0 0 1 706 6253 L 827 6253  " stroke-width="2" stroke-dasharray="0" stroke="rgba(88, 0, 170, 1)" fill="none" class="stroke" />
  <path d="M 573.5 6272.5  A 3.5 3.5 0 0 0 570 6276 A 3.5 3.5 0 0 0 573.5 6279.5 A 3.5 3.5 0 0 0 577 6276 A 3.5 3.5 0 0 0 573.5 6272.5 Z M 826 6260.6  L 833 6253  L 826 6245.4  L 826 6260.6  Z " fill-rule="nonzero" fill="rgba(88, 0, 170, 1)" stroke="none" class="fill" />
</svg>