<?xml version="1.0" encoding="utf-8"?>
<svg version="1.1" xmlns:xlink="http://www.w3.org/1999/xlink" width="30px" height="10px" preserveAspectRatio="xMinYMid meet" viewBox="75 6848 30 8" xmlns="http://www.w3.org/2000/svg">
  <path d="M 103 6415  L 85 6415  A 5 5 0 0 0 80 6420 L 80 6847  A 5 5 0 0 0 85 6852 L 99 6852  " stroke-width="2" stroke-dasharray="0" stroke="rgba(88, 0, 170, 1)" fill="none" class="stroke" />
  <path d="M 101.5 6411.5  A 3.5 3.5 0 0 0 98 6415 A 3.5 3.5 0 0 0 101.5 6418.5 A 3.5 3.5 0 0 0 105 6415 A 3.5 3.5 0 0 0 101.5 6411.5 Z M 98 6859.6  L 105 6852  L 98 6844.4  L 98 6859.6  Z " fill-rule="nonzero" fill="rgba(88, 0, 170, 1)" stroke="none" class="fill" />
</svg>