<?xml version="1.0" encoding="utf-8"?>
<svg version="1.1" xmlns:xlink="http://www.w3.org/1999/xlink" width="13px" height="11px" xmlns="http://www.w3.org/2000/svg">
  <defs>
    <pattern id="BGPattern" patternUnits="userSpaceOnUse" alignment="0 0" imageRepeat="None" />
    <mask fill="white" id="Clip685">
      <path d="M 5.8515625 0.9437412095639947  C 5.950520833333333 1.0417252695733703  6 1.1577590248476315  6 1.2918424753867788  L 6 9.70815752461322  C 6 9.842240975152368  5.950520833333333 9.958274730426629  5.8515625 10.056258790436006  C 5.752604166666667 10.154242850445382  5.635416666666667 10.20323488045007  5.5 10.20323488045007  C 5.364583333333334 10.20323488045007  5.247395833333334 10.154242850445382  5.1484375 10.056258790436006  L 2.546875 7.480309423347397  L 0.5 7.480309423347397  C 0.36458333333333337 7.480309423347397  0.24739583333333337 7.4313173933427095  0.1484375 7.333333333333334  C 0.049479166666666664 7.235349273323957  0 7.119315518049695  0 6.985232067510549  L 0 4.014767932489451  C 0 3.880684481950304  0.049479166666666664 3.7646507266760416  0.1484375 3.666666666666667  C 0.24739583333333337 3.568682606657289  0.36458333333333337 3.5196905766526028  0.5 3.5196905766526028  L 2.546875 3.5196905766526028  L 5.1484375 0.9437412095639947  C 5.247395833333334 0.8457571495546179  5.364583333333334 0.7967651195499301  5.5 0.7967651195499301  C 5.635416666666667 0.7967651195499301  5.752604166666667 0.8457571495546179  5.8515625 0.9437412095639947  Z M 8.66796875 4.40154711673699  C 8.889322916666668 4.741912798874824  9 5.1080637599624925  9 5.5  C 9 5.891936240037506  8.889322916666668 6.256797937177684  8.66796875 6.594585091420535  C 8.446614583333334 6.932372245663383  8.153645833333334 7.17346460384435  7.7890625 7.317862165963432  C 7.736979166666669 7.343647444913266  7.671875000000001 7.356540084388185  7.59375 7.356540084388185  C 7.458333333333334 7.356540084388185  7.341145833333334 7.308837318330988  7.2421875 7.213431786216596  C 7.143229166666668 7.118026254102202  7.093749999999999 7.00070323488045  7.093749999999999 6.861462728551336  C 7.093749999999999 6.753164556962025  7.125000000000001 6.661626816690108  7.1875 6.586849507735583  C 7.25 6.512072198781059  7.325520833333334 6.44760900140647  7.4140625 6.393459915611815  C 7.502604166666669 6.339310829817158  7.591145833333334 6.280004688232535  7.6796875 6.215541490857947  C 7.768229166666667 6.151078293483356  7.84375 6.058251289263946  7.906249999999999 5.937060478199718  C 7.968750000000001 5.815869667135489  8 5.670182841068916  8 5.5  C 8 5.329817158931084  7.968750000000001 5.18413033286451  7.906249999999999 5.06293952180028  C 7.84375 4.941748710736052  7.768229166666667 4.848921706516642  7.6796875 4.784458509142054  C 7.591145833333334 4.719995311767464  7.502604166666669 4.660689170182842  7.4140625 4.606540084388186  C 7.325520833333334 4.55239099859353  7.25 4.48792780121894  7.1875 4.413150492264417  C 7.125000000000001 4.3383731833098915  7.093749999999999 4.246835443037974  7.093749999999999 4.138537271448664  C 7.093749999999999 3.9992967651195492  7.143229166666668 3.881973745897796  7.2421875 3.7865682137834042  C 7.341145833333334 3.691162681669011  7.458333333333334 3.643459915611814  7.59375 3.643459915611814  C 7.671875000000001 3.643459915611814  7.736979166666669 3.656352555086732  7.7890625 3.682137834036568  C 8.153645833333334 3.8213783403656825  8.446614583333334 4.061181434599156  8.66796875 4.40154711673699  Z M 10.3359375 3.314697609001406  C 10.778645833333334 3.982536333802156  11 4.710970464135021  11 5.5  C 11 6.289029535864979  10.778645833333334 7.017463666197843  10.3359375 7.685302390998593  C 9.893229166666668 8.353141115799342  9.307291666666668 8.839193624003748  8.578125 9.143459915611816  C 8.510416666666668 9.16924519456165  8.4453125 9.182137834036569  8.3828125 9.182137834036569  C 8.2421875 9.182137834036569  8.122395833333334 9.13314580403188  8.0234375 9.035161744022503  C 7.924479166666668 8.937177684013127  7.875000000000001 8.821143928738865  7.874999999999999 8.687060478199719  C 7.875000000000001 8.485935302390999  7.976562500000001 8.333802156586966  8.1796875 8.230661040787624  C 8.471354166666668 8.081106422878573  8.669270833333334 7.967651195499297  8.7734375 7.890295358649789  C 9.158854166666668 7.6118143459915615  9.459635416666668 7.2624238162212835  9.67578125 6.842123769338959  C 9.891927083333334 6.421823722456633  10 5.97444913267698  10 5.5  C 10 5.025550867323019  9.891927083333334 4.578176277543365  9.67578125 4.15787623066104  C 9.459635416666668 3.737576183778715  9.158854166666668 3.388185654008439  8.7734375 3.109704641350211  C 8.669270833333334 3.0323488045007037  8.471354166666668 2.9188935771214246  8.1796875 2.7693389592123765  C 7.976562500000001 2.6661978434130322  7.875000000000001 2.5140646976090015  7.874999999999999 2.312939521800281  C 7.875000000000001 2.1788560712611336  7.924479166666668 2.062822315986872  8.0234375 1.9648382559774964  C 8.122395833333334 1.8668541959681197  8.239583333333334 1.817862165963432  8.375 1.817862165963432  C 8.442708333333334 1.817862165963432  8.510416666666668 1.830754805438348  8.578125 1.856540084388186  C 9.307291666666668 2.160806375996249  9.893229166666668 2.646858884200655  10.3359375 3.314697609001406  Z M 12.0078125 2.231715893108298  C 12.669270833333334 3.2244491326769804  13 4.313877168307546  13 5.5  C 13 6.686122831692451  12.669270833333334 7.775550867323017  12.0078125 8.768284106891702  C 11.346354166666668 9.761017346460385  10.466145833333334 10.492030004688232  9.3671875 10.961322081575245  C 9.299479166666668 10.987107360525082  9.231770833333334 11  9.1640625 11  C 9.028645833333334 11  8.911458333333334 10.951007969995313  8.8125 10.853023909985936  C 8.713541666666668 10.755039849976558  8.6640625 10.639006094702296  8.6640625 10.50492264416315  C 8.6640625 10.319268635724331  8.765625 10.1671354899203  8.96875 10.048523206751055  C 9.005208333333334 10.027894983591185  9.063802083333334 10.000820440693857  9.14453125 9.967299578059071  C 9.225260416666668 9.933778715424285  9.283854166666668 9.906704172526958  9.3203125 9.886075949367088  C 9.559895833333334 9.757149554617909  9.7734375 9.625644631973746  9.9609375 9.4915611814346  C 10.6015625 9.022269104547584  11.1015625 8.436943272386308  11.4609375 7.7355836849507735  C 11.8203125 7.034224097515237  12 6.289029535864979  12 5.5  C 12 4.710970464135021  11.8203125 3.9657759024847636  11.4609375 3.2644163150492265  C 11.1015625 2.5630567276136893  10.6015625 1.9777308954524138  9.9609375 1.5084388185654007  C 9.7734375 1.3743553680262535  9.559895833333334 1.2428504453820899  9.3203125 1.1139240506329111  C 9.283854166666668 1.0932958274730415  9.225260416666668 1.0662212845757142  9.14453125 1.0327004219409286  C 9.063802083333334 0.9991795593061404  9.005208333333334 0.9721050164088129  8.96875 0.9514767932489457  C 8.765625 0.8328645100796982  8.6640625 0.6807313642756675  8.6640625 0.49507735583685  C 8.6640625 0.3609939052977015  8.713541666666668 0.24496015002344007  8.8125 0.14697609001406453  C 8.911458333333334 0.04899203000468777  9.028645833333334 0  9.1640625 0  C 9.231770833333334 0  9.299479166666668 0.012892639474917256  9.3671875 0.03867791842475421  C 10.466145833333334 0.507969995311766  11.346354166666668 1.2389826535396145  12.0078125 2.231715893108298  Z " fill-rule="evenodd" />
    </mask>
  </defs>
  <g transform="matrix(1 0 0 1 -10 -7 )">
    <path d="M 5.8515625 0.9437412095639947  C 5.950520833333333 1.0417252695733703  6 1.1577590248476315  6 1.2918424753867788  L 6 9.70815752461322  C 6 9.842240975152368  5.950520833333333 9.958274730426629  5.8515625 10.056258790436006  C 5.752604166666667 10.154242850445382  5.635416666666667 10.20323488045007  5.5 10.20323488045007  C 5.364583333333334 10.20323488045007  5.247395833333334 10.154242850445382  5.1484375 10.056258790436006  L 2.546875 7.480309423347397  L 0.5 7.480309423347397  C 0.36458333333333337 7.480309423347397  0.24739583333333337 7.4313173933427095  0.1484375 7.333333333333334  C 0.049479166666666664 7.235349273323957  0 7.119315518049695  0 6.985232067510549  L 0 4.014767932489451  C 0 3.880684481950304  0.049479166666666664 3.7646507266760416  0.1484375 3.666666666666667  C 0.24739583333333337 3.568682606657289  0.36458333333333337 3.5196905766526028  0.5 3.5196905766526028  L 2.546875 3.5196905766526028  L 5.1484375 0.9437412095639947  C 5.247395833333334 0.8457571495546179  5.364583333333334 0.7967651195499301  5.5 0.7967651195499301  C 5.635416666666667 0.7967651195499301  5.752604166666667 0.8457571495546179  5.8515625 0.9437412095639947  Z M 8.66796875 4.40154711673699  C 8.889322916666668 4.741912798874824  9 5.1080637599624925  9 5.5  C 9 5.891936240037506  8.889322916666668 6.256797937177684  8.66796875 6.594585091420535  C 8.446614583333334 6.932372245663383  8.153645833333334 7.17346460384435  7.7890625 7.317862165963432  C 7.736979166666669 7.343647444913266  7.671875000000001 7.356540084388185  7.59375 7.356540084388185  C 7.458333333333334 7.356540084388185  7.341145833333334 7.308837318330988  7.2421875 7.213431786216596  C 7.143229166666668 7.118026254102202  7.093749999999999 7.00070323488045  7.093749999999999 6.861462728551336  C 7.093749999999999 6.753164556962025  7.125000000000001 6.661626816690108  7.1875 6.586849507735583  C 7.25 6.512072198781059  7.325520833333334 6.44760900140647  7.4140625 6.393459915611815  C 7.502604166666669 6.339310829817158  7.591145833333334 6.280004688232535  7.6796875 6.215541490857947  C 7.768229166666667 6.151078293483356  7.84375 6.058251289263946  7.906249999999999 5.937060478199718  C 7.968750000000001 5.815869667135489  8 5.670182841068916  8 5.5  C 8 5.329817158931084  7.968750000000001 5.18413033286451  7.906249999999999 5.06293952180028  C 7.84375 4.941748710736052  7.768229166666667 4.848921706516642  7.6796875 4.784458509142054  C 7.591145833333334 4.719995311767464  7.502604166666669 4.660689170182842  7.4140625 4.606540084388186  C 7.325520833333334 4.55239099859353  7.25 4.48792780121894  7.1875 4.413150492264417  C 7.125000000000001 4.3383731833098915  7.093749999999999 4.246835443037974  7.093749999999999 4.138537271448664  C 7.093749999999999 3.9992967651195492  7.143229166666668 3.881973745897796  7.2421875 3.7865682137834042  C 7.341145833333334 3.691162681669011  7.458333333333334 3.643459915611814  7.59375 3.643459915611814  C 7.671875000000001 3.643459915611814  7.736979166666669 3.656352555086732  7.7890625 3.682137834036568  C 8.153645833333334 3.8213783403656825  8.446614583333334 4.061181434599156  8.66796875 4.40154711673699  Z M 10.3359375 3.314697609001406  C 10.778645833333334 3.982536333802156  11 4.710970464135021  11 5.5  C 11 6.289029535864979  10.778645833333334 7.017463666197843  10.3359375 7.685302390998593  C 9.893229166666668 8.353141115799342  9.307291666666668 8.839193624003748  8.578125 9.143459915611816  C 8.510416666666668 9.16924519456165  8.4453125 9.182137834036569  8.3828125 9.182137834036569  C 8.2421875 9.182137834036569  8.122395833333334 9.13314580403188  8.0234375 9.035161744022503  C 7.924479166666668 8.937177684013127  7.875000000000001 8.821143928738865  7.874999999999999 8.687060478199719  C 7.875000000000001 8.485935302390999  7.976562500000001 8.333802156586966  8.1796875 8.230661040787624  C 8.471354166666668 8.081106422878573  8.669270833333334 7.967651195499297  8.7734375 7.890295358649789  C 9.158854166666668 7.6118143459915615  9.459635416666668 7.2624238162212835  9.67578125 6.842123769338959  C 9.891927083333334 6.421823722456633  10 5.97444913267698  10 5.5  C 10 5.025550867323019  9.891927083333334 4.578176277543365  9.67578125 4.15787623066104  C 9.459635416666668 3.737576183778715  9.158854166666668 3.388185654008439  8.7734375 3.109704641350211  C 8.669270833333334 3.0323488045007037  8.471354166666668 2.9188935771214246  8.1796875 2.7693389592123765  C 7.976562500000001 2.6661978434130322  7.875000000000001 2.5140646976090015  7.874999999999999 2.312939521800281  C 7.875000000000001 2.1788560712611336  7.924479166666668 2.062822315986872  8.0234375 1.9648382559774964  C 8.122395833333334 1.8668541959681197  8.239583333333334 1.817862165963432  8.375 1.817862165963432  C 8.442708333333334 1.817862165963432  8.510416666666668 1.830754805438348  8.578125 1.856540084388186  C 9.307291666666668 2.160806375996249  9.893229166666668 2.646858884200655  10.3359375 3.314697609001406  Z M 12.0078125 2.231715893108298  C 12.669270833333334 3.2244491326769804  13 4.313877168307546  13 5.5  C 13 6.686122831692451  12.669270833333334 7.775550867323017  12.0078125 8.768284106891702  C 11.346354166666668 9.761017346460385  10.466145833333334 10.492030004688232  9.3671875 10.961322081575245  C 9.299479166666668 10.987107360525082  9.231770833333334 11  9.1640625 11  C 9.028645833333334 11  8.911458333333334 10.951007969995313  8.8125 10.853023909985936  C 8.713541666666668 10.755039849976558  8.6640625 10.639006094702296  8.6640625 10.50492264416315  C 8.6640625 10.319268635724331  8.765625 10.1671354899203  8.96875 10.048523206751055  C 9.005208333333334 10.027894983591185  9.063802083333334 10.000820440693857  9.14453125 9.967299578059071  C 9.225260416666668 9.933778715424285  9.283854166666668 9.906704172526958  9.3203125 9.886075949367088  C 9.559895833333334 9.757149554617909  9.7734375 9.625644631973746  9.9609375 9.4915611814346  C 10.6015625 9.022269104547584  11.1015625 8.436943272386308  11.4609375 7.7355836849507735  C 11.8203125 7.034224097515237  12 6.289029535864979  12 5.5  C 12 4.710970464135021  11.8203125 3.9657759024847636  11.4609375 3.2644163150492265  C 11.1015625 2.5630567276136893  10.6015625 1.9777308954524138  9.9609375 1.5084388185654007  C 9.7734375 1.3743553680262535  9.559895833333334 1.2428504453820899  9.3203125 1.1139240506329111  C 9.283854166666668 1.0932958274730415  9.225260416666668 1.0662212845757142  9.14453125 1.0327004219409286  C 9.063802083333334 0.9991795593061404  9.005208333333334 0.9721050164088129  8.96875 0.9514767932489457  C 8.765625 0.8328645100796982  8.6640625 0.6807313642756675  8.6640625 0.49507735583685  C 8.6640625 0.3609939052977015  8.713541666666668 0.24496015002344007  8.8125 0.14697609001406453  C 8.911458333333334 0.04899203000468777  9.028645833333334 0  9.1640625 0  C 9.231770833333334 0  9.299479166666668 0.012892639474917256  9.3671875 0.03867791842475421  C 10.466145833333334 0.507969995311766  11.346354166666668 1.2389826535396145  12.0078125 2.231715893108298  Z " fill-rule="nonzero" fill="rgba(255, 255, 255, 1)" stroke="none" transform="matrix(1 0 0 1 10 7 )" class="fill" />
    <path d="M 5.8515625 0.9437412095639947  C 5.950520833333333 1.0417252695733703  6 1.1577590248476315  6 1.2918424753867788  L 6 9.70815752461322  C 6 9.842240975152368  5.950520833333333 9.958274730426629  5.8515625 10.056258790436006  C 5.752604166666667 10.154242850445382  5.635416666666667 10.20323488045007  5.5 10.20323488045007  C 5.364583333333334 10.20323488045007  5.247395833333334 10.154242850445382  5.1484375 10.056258790436006  L 2.546875 7.480309423347397  L 0.5 7.480309423347397  C 0.36458333333333337 7.480309423347397  0.24739583333333337 7.4313173933427095  0.1484375 7.333333333333334  C 0.049479166666666664 7.235349273323957  0 7.119315518049695  0 6.985232067510549  L 0 4.014767932489451  C 0 3.880684481950304  0.049479166666666664 3.7646507266760416  0.1484375 3.666666666666667  C 0.24739583333333337 3.568682606657289  0.36458333333333337 3.5196905766526028  0.5 3.5196905766526028  L 2.546875 3.5196905766526028  L 5.1484375 0.9437412095639947  C 5.247395833333334 0.8457571495546179  5.364583333333334 0.7967651195499301  5.5 0.7967651195499301  C 5.635416666666667 0.7967651195499301  5.752604166666667 0.8457571495546179  5.8515625 0.9437412095639947  Z " stroke-width="0" stroke-dasharray="0" stroke="rgba(255, 255, 255, 0)" fill="none" transform="matrix(1 0 0 1 10 7 )" class="stroke" mask="url(#Clip685)" />
    <path d="M 8.66796875 4.40154711673699  C 8.889322916666668 4.741912798874824  9 5.1080637599624925  9 5.5  C 9 5.891936240037506  8.889322916666668 6.256797937177684  8.66796875 6.594585091420535  C 8.446614583333334 6.932372245663383  8.153645833333334 7.17346460384435  7.7890625 7.317862165963432  C 7.736979166666669 7.343647444913266  7.671875000000001 7.356540084388185  7.59375 7.356540084388185  C 7.458333333333334 7.356540084388185  7.341145833333334 7.308837318330988  7.2421875 7.213431786216596  C 7.143229166666668 7.118026254102202  7.093749999999999 7.00070323488045  7.093749999999999 6.861462728551336  C 7.093749999999999 6.753164556962025  7.125000000000001 6.661626816690108  7.1875 6.586849507735583  C 7.25 6.512072198781059  7.325520833333334 6.44760900140647  7.4140625 6.393459915611815  C 7.502604166666669 6.339310829817158  7.591145833333334 6.280004688232535  7.6796875 6.215541490857947  C 7.768229166666667 6.151078293483356  7.84375 6.058251289263946  7.906249999999999 5.937060478199718  C 7.968750000000001 5.815869667135489  8 5.670182841068916  8 5.5  C 8 5.329817158931084  7.968750000000001 5.18413033286451  7.906249999999999 5.06293952180028  C 7.84375 4.941748710736052  7.768229166666667 4.848921706516642  7.6796875 4.784458509142054  C 7.591145833333334 4.719995311767464  7.502604166666669 4.660689170182842  7.4140625 4.606540084388186  C 7.325520833333334 4.55239099859353  7.25 4.48792780121894  7.1875 4.413150492264417  C 7.125000000000001 4.3383731833098915  7.093749999999999 4.246835443037974  7.093749999999999 4.138537271448664  C 7.093749999999999 3.9992967651195492  7.143229166666668 3.881973745897796  7.2421875 3.7865682137834042  C 7.341145833333334 3.691162681669011  7.458333333333334 3.643459915611814  7.59375 3.643459915611814  C 7.671875000000001 3.643459915611814  7.736979166666669 3.656352555086732  7.7890625 3.682137834036568  C 8.153645833333334 3.8213783403656825  8.446614583333334 4.061181434599156  8.66796875 4.40154711673699  Z " stroke-width="0" stroke-dasharray="0" stroke="rgba(255, 255, 255, 0)" fill="none" transform="matrix(1 0 0 1 10 7 )" class="stroke" mask="url(#Clip685)" />
    <path d="M 10.3359375 3.314697609001406  C 10.778645833333334 3.982536333802156  11 4.710970464135021  11 5.5  C 11 6.289029535864979  10.778645833333334 7.017463666197843  10.3359375 7.685302390998593  C 9.893229166666668 8.353141115799342  9.307291666666668 8.839193624003748  8.578125 9.143459915611816  C 8.510416666666668 9.16924519456165  8.4453125 9.182137834036569  8.3828125 9.182137834036569  C 8.2421875 9.182137834036569  8.122395833333334 9.13314580403188  8.0234375 9.035161744022503  C 7.924479166666668 8.937177684013127  7.875000000000001 8.821143928738865  7.874999999999999 8.687060478199719  C 7.875000000000001 8.485935302390999  7.976562500000001 8.333802156586966  8.1796875 8.230661040787624  C 8.471354166666668 8.081106422878573  8.669270833333334 7.967651195499297  8.7734375 7.890295358649789  C 9.158854166666668 7.6118143459915615  9.459635416666668 7.2624238162212835  9.67578125 6.842123769338959  C 9.891927083333334 6.421823722456633  10 5.97444913267698  10 5.5  C 10 5.025550867323019  9.891927083333334 4.578176277543365  9.67578125 4.15787623066104  C 9.459635416666668 3.737576183778715  9.158854166666668 3.388185654008439  8.7734375 3.109704641350211  C 8.669270833333334 3.0323488045007037  8.471354166666668 2.9188935771214246  8.1796875 2.7693389592123765  C 7.976562500000001 2.6661978434130322  7.875000000000001 2.5140646976090015  7.874999999999999 2.312939521800281  C 7.875000000000001 2.1788560712611336  7.924479166666668 2.062822315986872  8.0234375 1.9648382559774964  C 8.122395833333334 1.8668541959681197  8.239583333333334 1.817862165963432  8.375 1.817862165963432  C 8.442708333333334 1.817862165963432  8.510416666666668 1.830754805438348  8.578125 1.856540084388186  C 9.307291666666668 2.160806375996249  9.893229166666668 2.646858884200655  10.3359375 3.314697609001406  Z " stroke-width="0" stroke-dasharray="0" stroke="rgba(255, 255, 255, 0)" fill="none" transform="matrix(1 0 0 1 10 7 )" class="stroke" mask="url(#Clip685)" />
    <path d="M 12.0078125 2.231715893108298  C 12.669270833333334 3.2244491326769804  13 4.313877168307546  13 5.5  C 13 6.686122831692451  12.669270833333334 7.775550867323017  12.0078125 8.768284106891702  C 11.346354166666668 9.761017346460385  10.466145833333334 10.492030004688232  9.3671875 10.961322081575245  C 9.299479166666668 10.987107360525082  9.231770833333334 11  9.1640625 11  C 9.028645833333334 11  8.911458333333334 10.951007969995313  8.8125 10.853023909985936  C 8.713541666666668 10.755039849976558  8.6640625 10.639006094702296  8.6640625 10.50492264416315  C 8.6640625 10.319268635724331  8.765625 10.1671354899203  8.96875 10.048523206751055  C 9.005208333333334 10.027894983591185  9.063802083333334 10.000820440693857  9.14453125 9.967299578059071  C 9.225260416666668 9.933778715424285  9.283854166666668 9.906704172526958  9.3203125 9.886075949367088  C 9.559895833333334 9.757149554617909  9.7734375 9.625644631973746  9.9609375 9.4915611814346  C 10.6015625 9.022269104547584  11.1015625 8.436943272386308  11.4609375 7.7355836849507735  C 11.8203125 7.034224097515237  12 6.289029535864979  12 5.5  C 12 4.710970464135021  11.8203125 3.9657759024847636  11.4609375 3.2644163150492265  C 11.1015625 2.5630567276136893  10.6015625 1.9777308954524138  9.9609375 1.5084388185654007  C 9.7734375 1.3743553680262535  9.559895833333334 1.2428504453820899  9.3203125 1.1139240506329111  C 9.283854166666668 1.0932958274730415  9.225260416666668 1.0662212845757142  9.14453125 1.0327004219409286  C 9.063802083333334 0.9991795593061404  9.005208333333334 0.9721050164088129  8.96875 0.9514767932489457  C 8.765625 0.8328645100796982  8.6640625 0.6807313642756675  8.6640625 0.49507735583685  C 8.6640625 0.3609939052977015  8.713541666666668 0.24496015002344007  8.8125 0.14697609001406453  C 8.911458333333334 0.04899203000468777  9.028645833333334 0  9.1640625 0  C 9.231770833333334 0  9.299479166666668 0.012892639474917256  9.3671875 0.03867791842475421  C 10.466145833333334 0.507969995311766  11.346354166666668 1.2389826535396145  12.0078125 2.231715893108298  Z " stroke-width="0" stroke-dasharray="0" stroke="rgba(255, 255, 255, 0)" fill="none" transform="matrix(1 0 0 1 10 7 )" class="stroke" mask="url(#Clip685)" />
  </g>
</svg>