<?xml version="1.0" encoding="utf-8"?>
<svg version="1.1" xmlns:xlink="http://www.w3.org/1999/xlink" width="33px" height="37px" xmlns="http://www.w3.org/2000/svg">
  <defs>
    <pattern id="BGPattern" patternUnits="userSpaceOnUse" alignment="0 0" imageRepeat="None" />
    <mask fill="white" id="Clip551">
      <path d="M 6.982421875 14.969308035714288  C 9.932942708333334 15.56119791666667  13.10546875 15.857142857142858  16.5 15.857142857142858  C 19.89453125 15.857142857142858  23.067057291666668 15.56119791666667  26.017578125 14.969308035714288  C 28.96809895833334 14.377418154761902  31.295572916666668 13.503348214285712  33 12.347098214285712  L 33 15.857142857142858  C 33 16.806919642857142  32.262369791666664 17.687872023809522  30.787109375 18.5  C 29.311848958333336 19.31212797619047  27.306640625 19.955636160714285  24.771484375 20.43052455357143  C 22.236328125 20.90541294642857  19.479166666666668 21.142857142857142  16.5 21.142857142857142  C 13.520833333333334 21.142857142857142  10.763671875 20.90541294642857  8.228515625 20.43052455357143  C 5.693359375 19.955636160714285  3.688151041666667 19.31212797619047  2.212890625 18.5  C 0.7376302083333333 17.687872023809522  0 16.806919642857142  0 15.857142857142858  L 0 12.347098214285712  C 1.7044270833333335 13.503348214285712  4.031901041666667 14.377418154761902  6.982421875 14.969308035714288  Z M 6.982421875 30.826450892857142  C 9.932942708333334 31.41834077380953  13.10546875 31.714285714285715  16.5 31.714285714285715  C 19.89453125 31.714285714285715  23.067057291666668 31.41834077380953  26.017578125 30.826450892857142  C 28.96809895833334 30.23456101190476  31.295572916666668 29.36049107142857  33 28.20424107142857  L 33 31.714285714285715  C 33 32.6640625  32.262369791666664 33.54501488095238  30.787109375 34.35714285714286  C 29.311848958333336 35.16927083333333  27.306640625 35.81277901785714  24.771484375 36.287667410714285  C 22.236328125 36.76255580357143  19.479166666666668 37  16.5 37  C 13.520833333333334 37  10.763671875 36.76255580357143  8.228515625 36.287667410714285  C 5.693359375 35.81277901785714  3.688151041666667 35.16927083333333  2.212890625 34.35714285714286  C 0.7376302083333333 33.54501488095238  0 32.6640625  0 31.714285714285715  L 0 28.20424107142857  C 1.7044270833333335 29.36049107142857  4.031901041666667 30.23456101190476  6.982421875 30.826450892857142  Z M 6.982421875 22.897879464285715  C 9.932942708333334 23.489769345238095  13.10546875 23.785714285714285  16.5 23.785714285714285  C 19.89453125 23.785714285714285  23.067057291666668 23.489769345238095  26.017578125 22.897879464285715  C 28.96809895833334 22.305989583333332  31.295572916666668 21.431919642857142  33 20.275669642857142  L 33 23.785714285714285  C 33 24.73549107142857  32.262369791666664 25.61644345238095  30.787109375 26.42857142857143  C 29.311848958333336 27.240699404761905  27.306640625 27.884207589285715  24.771484375 28.359095982142858  C 22.236328125 28.833984375  19.479166666666668 29.07142857142857  16.5 29.07142857142857  C 13.520833333333334 29.07142857142857  10.763671875 28.833984375  8.228515625 28.359095982142858  C 5.693359375 27.884207589285715  3.688151041666667 27.240699404761905  2.212890625 26.42857142857143  C 0.7376302083333333 25.61644345238095  0 24.73549107142857  0 23.785714285714285  L 0 20.275669642857142  C 1.7044270833333335 21.431919642857142  4.031901041666667 22.305989583333332  6.982421875 22.897879464285715  Z M 8.228515625 0.7123325892857125  C 10.763671875 0.23744419642857084  13.520833333333334 0  16.5 0  C 19.479166666666668 0  22.236328125 0.23744419642857084  24.771484375 0.7123325892857125  C 27.306640625 1.1872209821428583  29.311848958333336 1.8307291666666652  30.787109375 2.6428571428571415  C 32.262369791666664 3.454985119047618  33 4.3359375  33 5.285714285714287  L 33 7.928571428571429  C 33 8.878348214285712  32.262369791666664 9.75930059523809  30.787109375 10.571428571428571  C 29.311848958333336 11.383556547619047  27.306640625 12.027064732142858  24.771484375 12.501953125  C 22.236328125 12.976841517857142  19.479166666666668 13.214285714285712  16.5 13.214285714285712  C 13.520833333333334 13.214285714285712  10.763671875 12.976841517857142  8.228515625 12.501953125  C 5.693359375 12.027064732142858  3.688151041666667 11.383556547619047  2.212890625 10.571428571428571  C 0.7376302083333333 9.75930059523809  0 8.878348214285712  0 7.928571428571429  L 0 5.285714285714287  C 0 4.3359375  0.7376302083333333 3.454985119047618  2.212890625 2.6428571428571415  C 3.688151041666667 1.8307291666666652  5.693359375 1.1872209821428583  8.228515625 0.7123325892857125  Z " fill-rule="evenodd" />
    </mask>
  </defs>
  <g transform="matrix(1 0 0 1 -184 -938 )">
    <path d="M 6.982421875 14.969308035714288  C 9.932942708333334 15.56119791666667  13.10546875 15.857142857142858  16.5 15.857142857142858  C 19.89453125 15.857142857142858  23.067057291666668 15.56119791666667  26.017578125 14.969308035714288  C 28.96809895833334 14.377418154761902  31.295572916666668 13.503348214285712  33 12.347098214285712  L 33 15.857142857142858  C 33 16.806919642857142  32.262369791666664 17.687872023809522  30.787109375 18.5  C 29.311848958333336 19.31212797619047  27.306640625 19.955636160714285  24.771484375 20.43052455357143  C 22.236328125 20.90541294642857  19.479166666666668 21.142857142857142  16.5 21.142857142857142  C 13.520833333333334 21.142857142857142  10.763671875 20.90541294642857  8.228515625 20.43052455357143  C 5.693359375 19.955636160714285  3.688151041666667 19.31212797619047  2.212890625 18.5  C 0.7376302083333333 17.687872023809522  0 16.806919642857142  0 15.857142857142858  L 0 12.347098214285712  C 1.7044270833333335 13.503348214285712  4.031901041666667 14.377418154761902  6.982421875 14.969308035714288  Z M 6.982421875 30.826450892857142  C 9.932942708333334 31.41834077380953  13.10546875 31.714285714285715  16.5 31.714285714285715  C 19.89453125 31.714285714285715  23.067057291666668 31.41834077380953  26.017578125 30.826450892857142  C 28.96809895833334 30.23456101190476  31.295572916666668 29.36049107142857  33 28.20424107142857  L 33 31.714285714285715  C 33 32.6640625  32.262369791666664 33.54501488095238  30.787109375 34.35714285714286  C 29.311848958333336 35.16927083333333  27.306640625 35.81277901785714  24.771484375 36.287667410714285  C 22.236328125 36.76255580357143  19.479166666666668 37  16.5 37  C 13.520833333333334 37  10.763671875 36.76255580357143  8.228515625 36.287667410714285  C 5.693359375 35.81277901785714  3.688151041666667 35.16927083333333  2.212890625 34.35714285714286  C 0.7376302083333333 33.54501488095238  0 32.6640625  0 31.714285714285715  L 0 28.20424107142857  C 1.7044270833333335 29.36049107142857  4.031901041666667 30.23456101190476  6.982421875 30.826450892857142  Z M 6.982421875 22.897879464285715  C 9.932942708333334 23.489769345238095  13.10546875 23.785714285714285  16.5 23.785714285714285  C 19.89453125 23.785714285714285  23.067057291666668 23.489769345238095  26.017578125 22.897879464285715  C 28.96809895833334 22.305989583333332  31.295572916666668 21.431919642857142  33 20.275669642857142  L 33 23.785714285714285  C 33 24.73549107142857  32.262369791666664 25.61644345238095  30.787109375 26.42857142857143  C 29.311848958333336 27.240699404761905  27.306640625 27.884207589285715  24.771484375 28.359095982142858  C 22.236328125 28.833984375  19.479166666666668 29.07142857142857  16.5 29.07142857142857  C 13.520833333333334 29.07142857142857  10.763671875 28.833984375  8.228515625 28.359095982142858  C 5.693359375 27.884207589285715  3.688151041666667 27.240699404761905  2.212890625 26.42857142857143  C 0.7376302083333333 25.61644345238095  0 24.73549107142857  0 23.785714285714285  L 0 20.275669642857142  C 1.7044270833333335 21.431919642857142  4.031901041666667 22.305989583333332  6.982421875 22.897879464285715  Z M 8.228515625 0.7123325892857125  C 10.763671875 0.23744419642857084  13.520833333333334 0  16.5 0  C 19.479166666666668 0  22.236328125 0.23744419642857084  24.771484375 0.7123325892857125  C 27.306640625 1.1872209821428583  29.311848958333336 1.8307291666666652  30.787109375 2.6428571428571415  C 32.262369791666664 3.454985119047618  33 4.3359375  33 5.285714285714287  L 33 7.928571428571429  C 33 8.878348214285712  32.262369791666664 9.75930059523809  30.787109375 10.571428571428571  C 29.311848958333336 11.383556547619047  27.306640625 12.027064732142858  24.771484375 12.501953125  C 22.236328125 12.976841517857142  19.479166666666668 13.214285714285712  16.5 13.214285714285712  C 13.520833333333334 13.214285714285712  10.763671875 12.976841517857142  8.228515625 12.501953125  C 5.693359375 12.027064732142858  3.688151041666667 11.383556547619047  2.212890625 10.571428571428571  C 0.7376302083333333 9.75930059523809  0 8.878348214285712  0 7.928571428571429  L 0 5.285714285714287  C 0 4.3359375  0.7376302083333333 3.454985119047618  2.212890625 2.6428571428571415  C 3.688151041666667 1.8307291666666652  5.693359375 1.1872209821428583  8.228515625 0.7123325892857125  Z " fill-rule="nonzero" fill="rgba(0, 0, 0, 1)" stroke="none" transform="matrix(1 0 0 1 184 938 )" class="fill" />
    <path d="M 6.982421875 14.969308035714288  C 9.932942708333334 15.56119791666667  13.10546875 15.857142857142858  16.5 15.857142857142858  C 19.89453125 15.857142857142858  23.067057291666668 15.56119791666667  26.017578125 14.969308035714288  C 28.96809895833334 14.377418154761902  31.295572916666668 13.503348214285712  33 12.347098214285712  L 33 15.857142857142858  C 33 16.806919642857142  32.262369791666664 17.687872023809522  30.787109375 18.5  C 29.311848958333336 19.31212797619047  27.306640625 19.955636160714285  24.771484375 20.43052455357143  C 22.236328125 20.90541294642857  19.479166666666668 21.142857142857142  16.5 21.142857142857142  C 13.520833333333334 21.142857142857142  10.763671875 20.90541294642857  8.228515625 20.43052455357143  C 5.693359375 19.955636160714285  3.688151041666667 19.31212797619047  2.212890625 18.5  C 0.7376302083333333 17.687872023809522  0 16.806919642857142  0 15.857142857142858  L 0 12.347098214285712  C 1.7044270833333335 13.503348214285712  4.031901041666667 14.377418154761902  6.982421875 14.969308035714288  Z " stroke-width="0" stroke-dasharray="0" stroke="rgba(255, 255, 255, 0)" fill="none" transform="matrix(1 0 0 1 184 938 )" class="stroke" mask="url(#Clip551)" />
    <path d="M 6.982421875 30.826450892857142  C 9.932942708333334 31.41834077380953  13.10546875 31.714285714285715  16.5 31.714285714285715  C 19.89453125 31.714285714285715  23.067057291666668 31.41834077380953  26.017578125 30.826450892857142  C 28.96809895833334 30.23456101190476  31.295572916666668 29.36049107142857  33 28.20424107142857  L 33 31.714285714285715  C 33 32.6640625  32.262369791666664 33.54501488095238  30.787109375 34.35714285714286  C 29.311848958333336 35.16927083333333  27.306640625 35.81277901785714  24.771484375 36.287667410714285  C 22.236328125 36.76255580357143  19.479166666666668 37  16.5 37  C 13.520833333333334 37  10.763671875 36.76255580357143  8.228515625 36.287667410714285  C 5.693359375 35.81277901785714  3.688151041666667 35.16927083333333  2.212890625 34.35714285714286  C 0.7376302083333333 33.54501488095238  0 32.6640625  0 31.714285714285715  L 0 28.20424107142857  C 1.7044270833333335 29.36049107142857  4.031901041666667 30.23456101190476  6.982421875 30.826450892857142  Z " stroke-width="0" stroke-dasharray="0" stroke="rgba(255, 255, 255, 0)" fill="none" transform="matrix(1 0 0 1 184 938 )" class="stroke" mask="url(#Clip551)" />
    <path d="M 6.982421875 22.897879464285715  C 9.932942708333334 23.489769345238095  13.10546875 23.785714285714285  16.5 23.785714285714285  C 19.89453125 23.785714285714285  23.067057291666668 23.489769345238095  26.017578125 22.897879464285715  C 28.96809895833334 22.305989583333332  31.295572916666668 21.431919642857142  33 20.275669642857142  L 33 23.785714285714285  C 33 24.73549107142857  32.262369791666664 25.61644345238095  30.787109375 26.42857142857143  C 29.311848958333336 27.240699404761905  27.306640625 27.884207589285715  24.771484375 28.359095982142858  C 22.236328125 28.833984375  19.479166666666668 29.07142857142857  16.5 29.07142857142857  C 13.520833333333334 29.07142857142857  10.763671875 28.833984375  8.228515625 28.359095982142858  C 5.693359375 27.884207589285715  3.688151041666667 27.240699404761905  2.212890625 26.42857142857143  C 0.7376302083333333 25.61644345238095  0 24.73549107142857  0 23.785714285714285  L 0 20.275669642857142  C 1.7044270833333335 21.431919642857142  4.031901041666667 22.305989583333332  6.982421875 22.897879464285715  Z " stroke-width="0" stroke-dasharray="0" stroke="rgba(255, 255, 255, 0)" fill="none" transform="matrix(1 0 0 1 184 938 )" class="stroke" mask="url(#Clip551)" />
    <path d="M 8.228515625 0.7123325892857125  C 10.763671875 0.23744419642857084  13.520833333333334 0  16.5 0  C 19.479166666666668 0  22.236328125 0.23744419642857084  24.771484375 0.7123325892857125  C 27.306640625 1.1872209821428583  29.311848958333336 1.8307291666666652  30.787109375 2.6428571428571415  C 32.262369791666664 3.454985119047618  33 4.3359375  33 5.285714285714287  L 33 7.928571428571429  C 33 8.878348214285712  32.262369791666664 9.75930059523809  30.787109375 10.571428571428571  C 29.311848958333336 11.383556547619047  27.306640625 12.027064732142858  24.771484375 12.501953125  C 22.236328125 12.976841517857142  19.479166666666668 13.214285714285712  16.5 13.214285714285712  C 13.520833333333334 13.214285714285712  10.763671875 12.976841517857142  8.228515625 12.501953125  C 5.693359375 12.027064732142858  3.688151041666667 11.383556547619047  2.212890625 10.571428571428571  C 0.7376302083333333 9.75930059523809  0 8.878348214285712  0 7.928571428571429  L 0 5.285714285714287  C 0 4.3359375  0.7376302083333333 3.454985119047618  2.212890625 2.6428571428571415  C 3.688151041666667 1.8307291666666652  5.693359375 1.1872209821428583  8.228515625 0.7123325892857125  Z " stroke-width="0" stroke-dasharray="0" stroke="rgba(255, 255, 255, 0)" fill="none" transform="matrix(1 0 0 1 184 938 )" class="stroke" mask="url(#Clip551)" />
  </g>
</svg>