<?xml version="1.0" encoding="utf-8"?>
<svg version="1.1" xmlns:xlink="http://www.w3.org/1999/xlink" width="39px" height="28px" xmlns="http://www.w3.org/2000/svg">
  <defs>
    <pattern id="BGPattern" patternUnits="userSpaceOnUse" alignment="0 0" imageRepeat="None" />
    <mask fill="white" id="Clip120">
      <path d="M 38.449973390101114 15.53125  C 38.816657796700376 15.703598484848484  39 15.988636363636363  39 16.386363636363637  C 39 16.797348484848484  38.78552421500798 17.234848484848484  38.356572645023945 17.698863636363637  L 31.382650345928685 25.573863636363637  C 30.78765300691858 26.25  29.953964874933476 26.82339015151515  28.881585949973392 27.29403409090909  C 27.809207025013308 27.76467803030303  26.81639169771155 28  25.90313996806812 28  L 3.3209153805215537 28  C 2.8504523682810006 28  2.4318786588610966 27.913825757575758  2.065194252261841 27.741477272727273  C 1.6985098456625867 27.569128787878785  1.5151676423629592 27.28409090909091  1.5151676423629592 26.886363636363637  C 1.5151676423629592 26.475378787878785  1.7296434273549761 26.03787878787879  2.15859499733901 25.573863636363637  L 9.132517296434273 17.698863636363637  C 9.727514635444386 17.022727272727273  10.561202767429483 16.449337121212118  11.63358169238957 15.978693181818182  C 12.705960617349655 15.508049242424239  13.69877594465141 15.272727272727272  14.612027674294836 15  L 37.194252261841406 15  C 37.664715274081956 15.272727272727272  38.083288983501866 15.358901515151514  38.449973390101114 15.53125  Z M 30.51091005854178 6.40340909090909  C 31.424161788185206 7.27840909090909  31.880787653006916 8.325757575757573  31.880787653006916 9.545454545454547  L 31.880787653006916 13  L 14.612027674294836 13  C 13.311335816923895 12.727272727272728  11.948376796168176 13.042140151515152  10.523150612027674 13.671875  C 9.097924427887174 14.301609848484848  7.963278339542311 15.09375  7.1192123469930815 16.048295454545457  L 0.12453432676955827 23.923295454545453  L 0.020755721128259713 24.042613636363637  C 0.020755721128259713 23.989583333333332  0.017296434273549762 23.906723484848488  0.010377860564129857 23.794034090909093  C 0.003459286854709952 23.681344696969695  0 23.59848484848485  0 23.545454545454547  L 0 4.454545454545453  C 0 3.2348484848484804  0.45662586482171363 2.1875  1.3698775944651411 1.3125  C 2.2831293241085686 0.4375  3.3762639701969137 0  4.649281532730176 0  L 11.291112293773283 0  C 12.564129856306547 0  13.65726450239489 0.4375  14.570516232038319 1.3125  C 15.483767961681744 2.1875  15.940393826503458 3.2348484848484804  15.940393826503458 4.454545454545453  L 15.940393826503458 5  L 27.231506120276745 5  C 28.50452368281001 5.09090909090909  29.597658328898348 5.52840909090909  30.51091005854178 6.40340909090909  Z " fill-rule="evenodd" />
    </mask>
  </defs>
  <g transform="matrix(1 0 0 1 -86 -1145 )">
    <path d="M 38.449973390101114 15.53125  C 38.816657796700376 15.703598484848484  39 15.988636363636363  39 16.386363636363637  C 39 16.797348484848484  38.78552421500798 17.234848484848484  38.356572645023945 17.698863636363637  L 31.382650345928685 25.573863636363637  C 30.78765300691858 26.25  29.953964874933476 26.82339015151515  28.881585949973392 27.29403409090909  C 27.809207025013308 27.76467803030303  26.81639169771155 28  25.90313996806812 28  L 3.3209153805215537 28  C 2.8504523682810006 28  2.4318786588610966 27.913825757575758  2.065194252261841 27.741477272727273  C 1.6985098456625867 27.569128787878785  1.5151676423629592 27.28409090909091  1.5151676423629592 26.886363636363637  C 1.5151676423629592 26.475378787878785  1.7296434273549761 26.03787878787879  2.15859499733901 25.573863636363637  L 9.132517296434273 17.698863636363637  C 9.727514635444386 17.022727272727273  10.561202767429483 16.449337121212118  11.63358169238957 15.978693181818182  C 12.705960617349655 15.508049242424239  13.69877594465141 15.272727272727272  14.612027674294836 15  L 37.194252261841406 15  C 37.664715274081956 15.272727272727272  38.083288983501866 15.358901515151514  38.449973390101114 15.53125  Z M 30.51091005854178 6.40340909090909  C 31.424161788185206 7.27840909090909  31.880787653006916 8.325757575757573  31.880787653006916 9.545454545454547  L 31.880787653006916 13  L 14.612027674294836 13  C 13.311335816923895 12.727272727272728  11.948376796168176 13.042140151515152  10.523150612027674 13.671875  C 9.097924427887174 14.301609848484848  7.963278339542311 15.09375  7.1192123469930815 16.048295454545457  L 0.12453432676955827 23.923295454545453  L 0.020755721128259713 24.042613636363637  C 0.020755721128259713 23.989583333333332  0.017296434273549762 23.906723484848488  0.010377860564129857 23.794034090909093  C 0.003459286854709952 23.681344696969695  0 23.59848484848485  0 23.545454545454547  L 0 4.454545454545453  C 0 3.2348484848484804  0.45662586482171363 2.1875  1.3698775944651411 1.3125  C 2.2831293241085686 0.4375  3.3762639701969137 0  4.649281532730176 0  L 11.291112293773283 0  C 12.564129856306547 0  13.65726450239489 0.4375  14.570516232038319 1.3125  C 15.483767961681744 2.1875  15.940393826503458 3.2348484848484804  15.940393826503458 4.454545454545453  L 15.940393826503458 5  L 27.231506120276745 5  C 28.50452368281001 5.09090909090909  29.597658328898348 5.52840909090909  30.51091005854178 6.40340909090909  Z " fill-rule="nonzero" fill="rgba(0, 0, 0, 1)" stroke="none" transform="matrix(1 0 0 1 86 1145 )" class="fill" />
    <path d="M 38.449973390101114 15.53125  C 38.816657796700376 15.703598484848484  39 15.988636363636363  39 16.386363636363637  C 39 16.797348484848484  38.78552421500798 17.234848484848484  38.356572645023945 17.698863636363637  L 31.382650345928685 25.573863636363637  C 30.78765300691858 26.25  29.953964874933476 26.82339015151515  28.881585949973392 27.29403409090909  C 27.809207025013308 27.76467803030303  26.81639169771155 28  25.90313996806812 28  L 3.3209153805215537 28  C 2.8504523682810006 28  2.4318786588610966 27.913825757575758  2.065194252261841 27.741477272727273  C 1.6985098456625867 27.569128787878785  1.5151676423629592 27.28409090909091  1.5151676423629592 26.886363636363637  C 1.5151676423629592 26.475378787878785  1.7296434273549761 26.03787878787879  2.15859499733901 25.573863636363637  L 9.132517296434273 17.698863636363637  C 9.727514635444386 17.022727272727273  10.561202767429483 16.449337121212118  11.63358169238957 15.978693181818182  C 12.705960617349655 15.508049242424239  13.69877594465141 15.272727272727272  14.612027674294836 15  L 37.194252261841406 15  C 37.664715274081956 15.272727272727272  38.083288983501866 15.358901515151514  38.449973390101114 15.53125  Z " stroke-width="0" stroke-dasharray="0" stroke="rgba(255, 255, 255, 0)" fill="none" transform="matrix(1 0 0 1 86 1145 )" class="stroke" mask="url(#Clip120)" />
    <path d="M 30.51091005854178 6.40340909090909  C 31.424161788185206 7.27840909090909  31.880787653006916 8.325757575757573  31.880787653006916 9.545454545454547  L 31.880787653006916 13  L 14.612027674294836 13  C 13.311335816923895 12.727272727272728  11.948376796168176 13.042140151515152  10.523150612027674 13.671875  C 9.097924427887174 14.301609848484848  7.963278339542311 15.09375  7.1192123469930815 16.048295454545457  L 0.12453432676955827 23.923295454545453  L 0.020755721128259713 24.042613636363637  C 0.020755721128259713 23.989583333333332  0.017296434273549762 23.906723484848488  0.010377860564129857 23.794034090909093  C 0.003459286854709952 23.681344696969695  0 23.59848484848485  0 23.545454545454547  L 0 4.454545454545453  C 0 3.2348484848484804  0.45662586482171363 2.1875  1.3698775944651411 1.3125  C 2.2831293241085686 0.4375  3.3762639701969137 0  4.649281532730176 0  L 11.291112293773283 0  C 12.564129856306547 0  13.65726450239489 0.4375  14.570516232038319 1.3125  C 15.483767961681744 2.1875  15.940393826503458 3.2348484848484804  15.940393826503458 4.454545454545453  L 15.940393826503458 5  L 27.231506120276745 5  C 28.50452368281001 5.09090909090909  29.597658328898348 5.52840909090909  30.51091005854178 6.40340909090909  Z " stroke-width="0" stroke-dasharray="0" stroke="rgba(255, 255, 255, 0)" fill="none" transform="matrix(1 0 0 1 86 1145 )" class="stroke" mask="url(#Clip120)" />
  </g>
</svg>