<?xml version="1.0" encoding="utf-8"?>
<svg version="1.1" xmlns:xlink="http://www.w3.org/1999/xlink" width="20px" height="21px" preserveAspectRatio="xMidYMin meet" viewBox="501 1092 18 21" xmlns="http://www.w3.org/2000/svg">
  <defs>
    <mask fill="white" id="Clip556">
      <path d="M 488 1025  L 532 1025  L 532 1051  L 488 1051  Z M 488 959  L 532 959  L 532 1116  L 488 1116  Z " fill-rule="evenodd" />
    </mask>
  </defs>
  <path d="M 510 1025  L 510 971  M 510 1051  L 510 1104  " stroke-width="2" stroke-dasharray="0" stroke="rgba(0, 153, 204, 1)" fill="none" class="stroke" />
  <path d="M 510 1099  A 3.5 3.5 0 0 0 506.5 1102.5 A 3.5 3.5 0 0 0 510 1106 A 3.5 3.5 0 0 0 513.5 1102.5 A 3.5 3.5 0 0 0 510 1099 Z M 505.70710678118655 976.1071067811865  L 510 971.8142135623731  L 514.2928932188134 976.1071067811865  L 515.7071067811866 974.6928932188134  L 510.70710678118655 969.6928932188134  L 510 968.9857864376269  L 509.29289321881345 969.6928932188134  L 504.29289321881345 974.6928932188134  L 505.70710678118655 976.1071067811865  Z " fill-rule="nonzero" fill="rgba(0, 153, 204, 1)" stroke="none" class="fill" mask="url(#Clip556)" />
</svg>