<?xml version="1.0" encoding="utf-8"?>
<svg version="1.1" xmlns:xlink="http://www.w3.org/1999/xlink" width="20px" height="21px" preserveAspectRatio="xMidYMin meet" viewBox="501 1195 18 21" xmlns="http://www.w3.org/2000/svg">
  <defs>
    <mask fill="white" id="Clip547">
      <path d="M 488 1156  L 532 1156  L 532 1182  L 488 1182  Z M 488 1120  L 532 1120  L 532 1219  L 488 1219  Z " fill-rule="evenodd" />
    </mask>
  </defs>
  <path d="M 510 1156  L 510 1132  M 510 1182  L 510 1207  " stroke-width="2" stroke-dasharray="0" stroke="rgba(0, 153, 204, 1)" fill="none" class="stroke" />
  <path d="M 510 1202  A 3.5 3.5 0 0 0 506.5 1205.5 A 3.5 3.5 0 0 0 510 1209 A 3.5 3.5 0 0 0 513.5 1205.5 A 3.5 3.5 0 0 0 510 1202 Z M 505.70710678118655 1137.1071067811865  L 510 1132.814213562373  L 514.2928932188134 1137.1071067811865  L 515.7071067811866 1135.6928932188137  L 510.70710678118655 1130.6928932188137  L 510 1129.9857864376272  L 509.29289321881345 1130.6928932188137  L 504.29289321881345 1135.6928932188137  L 505.70710678118655 1137.1071067811865  Z " fill-rule="nonzero" fill="rgba(0, 153, 204, 1)" stroke="none" class="fill" mask="url(#Clip547)" />
</svg>