<?xml version="1.0" encoding="utf-8"?>
<svg version="1.1" xmlns:xlink="http://www.w3.org/1999/xlink" width="21px" height="20px" preserveAspectRatio="xMinYMid meet" viewBox="446 948 21 18" xmlns="http://www.w3.org/2000/svg">
  <defs>
    <mask fill="white" id="Clip353">
      <path d="M 316 944  L 360 944  L 360 970  L 316 970  Z M 207 944  L 470 944  L 470 970  L 207 970  Z " fill-rule="evenodd" />
    </mask>
  </defs>
  <path d="M 316 957  L 219 957  M 360 957  L 458 957  " stroke-width="2" stroke-dasharray="0" stroke="rgba(0, 153, 204, 1)" fill="none" class="stroke" />
  <path d="M 456.5 953.5  A 3.5 3.5 0 0 0 453 957 A 3.5 3.5 0 0 0 456.5 960.5 A 3.5 3.5 0 0 0 460 957 A 3.5 3.5 0 0 0 456.5 953.5 Z M 224.10710678118656 961.2928932188134  L 219.8142135623731 957  L 224.10710678118656 952.7071067811866  L 222.69289321881345 951.2928932188134  L 217.69289321881345 956.2928932188134  L 216.9857864376269 957  L 217.69289321881345 957.7071067811866  L 222.69289321881345 962.7071067811866  L 224.10710678118656 961.2928932188134  Z " fill-rule="nonzero" fill="rgba(0, 153, 204, 1)" stroke="none" class="fill" mask="url(#Clip353)" />
</svg>