<?xml version="1.0" encoding="utf-8"?>
<svg version="1.1" xmlns:xlink="http://www.w3.org/1999/xlink" width="20px" height="20px" preserveAspectRatio="xMinYMid meet" viewBox="332 1159 20 18" xmlns="http://www.w3.org/2000/svg">
  <defs>
    <mask fill="white" id="Clip45">
      <path d="M 398 1150  L 442 1150  L 442 1176  L 398 1176  Z M 330 1108  L 470 1108  L 470 1178  L 330 1178  Z " fill-rule="evenodd" />
    </mask>
  </defs>
  <path d="M 458 1118  L 425 1118  A 5 5 0 0 0 420 1123 L 420 1163  A 5 5 0 0 1 415 1168 L 342 1168  " stroke-width="2" stroke-dasharray="0" stroke="rgba(0, 153, 204, 1)" fill="none" class="stroke" mask="url(#Clip45)" />
  <path d="M 456.5 1114.5  A 3.5 3.5 0 0 0 453 1118 A 3.5 3.5 0 0 0 456.5 1121.5 A 3.5 3.5 0 0 0 460 1118 A 3.5 3.5 0 0 0 456.5 1114.5 Z M 347.10710678118653 1172.2928932188136  L 342.81421356237297 1168  L 347.10710678118653 1163.7071067811864  L 345.6928932188134 1162.2928932188136  L 340.6928932188134 1167.2928932188136  L 339.985786437627 1168  L 340.6928932188134 1168.7071067811864  L 345.6928932188134 1173.7071067811864  L 347.10710678118653 1172.2928932188136  Z " fill-rule="nonzero" fill="rgba(0, 153, 204, 1)" stroke="none" class="fill" mask="url(#Clip45)" />
</svg>