<?xml version="1.0" encoding="utf-8"?>
<svg version="1.1" xmlns:xlink="http://www.w3.org/1999/xlink" width="20px" height="20px" preserveAspectRatio="xMinYMid meet" viewBox="701 1140 20 18" xmlns="http://www.w3.org/2000/svg">
  <path d="M 839 1134  L 780 1134  A 5 5 0 0 0 775 1139 L 775 1144  A 5 5 0 0 1 770 1149 L 711 1149  " stroke-width="2" stroke-dasharray="0" stroke="rgba(0, 153, 204, 1)" fill="none" class="stroke" />
  <path d="M 837.5 1130.5  A 3.5 3.5 0 0 0 834 1134 A 3.5 3.5 0 0 0 837.5 1137.5 A 3.5 3.5 0 0 0 841 1134 A 3.5 3.5 0 0 0 837.5 1130.5 Z M 716.1071067811865 1153.2928932188136  L 711.814213562373 1149  L 716.1071067811865 1144.7071067811864  L 714.6928932188134 1143.2928932188136  L 709.6928932188134 1148.2928932188136  L 708.985786437627 1149  L 709.6928932188134 1149.7071067811864  L 714.6928932188134 1154.7071067811864  L 716.1071067811865 1153.2928932188136  Z " fill-rule="nonzero" fill="rgba(0, 153, 204, 1)" stroke="none" class="fill" />
</svg>