<?xml version="1.0" encoding="utf-8"?>
<svg version="1.1" xmlns:xlink="http://www.w3.org/1999/xlink" width="16px" height="10px" preserveAspectRatio="xMinYMid meet" viewBox="465 1761 16 8" xmlns="http://www.w3.org/2000/svg">
  <path d="M 293 2011  L 465 2011  A 5 5 0 0 0 470 2006 L 470 1770  A 5 5 0 0 1 475 1765 L 475 1765  " stroke-width="2" stroke-dasharray="0" stroke="rgba(88, 0, 170, 1)" fill="none" class="stroke" />
  <path d="M 294.5 2007.5  A 3.5 3.5 0 0 0 291 2011 A 3.5 3.5 0 0 0 294.5 2014.5 A 3.5 3.5 0 0 0 298 2011 A 3.5 3.5 0 0 0 294.5 2007.5 Z M 474 1772.6  L 481 1765  L 474 1757.4  L 474 1772.6  Z " fill-rule="nonzero" fill="rgba(88, 0, 170, 1)" stroke="none" class="fill" />
</svg>