<?xml version="1.0" encoding="utf-8"?>
<svg version="1.1" xmlns:xlink="http://www.w3.org/1999/xlink" width="23px" height="15px" xmlns="http://www.w3.org/2000/svg">
  <defs>
    <pattern id="BGPattern" patternUnits="userSpaceOnUse" alignment="0 0" imageRepeat="None" />
    <mask fill="white" id="Clip224">
      <path d="M 23 3.32608695652174  C 23 3.582125603864734  22.90963606286187 3.8019323671497576  22.72890818858561 3.985507246376811  L 12.142059553349874 14.72463768115942  C 11.961331679073616 14.908212560386474  11.747311827956988 15  11.5 15  C 11.252688172043012 15  11.038668320926387 14.908212560386474  10.857940446650124 14.72463768115942  L 0.2710918114143921 3.985507246376811  C 0.09036393713813082 3.8019323671497576  0 3.582125603864734  0 3.32608695652174  C 0 3.070048309178742  0.09036393713813082 2.850241545893719  0.2710918114143921 2.666666666666667  L 2.639578163771712 0.2753623188405796  C 2.8203060380479736 0.09178743961352598  3.034325889164599 0  3.281637717121588 0  C 3.528949545078578 0  3.7429693961952033 0.09178743961352598  3.923697270471464 0.2753623188405796  L 11.5 7.971014492753622  L 19.076302729528535 0.2753623188405796  C 19.2570306038048 0.09178743961352598  19.471050454921425 0  19.718362282878413 0  C 19.965674110835405 0  20.17969396195203 0.09178743961352598  20.360421836228287 0.2753623188405796  L 22.72890818858561 2.666666666666667  C 22.90963606286187 2.850241545893719  23 3.070048309178742  23 3.32608695652174  Z " fill-rule="evenodd" />
    </mask>
  </defs>
  <g transform="matrix(1 0 0 1 -1441 -1324 )">
    <path d="M 23 3.32608695652174  C 23 3.582125603864734  22.90963606286187 3.8019323671497576  22.72890818858561 3.985507246376811  L 12.142059553349874 14.72463768115942  C 11.961331679073616 14.908212560386474  11.747311827956988 15  11.5 15  C 11.252688172043012 15  11.038668320926387 14.908212560386474  10.857940446650124 14.72463768115942  L 0.2710918114143921 3.985507246376811  C 0.09036393713813082 3.8019323671497576  0 3.582125603864734  0 3.32608695652174  C 0 3.070048309178742  0.09036393713813082 2.850241545893719  0.2710918114143921 2.666666666666667  L 2.639578163771712 0.2753623188405796  C 2.8203060380479736 0.09178743961352598  3.034325889164599 0  3.281637717121588 0  C 3.528949545078578 0  3.7429693961952033 0.09178743961352598  3.923697270471464 0.2753623188405796  L 11.5 7.971014492753622  L 19.076302729528535 0.2753623188405796  C 19.2570306038048 0.09178743961352598  19.471050454921425 0  19.718362282878413 0  C 19.965674110835405 0  20.17969396195203 0.09178743961352598  20.360421836228287 0.2753623188405796  L 22.72890818858561 2.666666666666667  C 22.90963606286187 2.850241545893719  23 3.070048309178742  23 3.32608695652174  Z " fill-rule="nonzero" fill="rgba(0, 0, 0, 1)" stroke="none" transform="matrix(1 0 0 1 1441 1324 )" class="fill" />
    <path d="M 23 3.32608695652174  C 23 3.582125603864734  22.90963606286187 3.8019323671497576  22.72890818858561 3.985507246376811  L 12.142059553349874 14.72463768115942  C 11.961331679073616 14.908212560386474  11.747311827956988 15  11.5 15  C 11.252688172043012 15  11.038668320926387 14.908212560386474  10.857940446650124 14.72463768115942  L 0.2710918114143921 3.985507246376811  C 0.09036393713813082 3.8019323671497576  0 3.582125603864734  0 3.32608695652174  C 0 3.070048309178742  0.09036393713813082 2.850241545893719  0.2710918114143921 2.666666666666667  L 2.639578163771712 0.2753623188405796  C 2.8203060380479736 0.09178743961352598  3.034325889164599 0  3.281637717121588 0  C 3.528949545078578 0  3.7429693961952033 0.09178743961352598  3.923697270471464 0.2753623188405796  L 11.5 7.971014492753622  L 19.076302729528535 0.2753623188405796  C 19.2570306038048 0.09178743961352598  19.471050454921425 0  19.718362282878413 0  C 19.965674110835405 0  20.17969396195203 0.09178743961352598  20.360421836228287 0.2753623188405796  L 22.72890818858561 2.666666666666667  C 22.90963606286187 2.850241545893719  23 3.070048309178742  23 3.32608695652174  Z " stroke-width="0" stroke-dasharray="0" stroke="rgba(255, 255, 255, 0)" fill="none" transform="matrix(1 0 0 1 1441 1324 )" class="stroke" mask="url(#Clip224)" />
  </g>
</svg>