<?xml version="1.0" encoding="utf-8"?>
<svg version="1.1" xmlns:xlink="http://www.w3.org/1999/xlink" width="7px" height="14px" xmlns="http://www.w3.org/2000/svg">
  <defs>
    <pattern id="BGPattern" patternUnits="userSpaceOnUse" alignment="0 0" imageRepeat="None" />
    <mask fill="white" id="Clip259">
      <path d="M 6.902569593147752 8.5234375  C 6.967523197715918 8.752604166666666  7.000000000000002 8.997395833333332  7 9.2578125  C 7.000000000000002 10.0546875  6.751427551748752 10.740885416666666  6.254282655246253 11.31640625  C 5.757137758743754 11.891927083333334  5.1113490364025695 12.247395833333334  4.316916488222698 12.3828125  L 4.316916488222698 13.75  C 4.316916488222698 13.822916666666666  4.294432548179872 13.8828125  4.249464668094219 13.9296875  C 4.204496788008565 13.9765625  4.1470378301213415 14  4.077087794432548 14  L 3.065310492505353 14  C 3.000356887937188 14  2.9441470378301213 13.975260416666666  2.896680942184154 13.92578125  C 2.849214846538187 13.876302083333334  2.825481798715203 13.817708333333334  2.825481798715203 13.75  L 2.825481798715203 12.3828125  C 2.4957173447537473 12.3359375  2.177194860813705 12.255208333333334  1.869914346895075 12.140625  C 1.5626338329764453 12.026041666666666  1.3090649536045684 11.91015625  1.1092077087794432 11.79296875  C 0.9093504639543184 11.67578125  0.7244825124910779 11.55078125  0.5546038543897216 11.41796875  C 0.38472519628836555 11.28515625  0.26855817273376165 11.1875  0.20610278372591007 11.125  C 0.14364739471805857 11.0625  0.09992862241256248 11.015625  0.07494646680942184 10.984375  C -0.009992862241256211 10.875  -0.014989293361884369 10.768229166666666  0.059957173447537475 10.6640625  L 0.8319057815845824 9.609375  C 0.8668807994289794 9.557291666666666  0.9243397573162029 9.526041666666666  1.0042826552462527 9.515625  C 1.0792291220556745 9.505208333333332  1.1391862955032122 9.528645833333332  1.1841541755888652 9.5859375  L 1.1991434689507494 9.6015625  C 1.7637401855817276 10.1171875  2.3708065667380445 10.442708333333334  3.0203426124197 10.578125  C 3.205210563882941 10.619791666666666  3.3900785153461817 10.640625  3.5749464668094215 10.640625  C 3.9796573875802994 10.640625  4.335653104925053 10.528645833333332  4.642933618843683 10.3046875  C 4.950214132762313 10.080729166666666  5.1038543897216275 9.763020833333332  5.1038543897216275 9.3515625  C 5.1038543897216275 9.205729166666666  5.0663811563169165 9.067708333333332  4.991434689507495 8.9375  C 4.916488222698073 8.807291666666666  4.832798001427552 8.697916666666666  4.740364025695931 8.609375  C 4.6479300499643115 8.520833333333332  4.50178443968594 8.423177083333332  4.301927194860814 8.31640625  C 4.102069950035689 8.209635416666664  3.9371877230549606 8.126302083333332  3.8072805139186294 8.06640625  C 3.677373304782299 8.006510416666666  3.477516059957173 7.921875  3.207708779443255 7.8125  C 3.0128479657387577 7.729166666666666  2.859207708779443 7.6640625  2.7467880085653107 7.6171875  C 2.6343683083511777 7.570312500000001  2.4807280513918633 7.501302083333333  2.2858672376873663 7.41015625  C 2.0910064239828694 7.319010416666666  1.9348679514632408 7.23828125  1.8174518201284797 7.167968749999999  C 1.7000356887937191 7.09765625  1.5588865096359743 7.005208333333332  1.3940042826552463 6.890625  C 1.2291220556745182 6.776041666666666  1.095467523197716 6.665364583333333  0.9930406852248393 6.558593749999999  C 0.8906138472519629 6.451822916666665  0.7819414703783013 6.32421875  0.6670235546038543 6.175781249999999  C 0.5521056388294077 6.027343749999999  0.4634189864382584 5.876302083333332  0.4009635974304069 5.72265625  C 0.33850820842255536 5.569010416666666  0.28604568165596006 5.395833333333333  0.243576017130621 5.203125  C 0.201106352605282 5.010416666666667  0.17987152034261242 4.807291666666666  0.17987152034261242 4.59375  C 0.17987152034261242 3.875  0.42469664525339035 3.2447916666666656  0.9143468950749464 2.703124999999999  C 1.4039971448965027 2.1614583333333313  2.0410421127765885 1.8124999999999998  2.825481798715203 1.6562499999999996  L 2.825481798715203 0.25000000000000067  C 2.825481798715203 0.18229166666666563  2.849214846538187 0.12369791666666652  2.896680942184154 0.07421875000000022  C 2.9441470378301213 0.024739583333333925  3.000356887937188 0  3.065310492505353 0  L 4.077087794432548 0  C 4.1470378301213415 0  4.204496788008565 0.023437499999999334  4.249464668094219 0.07031249999999956  C 4.294432548179872 0.11718749999999978  4.316916488222698 0.17708333333333193  4.316916488222698 0.25000000000000067  L 4.316916488222698 1.6250000000000004  C 4.601713062098501 1.6562499999999996  4.877765881513205 1.7161458333333317  5.145074946466809 1.8046875  C 5.412384011420414 1.8932291666666667  5.629728765167738 1.9804687500000004  5.79710920770878 2.0664062499999996  C 5.964489650249822 2.15234375  6.123126338329765 2.25  6.273019271948608 2.359375  C 6.422912205567452 2.46875  6.5203426124197 2.5442708333333313  6.565310492505353 2.5859374999999996  C 6.610278372591006 2.627604166666666  6.647751605995717 2.6640625000000004  6.677730192719486 2.6953124999999996  C 6.762669521770165 2.7890625  6.775160599571734 2.8880208333333326  6.715203426124197 2.9921875000000004  L 6.10813704496788 4.132812500000001  C 6.0681655960028555 4.2109375  6.010706638115632 4.252604166666666  5.935760171306209 4.2578125  C 5.865810135617417 4.2734375  5.798358315488937 4.255208333333332  5.73340471092077 4.203125  C 5.718415417558886 4.187500000000001  5.682191291934333 4.15625  5.624732334047109 4.109375  C 5.567273376159887 4.0625  5.4698429693076385 3.9934895833333313  5.332441113490364 3.90234375  C 5.195039257673091 3.811197916666666  5.048893647394719 3.727864583333333  4.894004282655246 3.6523437499999996  C 4.739114917915775 3.576822916666666  4.552997858672377 3.509114583333333  4.335653104925053 3.449218750000001  C 4.11830835117773 3.389322916666665  3.904710920770878 3.359374999999999  3.694860813704497 3.359374999999999  C 3.2201998572448254 3.359374999999999  2.8329764453961457 3.471354166666665  2.5331905781584583 3.695312500000001  C 2.233404710920771 3.919270833333333  2.0835117773019274 4.208333333333332  2.0835117773019274 4.562499999999999  C 2.0835117773019274 4.697916666666666  2.104746609564597 4.822916666666666  2.147216274089936 4.9375  C 2.1896859386152747 5.052083333333332  2.2633832976445394 5.16015625  2.3683083511777303 5.26171875  C 2.473233404710921 5.363281250000001  2.5719129193433266 5.44921875  2.6643468950749463 5.519531249999999  C 2.7567808708065673 5.58984375  2.896680942184154 5.670572916666666  3.0840471092077086 5.76171875  C 3.271413276231263 5.852864583333331  3.4225553176302643 5.923177083333332  3.537473233404711 5.97265625  C 3.6523911491791576 6.022135416666667  3.827266238401142 6.093749999999999  4.062098501070664 6.1875  C 4.326909350463955 6.291666666666666  4.529264810849394 6.373697916666666  4.669164882226981 6.43359375  C 4.809064953604569 6.493489583333334  4.998929336188437 6.584635416666666  5.2387580299785865 6.70703125  C 5.4785867237687365 6.829427083333333  5.667201998572448 6.940104166666666  5.804603854389722 7.0390625  C 5.942005710206996 7.138020833333333  6.096895074946468 7.268229166666666  6.269271948608137 7.4296875  C 6.4416488222698085 7.591145833333332  6.574054246966454 7.756510416666666  6.666488222698073 7.925781250000001  C 6.758922198429693 8.095052083333332  6.837615988579586 8.294270833333332  6.902569593147752 8.5234375  Z " fill-rule="evenodd" />
    </mask>
  </defs>
  <g transform="matrix(1 0 0 1 -1221 -1370 )">
    <path d="M 6.902569593147752 8.5234375  C 6.967523197715918 8.752604166666666  7.000000000000002 8.997395833333332  7 9.2578125  C 7.000000000000002 10.0546875  6.751427551748752 10.740885416666666  6.254282655246253 11.31640625  C 5.757137758743754 11.891927083333334  5.1113490364025695 12.247395833333334  4.316916488222698 12.3828125  L 4.316916488222698 13.75  C 4.316916488222698 13.822916666666666  4.294432548179872 13.8828125  4.249464668094219 13.9296875  C 4.204496788008565 13.9765625  4.1470378301213415 14  4.077087794432548 14  L 3.065310492505353 14  C 3.000356887937188 14  2.9441470378301213 13.975260416666666  2.896680942184154 13.92578125  C 2.849214846538187 13.876302083333334  2.825481798715203 13.817708333333334  2.825481798715203 13.75  L 2.825481798715203 12.3828125  C 2.4957173447537473 12.3359375  2.177194860813705 12.255208333333334  1.869914346895075 12.140625  C 1.5626338329764453 12.026041666666666  1.3090649536045684 11.91015625  1.1092077087794432 11.79296875  C 0.9093504639543184 11.67578125  0.7244825124910779 11.55078125  0.5546038543897216 11.41796875  C 0.38472519628836555 11.28515625  0.26855817273376165 11.1875  0.20610278372591007 11.125  C 0.14364739471805857 11.0625  0.09992862241256248 11.015625  0.07494646680942184 10.984375  C -0.009992862241256211 10.875  -0.014989293361884369 10.768229166666666  0.059957173447537475 10.6640625  L 0.8319057815845824 9.609375  C 0.8668807994289794 9.557291666666666  0.9243397573162029 9.526041666666666  1.0042826552462527 9.515625  C 1.0792291220556745 9.505208333333332  1.1391862955032122 9.528645833333332  1.1841541755888652 9.5859375  L 1.1991434689507494 9.6015625  C 1.7637401855817276 10.1171875  2.3708065667380445 10.442708333333334  3.0203426124197 10.578125  C 3.205210563882941 10.619791666666666  3.3900785153461817 10.640625  3.5749464668094215 10.640625  C 3.9796573875802994 10.640625  4.335653104925053 10.528645833333332  4.642933618843683 10.3046875  C 4.950214132762313 10.080729166666666  5.1038543897216275 9.763020833333332  5.1038543897216275 9.3515625  C 5.1038543897216275 9.205729166666666  5.0663811563169165 9.067708333333332  4.991434689507495 8.9375  C 4.916488222698073 8.807291666666666  4.832798001427552 8.697916666666666  4.740364025695931 8.609375  C 4.6479300499643115 8.520833333333332  4.50178443968594 8.423177083333332  4.301927194860814 8.31640625  C 4.102069950035689 8.209635416666664  3.9371877230549606 8.126302083333332  3.8072805139186294 8.06640625  C 3.677373304782299 8.006510416666666  3.477516059957173 7.921875  3.207708779443255 7.8125  C 3.0128479657387577 7.729166666666666  2.859207708779443 7.6640625  2.7467880085653107 7.6171875  C 2.6343683083511777 7.570312500000001  2.4807280513918633 7.501302083333333  2.2858672376873663 7.41015625  C 2.0910064239828694 7.319010416666666  1.9348679514632408 7.23828125  1.8174518201284797 7.167968749999999  C 1.7000356887937191 7.09765625  1.5588865096359743 7.005208333333332  1.3940042826552463 6.890625  C 1.2291220556745182 6.776041666666666  1.095467523197716 6.665364583333333  0.9930406852248393 6.558593749999999  C 0.8906138472519629 6.451822916666665  0.7819414703783013 6.32421875  0.6670235546038543 6.175781249999999  C 0.5521056388294077 6.027343749999999  0.4634189864382584 5.876302083333332  0.4009635974304069 5.72265625  C 0.33850820842255536 5.569010416666666  0.28604568165596006 5.395833333333333  0.243576017130621 5.203125  C 0.201106352605282 5.010416666666667  0.17987152034261242 4.807291666666666  0.17987152034261242 4.59375  C 0.17987152034261242 3.875  0.42469664525339035 3.2447916666666656  0.9143468950749464 2.703124999999999  C 1.4039971448965027 2.1614583333333313  2.0410421127765885 1.8124999999999998  2.825481798715203 1.6562499999999996  L 2.825481798715203 0.25000000000000067  C 2.825481798715203 0.18229166666666563  2.849214846538187 0.12369791666666652  2.896680942184154 0.07421875000000022  C 2.9441470378301213 0.024739583333333925  3.000356887937188 0  3.065310492505353 0  L 4.077087794432548 0  C 4.1470378301213415 0  4.204496788008565 0.023437499999999334  4.249464668094219 0.07031249999999956  C 4.294432548179872 0.11718749999999978  4.316916488222698 0.17708333333333193  4.316916488222698 0.25000000000000067  L 4.316916488222698 1.6250000000000004  C 4.601713062098501 1.6562499999999996  4.877765881513205 1.7161458333333317  5.145074946466809 1.8046875  C 5.412384011420414 1.8932291666666667  5.629728765167738 1.9804687500000004  5.79710920770878 2.0664062499999996  C 5.964489650249822 2.15234375  6.123126338329765 2.25  6.273019271948608 2.359375  C 6.422912205567452 2.46875  6.5203426124197 2.5442708333333313  6.565310492505353 2.5859374999999996  C 6.610278372591006 2.627604166666666  6.647751605995717 2.6640625000000004  6.677730192719486 2.6953124999999996  C 6.762669521770165 2.7890625  6.775160599571734 2.8880208333333326  6.715203426124197 2.9921875000000004  L 6.10813704496788 4.132812500000001  C 6.0681655960028555 4.2109375  6.010706638115632 4.252604166666666  5.935760171306209 4.2578125  C 5.865810135617417 4.2734375  5.798358315488937 4.255208333333332  5.73340471092077 4.203125  C 5.718415417558886 4.187500000000001  5.682191291934333 4.15625  5.624732334047109 4.109375  C 5.567273376159887 4.0625  5.4698429693076385 3.9934895833333313  5.332441113490364 3.90234375  C 5.195039257673091 3.811197916666666  5.048893647394719 3.727864583333333  4.894004282655246 3.6523437499999996  C 4.739114917915775 3.576822916666666  4.552997858672377 3.509114583333333  4.335653104925053 3.449218750000001  C 4.11830835117773 3.389322916666665  3.904710920770878 3.359374999999999  3.694860813704497 3.359374999999999  C 3.2201998572448254 3.359374999999999  2.8329764453961457 3.471354166666665  2.5331905781584583 3.695312500000001  C 2.233404710920771 3.919270833333333  2.0835117773019274 4.208333333333332  2.0835117773019274 4.562499999999999  C 2.0835117773019274 4.697916666666666  2.104746609564597 4.822916666666666  2.147216274089936 4.9375  C 2.1896859386152747 5.052083333333332  2.2633832976445394 5.16015625  2.3683083511777303 5.26171875  C 2.473233404710921 5.363281250000001  2.5719129193433266 5.44921875  2.6643468950749463 5.519531249999999  C 2.7567808708065673 5.58984375  2.896680942184154 5.670572916666666  3.0840471092077086 5.76171875  C 3.271413276231263 5.852864583333331  3.4225553176302643 5.923177083333332  3.537473233404711 5.97265625  C 3.6523911491791576 6.022135416666667  3.827266238401142 6.093749999999999  4.062098501070664 6.1875  C 4.326909350463955 6.291666666666666  4.529264810849394 6.373697916666666  4.669164882226981 6.43359375  C 4.809064953604569 6.493489583333334  4.998929336188437 6.584635416666666  5.2387580299785865 6.70703125  C 5.4785867237687365 6.829427083333333  5.667201998572448 6.940104166666666  5.804603854389722 7.0390625  C 5.942005710206996 7.138020833333333  6.096895074946468 7.268229166666666  6.269271948608137 7.4296875  C 6.4416488222698085 7.591145833333332  6.574054246966454 7.756510416666666  6.666488222698073 7.925781250000001  C 6.758922198429693 8.095052083333332  6.837615988579586 8.294270833333332  6.902569593147752 8.5234375  Z " fill-rule="nonzero" fill="rgba(163, 103, 23, 1)" stroke="none" transform="matrix(1 0 0 1 1221 1370 )" class="fill" />
    <path d="M 6.902569593147752 8.5234375  C 6.967523197715918 8.752604166666666  7.000000000000002 8.997395833333332  7 9.2578125  C 7.000000000000002 10.0546875  6.751427551748752 10.740885416666666  6.254282655246253 11.31640625  C 5.757137758743754 11.891927083333334  5.1113490364025695 12.247395833333334  4.316916488222698 12.3828125  L 4.316916488222698 13.75  C 4.316916488222698 13.822916666666666  4.294432548179872 13.8828125  4.249464668094219 13.9296875  C 4.204496788008565 13.9765625  4.1470378301213415 14  4.077087794432548 14  L 3.065310492505353 14  C 3.000356887937188 14  2.9441470378301213 13.975260416666666  2.896680942184154 13.92578125  C 2.849214846538187 13.876302083333334  2.825481798715203 13.817708333333334  2.825481798715203 13.75  L 2.825481798715203 12.3828125  C 2.4957173447537473 12.3359375  2.177194860813705 12.255208333333334  1.869914346895075 12.140625  C 1.5626338329764453 12.026041666666666  1.3090649536045684 11.91015625  1.1092077087794432 11.79296875  C 0.9093504639543184 11.67578125  0.7244825124910779 11.55078125  0.5546038543897216 11.41796875  C 0.38472519628836555 11.28515625  0.26855817273376165 11.1875  0.20610278372591007 11.125  C 0.14364739471805857 11.0625  0.09992862241256248 11.015625  0.07494646680942184 10.984375  C -0.009992862241256211 10.875  -0.014989293361884369 10.768229166666666  0.059957173447537475 10.6640625  L 0.8319057815845824 9.609375  C 0.8668807994289794 9.557291666666666  0.9243397573162029 9.526041666666666  1.0042826552462527 9.515625  C 1.0792291220556745 9.505208333333332  1.1391862955032122 9.528645833333332  1.1841541755888652 9.5859375  L 1.1991434689507494 9.6015625  C 1.7637401855817276 10.1171875  2.3708065667380445 10.442708333333334  3.0203426124197 10.578125  C 3.205210563882941 10.619791666666666  3.3900785153461817 10.640625  3.5749464668094215 10.640625  C 3.9796573875802994 10.640625  4.335653104925053 10.528645833333332  4.642933618843683 10.3046875  C 4.950214132762313 10.080729166666666  5.1038543897216275 9.763020833333332  5.1038543897216275 9.3515625  C 5.1038543897216275 9.205729166666666  5.0663811563169165 9.067708333333332  4.991434689507495 8.9375  C 4.916488222698073 8.807291666666666  4.832798001427552 8.697916666666666  4.740364025695931 8.609375  C 4.6479300499643115 8.520833333333332  4.50178443968594 8.423177083333332  4.301927194860814 8.31640625  C 4.102069950035689 8.209635416666664  3.9371877230549606 8.126302083333332  3.8072805139186294 8.06640625  C 3.677373304782299 8.006510416666666  3.477516059957173 7.921875  3.207708779443255 7.8125  C 3.0128479657387577 7.729166666666666  2.859207708779443 7.6640625  2.7467880085653107 7.6171875  C 2.6343683083511777 7.570312500000001  2.4807280513918633 7.501302083333333  2.2858672376873663 7.41015625  C 2.0910064239828694 7.319010416666666  1.9348679514632408 7.23828125  1.8174518201284797 7.167968749999999  C 1.7000356887937191 7.09765625  1.5588865096359743 7.005208333333332  1.3940042826552463 6.890625  C 1.2291220556745182 6.776041666666666  1.095467523197716 6.665364583333333  0.9930406852248393 6.558593749999999  C 0.8906138472519629 6.451822916666665  0.7819414703783013 6.32421875  0.6670235546038543 6.175781249999999  C 0.5521056388294077 6.027343749999999  0.4634189864382584 5.876302083333332  0.4009635974304069 5.72265625  C 0.33850820842255536 5.569010416666666  0.28604568165596006 5.395833333333333  0.243576017130621 5.203125  C 0.201106352605282 5.010416666666667  0.17987152034261242 4.807291666666666  0.17987152034261242 4.59375  C 0.17987152034261242 3.875  0.42469664525339035 3.2447916666666656  0.9143468950749464 2.703124999999999  C 1.4039971448965027 2.1614583333333313  2.0410421127765885 1.8124999999999998  2.825481798715203 1.6562499999999996  L 2.825481798715203 0.25000000000000067  C 2.825481798715203 0.18229166666666563  2.849214846538187 0.12369791666666652  2.896680942184154 0.07421875000000022  C 2.9441470378301213 0.024739583333333925  3.000356887937188 0  3.065310492505353 0  L 4.077087794432548 0  C 4.1470378301213415 0  4.204496788008565 0.023437499999999334  4.249464668094219 0.07031249999999956  C 4.294432548179872 0.11718749999999978  4.316916488222698 0.17708333333333193  4.316916488222698 0.25000000000000067  L 4.316916488222698 1.6250000000000004  C 4.601713062098501 1.6562499999999996  4.877765881513205 1.7161458333333317  5.145074946466809 1.8046875  C 5.412384011420414 1.8932291666666667  5.629728765167738 1.9804687500000004  5.79710920770878 2.0664062499999996  C 5.964489650249822 2.15234375  6.123126338329765 2.25  6.273019271948608 2.359375  C 6.422912205567452 2.46875  6.5203426124197 2.5442708333333313  6.565310492505353 2.5859374999999996  C 6.610278372591006 2.627604166666666  6.647751605995717 2.6640625000000004  6.677730192719486 2.6953124999999996  C 6.762669521770165 2.7890625  6.775160599571734 2.8880208333333326  6.715203426124197 2.9921875000000004  L 6.10813704496788 4.132812500000001  C 6.0681655960028555 4.2109375  6.010706638115632 4.252604166666666  5.935760171306209 4.2578125  C 5.865810135617417 4.2734375  5.798358315488937 4.255208333333332  5.73340471092077 4.203125  C 5.718415417558886 4.187500000000001  5.682191291934333 4.15625  5.624732334047109 4.109375  C 5.567273376159887 4.0625  5.4698429693076385 3.9934895833333313  5.332441113490364 3.90234375  C 5.195039257673091 3.811197916666666  5.048893647394719 3.727864583333333  4.894004282655246 3.6523437499999996  C 4.739114917915775 3.576822916666666  4.552997858672377 3.509114583333333  4.335653104925053 3.449218750000001  C 4.11830835117773 3.389322916666665  3.904710920770878 3.359374999999999  3.694860813704497 3.359374999999999  C 3.2201998572448254 3.359374999999999  2.8329764453961457 3.471354166666665  2.5331905781584583 3.695312500000001  C 2.233404710920771 3.919270833333333  2.0835117773019274 4.208333333333332  2.0835117773019274 4.562499999999999  C 2.0835117773019274 4.697916666666666  2.104746609564597 4.822916666666666  2.147216274089936 4.9375  C 2.1896859386152747 5.052083333333332  2.2633832976445394 5.16015625  2.3683083511777303 5.26171875  C 2.473233404710921 5.363281250000001  2.5719129193433266 5.44921875  2.6643468950749463 5.519531249999999  C 2.7567808708065673 5.58984375  2.896680942184154 5.670572916666666  3.0840471092077086 5.76171875  C 3.271413276231263 5.852864583333331  3.4225553176302643 5.923177083333332  3.537473233404711 5.97265625  C 3.6523911491791576 6.022135416666667  3.827266238401142 6.093749999999999  4.062098501070664 6.1875  C 4.326909350463955 6.291666666666666  4.529264810849394 6.373697916666666  4.669164882226981 6.43359375  C 4.809064953604569 6.493489583333334  4.998929336188437 6.584635416666666  5.2387580299785865 6.70703125  C 5.4785867237687365 6.829427083333333  5.667201998572448 6.940104166666666  5.804603854389722 7.0390625  C 5.942005710206996 7.138020833333333  6.096895074946468 7.268229166666666  6.269271948608137 7.4296875  C 6.4416488222698085 7.591145833333332  6.574054246966454 7.756510416666666  6.666488222698073 7.925781250000001  C 6.758922198429693 8.095052083333332  6.837615988579586 8.294270833333332  6.902569593147752 8.5234375  Z " stroke-width="0" stroke-dasharray="0" stroke="rgba(255, 255, 255, 0)" fill="none" transform="matrix(1 0 0 1 1221 1370 )" class="stroke" mask="url(#Clip259)" />
  </g>
</svg>