<?xml version="1.0" encoding="utf-8"?>
<svg version="1.1" xmlns:xlink="http://www.w3.org/1999/xlink" width="20px" height="19px" xmlns="http://www.w3.org/2000/svg">
  <defs>
    <pattern id="BGPattern" patternUnits="userSpaceOnUse" alignment="0 0" imageRepeat="None" />
    <mask fill="white" id="Clip756">
      <path d="M 0 4.071428571428572  L 10 0  L 20 4.071428571428572  L 20 5.428571428571428  L 18.666666666666668 5.428571428571428  C 18.666666666666668 5.612351190476191  18.595486111111114 5.771391369047619  18.453125 5.905691964285715  C 18.31076388888889 6.0399925595238075  18.14236111111111 6.107142857142857  17.947916666666664 6.107142857142857  L 2.052083333333333 6.107142857142857  C 1.8576388888888888 6.107142857142857  1.6892361111111112 6.0399925595238075  1.546875 5.905691964285715  C 1.4045138888888888 5.771391369047619  1.3333333333333333 5.612351190476191  1.3333333333333333 5.428571428571428  L 0 5.428571428571428  L 0 4.071428571428572  Z M 2.6666666666666665 14.928571428571429  L 2.6666666666666665 6.785714285714285  L 5.333333333333333 6.785714285714285  L 5.333333333333333 14.928571428571429  L 6.666666666666666 14.928571428571429  L 6.666666666666666 6.785714285714285  L 9.333333333333334 6.785714285714285  L 9.333333333333334 14.928571428571429  L 10.666666666666666 14.928571428571429  L 10.666666666666666 6.785714285714285  L 13.333333333333332 6.785714285714285  L 13.333333333333332 14.928571428571429  L 14.666666666666666 14.928571428571429  L 14.666666666666666 6.785714285714285  L 17.333333333333336 6.785714285714285  L 17.333333333333336 14.928571428571429  L 17.947916666666664 14.928571428571429  C 18.14236111111111 14.928571428571429  18.31076388888889 14.995721726190474  18.453125 15.130022321428571  C 18.595486111111114 15.264322916666668  18.666666666666668 15.423363095238097  18.666666666666668 15.607142857142856  L 18.666666666666668 16  L 1.3333333333333333 16  L 1.3333333333333333 15.607142857142856  C 1.3333333333333333 15.423363095238097  1.4045138888888888 15.264322916666668  1.546875 15.130022321428571  C 1.6892361111111112 14.995721726190474  1.8576388888888888 14.928571428571429  2.052083333333333 14.928571428571429  L 2.6666666666666665 14.928571428571429  Z M 0.71875 17  L 19.28125 17  C 19.475694444444443 16.964285714285715  19.64409722222222 17.03143601190476  19.786458333333336 17.165736607142858  C 19.928819444444446 17.300037202380953  20.000000000000004 17.45907738095238  20 17.642857142857142  L 20 19  L 0 19  L 0 17.642857142857142  C 0 17.45907738095238  0.07118055555555555 17.300037202380953  0.21354166666666669 17.165736607142858  C 0.35590277777777785 17.03143601190476  0.5243055555555556 16.964285714285715  0.71875 17  Z " fill-rule="evenodd" />
    </mask>
  </defs>
  <g transform="matrix(1 0 0 1 -1101 -2136 )">
    <path d="M 0 4.071428571428572  L 10 0  L 20 4.071428571428572  L 20 5.428571428571428  L 18.666666666666668 5.428571428571428  C 18.666666666666668 5.612351190476191  18.595486111111114 5.771391369047619  18.453125 5.905691964285715  C 18.31076388888889 6.0399925595238075  18.14236111111111 6.107142857142857  17.947916666666664 6.107142857142857  L 2.052083333333333 6.107142857142857  C 1.8576388888888888 6.107142857142857  1.6892361111111112 6.0399925595238075  1.546875 5.905691964285715  C 1.4045138888888888 5.771391369047619  1.3333333333333333 5.612351190476191  1.3333333333333333 5.428571428571428  L 0 5.428571428571428  L 0 4.071428571428572  Z M 2.6666666666666665 14.928571428571429  L 2.6666666666666665 6.785714285714285  L 5.333333333333333 6.785714285714285  L 5.333333333333333 14.928571428571429  L 6.666666666666666 14.928571428571429  L 6.666666666666666 6.785714285714285  L 9.333333333333334 6.785714285714285  L 9.333333333333334 14.928571428571429  L 10.666666666666666 14.928571428571429  L 10.666666666666666 6.785714285714285  L 13.333333333333332 6.785714285714285  L 13.333333333333332 14.928571428571429  L 14.666666666666666 14.928571428571429  L 14.666666666666666 6.785714285714285  L 17.333333333333336 6.785714285714285  L 17.333333333333336 14.928571428571429  L 17.947916666666664 14.928571428571429  C 18.14236111111111 14.928571428571429  18.31076388888889 14.995721726190474  18.453125 15.130022321428571  C 18.595486111111114 15.264322916666668  18.666666666666668 15.423363095238097  18.666666666666668 15.607142857142856  L 18.666666666666668 16  L 1.3333333333333333 16  L 1.3333333333333333 15.607142857142856  C 1.3333333333333333 15.423363095238097  1.4045138888888888 15.264322916666668  1.546875 15.130022321428571  C 1.6892361111111112 14.995721726190474  1.8576388888888888 14.928571428571429  2.052083333333333 14.928571428571429  L 2.6666666666666665 14.928571428571429  Z M 0.71875 17  L 19.28125 17  C 19.475694444444443 16.964285714285715  19.64409722222222 17.03143601190476  19.786458333333336 17.165736607142858  C 19.928819444444446 17.300037202380953  20.000000000000004 17.45907738095238  20 17.642857142857142  L 20 19  L 0 19  L 0 17.642857142857142  C 0 17.45907738095238  0.07118055555555555 17.300037202380953  0.21354166666666669 17.165736607142858  C 0.35590277777777785 17.03143601190476  0.5243055555555556 16.964285714285715  0.71875 17  Z " fill-rule="nonzero" fill="rgba(214, 175, 124, 1)" stroke="none" transform="matrix(1 0 0 1 1101 2136 )" class="fill" />
    <path d="M 0 4.071428571428572  L 10 0  L 20 4.071428571428572  L 20 5.428571428571428  L 18.666666666666668 5.428571428571428  C 18.666666666666668 5.612351190476191  18.595486111111114 5.771391369047619  18.453125 5.905691964285715  C 18.31076388888889 6.0399925595238075  18.14236111111111 6.107142857142857  17.947916666666664 6.107142857142857  L 2.052083333333333 6.107142857142857  C 1.8576388888888888 6.107142857142857  1.6892361111111112 6.0399925595238075  1.546875 5.905691964285715  C 1.4045138888888888 5.771391369047619  1.3333333333333333 5.612351190476191  1.3333333333333333 5.428571428571428  L 0 5.428571428571428  L 0 4.071428571428572  Z " stroke-width="0" stroke-dasharray="0" stroke="rgba(255, 255, 255, 0)" fill="none" transform="matrix(1 0 0 1 1101 2136 )" class="stroke" mask="url(#Clip756)" />
    <path d="M 2.6666666666666665 14.928571428571429  L 2.6666666666666665 6.785714285714285  L 5.333333333333333 6.785714285714285  L 5.333333333333333 14.928571428571429  L 6.666666666666666 14.928571428571429  L 6.666666666666666 6.785714285714285  L 9.333333333333334 6.785714285714285  L 9.333333333333334 14.928571428571429  L 10.666666666666666 14.928571428571429  L 10.666666666666666 6.785714285714285  L 13.333333333333332 6.785714285714285  L 13.333333333333332 14.928571428571429  L 14.666666666666666 14.928571428571429  L 14.666666666666666 6.785714285714285  L 17.333333333333336 6.785714285714285  L 17.333333333333336 14.928571428571429  L 17.947916666666664 14.928571428571429  C 18.14236111111111 14.928571428571429  18.31076388888889 14.995721726190474  18.453125 15.130022321428571  C 18.595486111111114 15.264322916666668  18.666666666666668 15.423363095238097  18.666666666666668 15.607142857142856  L 18.666666666666668 16  L 1.3333333333333333 16  L 1.3333333333333333 15.607142857142856  C 1.3333333333333333 15.423363095238097  1.4045138888888888 15.264322916666668  1.546875 15.130022321428571  C 1.6892361111111112 14.995721726190474  1.8576388888888888 14.928571428571429  2.052083333333333 14.928571428571429  L 2.6666666666666665 14.928571428571429  Z " stroke-width="0" stroke-dasharray="0" stroke="rgba(255, 255, 255, 0)" fill="none" transform="matrix(1 0 0 1 1101 2136 )" class="stroke" mask="url(#Clip756)" />
    <path d="M 0.71875 17  L 19.28125 17  C 19.475694444444443 16.964285714285715  19.64409722222222 17.03143601190476  19.786458333333336 17.165736607142858  C 19.928819444444446 17.300037202380953  20.000000000000004 17.45907738095238  20 17.642857142857142  L 20 19  L 0 19  L 0 17.642857142857142  C 0 17.45907738095238  0.07118055555555555 17.300037202380953  0.21354166666666669 17.165736607142858  C 0.35590277777777785 17.03143601190476  0.5243055555555556 16.964285714285715  0.71875 17  Z " stroke-width="0" stroke-dasharray="0" stroke="rgba(255, 255, 255, 0)" fill="none" transform="matrix(1 0 0 1 1101 2136 )" class="stroke" mask="url(#Clip756)" />
  </g>
</svg>