<?xml version="1.0" encoding="utf-8"?>
<svg version="1.1" xmlns:xlink="http://www.w3.org/1999/xlink" width="30px" height="16px" xmlns="http://www.w3.org/2000/svg">
  <defs>
    <pattern id="BGPattern" patternUnits="userSpaceOnUse" alignment="0 0" imageRepeat="None" />
    <mask fill="white" id="Clip237">
      <path d="M 12.859375 9.359375  C 12.953125 9.265625  13 9.145833333333332  13 9  L 13 7  C 13 6.854166666666666  12.953125 6.734375  12.859375 6.640625  C 12.765625 6.546875  12.645833333333334 6.5  12.5 6.5  L 9.5 6.5  L 9.5 3.5  C 9.5 3.354166666666666  9.453125 3.234375  9.359375 3.140625  C 9.265625 3.046875  9.145833333333334 3  9 3  L 7 3  C 6.854166666666667 3  6.734375 3.046875  6.640625 3.140625  C 6.546875 3.234375  6.5 3.354166666666666  6.5 3.5  L 6.5 6.5  L 3.5 6.5  C 3.354166666666667 6.5  3.2343750000000004 6.546875  3.140625 6.640625  C 3.046875 6.734375  3 6.854166666666666  3 7  L 3 9  C 3 9.145833333333332  3.046875 9.265625  3.140625 9.359375  C 3.2343750000000004 9.453125  3.354166666666667 9.5  3.5 9.5  L 6.5 9.5  L 6.5 12.5  C 6.5 12.645833333333332  6.546875 12.765625  6.640625 12.859375  C 6.734375 12.953125  6.854166666666667 13  7 13  L 9 13  C 9.145833333333334 13  9.265625 12.953125  9.359375 12.859375  C 9.453125 12.765625  9.5 12.645833333333332  9.5 12.5  L 9.5 9.5  L 12.5 9.5  C 12.645833333333334 9.5  12.765625 9.453125  12.859375 9.359375  Z M 21.4140625 11.4140625  C 21.8046875 11.0234375  22 10.552083333333332  22 10  C 22 9.447916666666664  21.8046875 8.9765625  21.4140625 8.5859375  C 21.0234375 8.1953125  20.552083333333336 8  20 8  C 19.447916666666668 8  18.9765625 8.1953125  18.5859375 8.5859375  C 18.1953125 8.9765625  18 9.447916666666664  18 10  C 18 10.552083333333332  18.1953125 11.0234375  18.5859375 11.4140625  C 18.9765625 11.8046875  19.447916666666668 12  20 12  C 20.552083333333336 12  21.0234375 11.8046875  21.4140625 11.4140625  Z M 25.4140625 7.4140625  C 25.8046875 7.0234375  26 6.552083333333332  26 6  C 26 5.447916666666666  25.8046875 4.9765625  25.4140625 4.5859375  C 25.0234375 4.1953125  24.552083333333336 4  24 4  C 23.447916666666668 4  22.9765625 4.1953125  22.5859375 4.5859375  C 22.1953125 4.9765625  22 5.447916666666666  22 6  C 22 6.552083333333332  22.1953125 7.0234375  22.5859375 7.4140625  C 22.9765625 7.8046875  23.447916666666668 8  24 8  C 24.552083333333336 8  25.0234375 7.8046875  25.4140625 7.4140625  Z M 27.65625 2.34375  C 29.218750000000004 3.90625  30.000000000000007 5.791666666666666  30 8  C 30.000000000000007 10.208333333333332  29.218750000000004 12.09375  27.65625 13.65625  C 26.093750000000004 15.21875  24.208333333333336 16  22 16  C 20 16  18.239583333333336 15.333333333333332  16.71875 14  L 13.28125 14  C 11.760416666666668 15.333333333333332  10 16  8 16  C 5.791666666666667 16  3.9062500000000004 15.21875  2.34375 13.65625  C 0.78125 12.09375  0 10.208333333333332  0 8  C 0 5.791666666666666  0.78125 3.90625  2.34375 2.34375  C 3.9062500000000004 0.78125  5.791666666666667 0  8 0  L 22 0  C 24.208333333333336 0  26.093750000000004 0.78125  27.65625 2.34375  Z " fill-rule="evenodd" />
    </mask>
  </defs>
  <g transform="matrix(1 0 0 1 -1185 -2138 )">
    <path d="M 12.859375 9.359375  C 12.953125 9.265625  13 9.145833333333332  13 9  L 13 7  C 13 6.854166666666666  12.953125 6.734375  12.859375 6.640625  C 12.765625 6.546875  12.645833333333334 6.5  12.5 6.5  L 9.5 6.5  L 9.5 3.5  C 9.5 3.354166666666666  9.453125 3.234375  9.359375 3.140625  C 9.265625 3.046875  9.145833333333334 3  9 3  L 7 3  C 6.854166666666667 3  6.734375 3.046875  6.640625 3.140625  C 6.546875 3.234375  6.5 3.354166666666666  6.5 3.5  L 6.5 6.5  L 3.5 6.5  C 3.354166666666667 6.5  3.2343750000000004 6.546875  3.140625 6.640625  C 3.046875 6.734375  3 6.854166666666666  3 7  L 3 9  C 3 9.145833333333332  3.046875 9.265625  3.140625 9.359375  C 3.2343750000000004 9.453125  3.354166666666667 9.5  3.5 9.5  L 6.5 9.5  L 6.5 12.5  C 6.5 12.645833333333332  6.546875 12.765625  6.640625 12.859375  C 6.734375 12.953125  6.854166666666667 13  7 13  L 9 13  C 9.145833333333334 13  9.265625 12.953125  9.359375 12.859375  C 9.453125 12.765625  9.5 12.645833333333332  9.5 12.5  L 9.5 9.5  L 12.5 9.5  C 12.645833333333334 9.5  12.765625 9.453125  12.859375 9.359375  Z M 21.4140625 11.4140625  C 21.8046875 11.0234375  22 10.552083333333332  22 10  C 22 9.447916666666664  21.8046875 8.9765625  21.4140625 8.5859375  C 21.0234375 8.1953125  20.552083333333336 8  20 8  C 19.447916666666668 8  18.9765625 8.1953125  18.5859375 8.5859375  C 18.1953125 8.9765625  18 9.447916666666664  18 10  C 18 10.552083333333332  18.1953125 11.0234375  18.5859375 11.4140625  C 18.9765625 11.8046875  19.447916666666668 12  20 12  C 20.552083333333336 12  21.0234375 11.8046875  21.4140625 11.4140625  Z M 25.4140625 7.4140625  C 25.8046875 7.0234375  26 6.552083333333332  26 6  C 26 5.447916666666666  25.8046875 4.9765625  25.4140625 4.5859375  C 25.0234375 4.1953125  24.552083333333336 4  24 4  C 23.447916666666668 4  22.9765625 4.1953125  22.5859375 4.5859375  C 22.1953125 4.9765625  22 5.447916666666666  22 6  C 22 6.552083333333332  22.1953125 7.0234375  22.5859375 7.4140625  C 22.9765625 7.8046875  23.447916666666668 8  24 8  C 24.552083333333336 8  25.0234375 7.8046875  25.4140625 7.4140625  Z M 27.65625 2.34375  C 29.218750000000004 3.90625  30.000000000000007 5.791666666666666  30 8  C 30.000000000000007 10.208333333333332  29.218750000000004 12.09375  27.65625 13.65625  C 26.093750000000004 15.21875  24.208333333333336 16  22 16  C 20 16  18.239583333333336 15.333333333333332  16.71875 14  L 13.28125 14  C 11.760416666666668 15.333333333333332  10 16  8 16  C 5.791666666666667 16  3.9062500000000004 15.21875  2.34375 13.65625  C 0.78125 12.09375  0 10.208333333333332  0 8  C 0 5.791666666666666  0.78125 3.90625  2.34375 2.34375  C 3.9062500000000004 0.78125  5.791666666666667 0  8 0  L 22 0  C 24.208333333333336 0  26.093750000000004 0.78125  27.65625 2.34375  Z " fill-rule="nonzero" fill="rgba(242, 242, 242, 1)" stroke="none" transform="matrix(1 0 0 1 1185 2138 )" class="fill" />
    <path d="M 12.859375 9.359375  C 12.953125 9.265625  13 9.145833333333332  13 9  L 13 7  C 13 6.854166666666666  12.953125 6.734375  12.859375 6.640625  C 12.765625 6.546875  12.645833333333334 6.5  12.5 6.5  L 9.5 6.5  L 9.5 3.5  C 9.5 3.354166666666666  9.453125 3.234375  9.359375 3.140625  C 9.265625 3.046875  9.145833333333334 3  9 3  L 7 3  C 6.854166666666667 3  6.734375 3.046875  6.640625 3.140625  C 6.546875 3.234375  6.5 3.354166666666666  6.5 3.5  L 6.5 6.5  L 3.5 6.5  C 3.354166666666667 6.5  3.2343750000000004 6.546875  3.140625 6.640625  C 3.046875 6.734375  3 6.854166666666666  3 7  L 3 9  C 3 9.145833333333332  3.046875 9.265625  3.140625 9.359375  C 3.2343750000000004 9.453125  3.354166666666667 9.5  3.5 9.5  L 6.5 9.5  L 6.5 12.5  C 6.5 12.645833333333332  6.546875 12.765625  6.640625 12.859375  C 6.734375 12.953125  6.854166666666667 13  7 13  L 9 13  C 9.145833333333334 13  9.265625 12.953125  9.359375 12.859375  C 9.453125 12.765625  9.5 12.645833333333332  9.5 12.5  L 9.5 9.5  L 12.5 9.5  C 12.645833333333334 9.5  12.765625 9.453125  12.859375 9.359375  Z " stroke-width="0" stroke-dasharray="0" stroke="rgba(255, 255, 255, 0)" fill="none" transform="matrix(1 0 0 1 1185 2138 )" class="stroke" mask="url(#Clip237)" />
    <path d="M 21.4140625 11.4140625  C 21.8046875 11.0234375  22 10.552083333333332  22 10  C 22 9.447916666666664  21.8046875 8.9765625  21.4140625 8.5859375  C 21.0234375 8.1953125  20.552083333333336 8  20 8  C 19.447916666666668 8  18.9765625 8.1953125  18.5859375 8.5859375  C 18.1953125 8.9765625  18 9.447916666666664  18 10  C 18 10.552083333333332  18.1953125 11.0234375  18.5859375 11.4140625  C 18.9765625 11.8046875  19.447916666666668 12  20 12  C 20.552083333333336 12  21.0234375 11.8046875  21.4140625 11.4140625  Z " stroke-width="0" stroke-dasharray="0" stroke="rgba(255, 255, 255, 0)" fill="none" transform="matrix(1 0 0 1 1185 2138 )" class="stroke" mask="url(#Clip237)" />
    <path d="M 25.4140625 7.4140625  C 25.8046875 7.0234375  26 6.552083333333332  26 6  C 26 5.447916666666666  25.8046875 4.9765625  25.4140625 4.5859375  C 25.0234375 4.1953125  24.552083333333336 4  24 4  C 23.447916666666668 4  22.9765625 4.1953125  22.5859375 4.5859375  C 22.1953125 4.9765625  22 5.447916666666666  22 6  C 22 6.552083333333332  22.1953125 7.0234375  22.5859375 7.4140625  C 22.9765625 7.8046875  23.447916666666668 8  24 8  C 24.552083333333336 8  25.0234375 7.8046875  25.4140625 7.4140625  Z " stroke-width="0" stroke-dasharray="0" stroke="rgba(255, 255, 255, 0)" fill="none" transform="matrix(1 0 0 1 1185 2138 )" class="stroke" mask="url(#Clip237)" />
    <path d="M 27.65625 2.34375  C 29.218750000000004 3.90625  30.000000000000007 5.791666666666666  30 8  C 30.000000000000007 10.208333333333332  29.218750000000004 12.09375  27.65625 13.65625  C 26.093750000000004 15.21875  24.208333333333336 16  22 16  C 20 16  18.239583333333336 15.333333333333332  16.71875 14  L 13.28125 14  C 11.760416666666668 15.333333333333332  10 16  8 16  C 5.791666666666667 16  3.9062500000000004 15.21875  2.34375 13.65625  C 0.78125 12.09375  0 10.208333333333332  0 8  C 0 5.791666666666666  0.78125 3.90625  2.34375 2.34375  C 3.9062500000000004 0.78125  5.791666666666667 0  8 0  L 22 0  C 24.208333333333336 0  26.093750000000004 0.78125  27.65625 2.34375  Z " stroke-width="0" stroke-dasharray="0" stroke="rgba(255, 255, 255, 0)" fill="none" transform="matrix(1 0 0 1 1185 2138 )" class="stroke" mask="url(#Clip237)" />
  </g>
</svg>