<?xml version="1.0" encoding="utf-8"?>
<svg version="1.1" xmlns:xlink="http://www.w3.org/1999/xlink" width="21px" height="16px" xmlns="http://www.w3.org/2000/svg">
  <defs>
    <pattern id="BGPattern" patternUnits="userSpaceOnUse" alignment="0 0" imageRepeat="None" />
    <mask fill="white" id="Clip171">
      <path d="M 10.40771484375 9.223958333333332  C 10.46923828125 9.59548611111111  10.5 10.003472222222221  10.5 10.447916666666668  C 10.5 10.89236111111111  10.37353515625 11.262152777777775  10.12060546875 11.557291666666668  C 9.86767578125 11.852430555555554  9.556640625 12  9.1875 12  L 3.9375 12  C 3.568359375 12  3.25732421875 11.852430555555554  3.00439453125 11.557291666666668  C 2.7514648437500004 11.262152777777775  2.625 10.89236111111111  2.625 10.447916666666668  C 2.625 10.003472222222221  2.65576171875 9.59548611111111  2.71728515625 9.223958333333332  C 2.77880859375 8.852430555555554  2.8796386718750004 8.494791666666668  3.019775390625 8.151041666666668  C 3.159912109375 7.807291666666666  3.3666992187500004 7.536458333333334  3.64013671875 7.338541666666666  C 3.91357421875 7.140625  4.2451171875 7.041666666666666  4.634765625 7.041666666666666  C 4.67578125 7.069444444444445  4.7783203125 7.131944444444445  4.9423828125 7.229166666666666  C 5.1064453125 7.3263888888888875  5.234619140625 7.401041666666666  5.326904296875 7.453125  C 5.419189453125 7.505208333333334  5.54052734375 7.565972222222221  5.69091796875 7.635416666666666  C 5.841308593750001 7.704861111111111  5.98828125 7.755208333333334  6.1318359375 7.786458333333334  C 6.275390625 7.817708333333334  6.4189453125 7.833333333333334  6.5625 7.833333333333334  C 6.7060546875 7.833333333333334  6.849609375 7.817708333333334  6.9931640625 7.786458333333334  C 7.13671875 7.755208333333334  7.28369140625 7.704861111111111  7.43408203125 7.635416666666666  C 7.584472656250001 7.565972222222221  7.705810546875 7.505208333333334  7.798095703125 7.453125  C 7.890380859375001 7.401041666666666  8.018554687500002 7.3263888888888875  8.1826171875 7.229166666666666  C 8.346679687500002 7.131944444444445  8.449218750000002 7.069444444444445  8.490234375 7.041666666666666  C 8.879882812500002 7.041666666666666  9.211425781250002 7.140625  9.48486328125 7.338541666666666  C 9.75830078125 7.536458333333334  9.965087890625 7.807291666666666  10.105224609375 8.151041666666668  C 10.245361328125 8.494791666666668  10.34619140625 8.852430555555554  10.40771484375 9.223958333333332  Z M 8.208251953125 3.359375  C 8.662841796875002 3.8211805555555554  8.890136718750002 4.378472222222221  8.89013671875 5.03125  C 8.890136718750002 5.684027777777777  8.662841796875002 6.241319444444443  8.208251953125 6.703125  C 7.753662109375001 7.164930555555555  7.205078125000001 7.395833333333334  6.5625 7.395833333333334  C 5.919921875 7.395833333333334  5.371337890625 7.164930555555555  4.916748046875 6.703125  C 4.462158203125 6.241319444444443  4.23486328125 5.684027777777777  4.23486328125 5.03125  C 4.23486328125 4.378472222222221  4.462158203125 3.8211805555555554  4.916748046875 3.359375  C 5.371337890625 2.897569444444443  5.919921875 2.666666666666666  6.5625 2.666666666666666  C 7.205078125000001 2.666666666666666  7.753662109375001 2.897569444444443  8.208251953125 3.359375  Z M 18.28271484375 9.427083333333332  C 18.34423828125 9.489583333333332  18.375 9.569444444444443  18.375 9.666666666666668  L 18.375 10.333333333333332  C 18.375 10.430555555555554  18.34423828125 10.510416666666668  18.28271484375 10.572916666666668  C 18.22119140625 10.635416666666668  18.142578125 10.666666666666668  18.046875 10.666666666666668  L 12.140625 10.666666666666668  C 12.044921875 10.666666666666668  11.96630859375 10.635416666666668  11.90478515625 10.572916666666668  C 11.84326171875 10.510416666666668  11.8125 10.430555555555554  11.8125 10.333333333333332  L 11.8125 9.666666666666668  C 11.8125 9.569444444444443  11.84326171875 9.489583333333332  11.90478515625 9.427083333333332  C 11.96630859375 9.364583333333332  12.044921875 9.333333333333332  12.140625 9.333333333333332  L 18.046875 9.333333333333332  C 18.142578125 9.333333333333332  18.22119140625 9.364583333333332  18.28271484375 9.427083333333332  Z M 18.267333984375 6.776041666666666  C 18.339111328125 6.848958333333334  18.375 6.9375  18.375 7.041666666666666  L 18.375 7.625  C 18.375 7.729166666666666  18.339111328125 7.817708333333334  18.267333984375 7.890625  C 18.195556640625 7.963541666666666  18.1083984375 8  18.005859375 8  L 12.181640625 8  C 12.0791015625 8  11.991943359375 7.963541666666666  11.920166015625 7.890625  C 11.848388671875 7.817708333333334  11.8125 7.729166666666666  11.8125 7.625  L 11.8125 7.041666666666666  C 11.8125 6.9375  11.848388671875 6.848958333333334  11.920166015625 6.776041666666666  C 11.991943359375 6.703125  12.0791015625 6.666666666666666  12.181640625 6.666666666666666  L 18.005859375 6.666666666666666  C 18.1083984375 6.666666666666666  18.195556640625 6.703125  18.267333984375 6.776041666666666  Z M 18.28271484375 4.09375  C 18.34423828125 4.15625  18.375 4.236111111111109  18.375 4.333333333333334  L 18.375 5  C 18.375 5.097222222222221  18.34423828125 5.177083333333334  18.28271484375 5.239583333333334  C 18.22119140625 5.302083333333334  18.142578125 5.333333333333334  18.046875 5.333333333333334  L 12.140625 5.333333333333334  C 12.044921875 5.333333333333334  11.96630859375 5.302083333333334  11.90478515625 5.239583333333334  C 11.84326171875 5.177083333333334  11.8125 5.097222222222221  11.8125 5  L 11.8125 4.333333333333334  C 11.8125 4.236111111111109  11.84326171875 4.15625  11.90478515625 4.09375  C 11.96630859375 4.03125  12.044921875 4  12.140625 4  L 18.046875 4  C 18.142578125 4  18.22119140625 4.03125  18.28271484375 4.09375  Z M 19.590087890625 14.567708333333334  C 19.655029296875 14.501736111111112  19.687500000000004 14.423611111111112  19.6875 14.333333333333334  L 19.6875 1.666666666666666  C 19.687500000000004 1.5763888888888875  19.655029296875 1.4982638888888875  19.590087890625 1.432291666666666  C 19.525146484375 1.3663194444444429  19.4482421875 1.333333333333334  19.359375 1.333333333333334  L 1.640625 1.333333333333334  C 1.5517578125 1.333333333333334  1.474853515625 1.3663194444444429  1.409912109375 1.432291666666666  C 1.3449707031250002 1.4982638888888875  1.3125 1.5763888888888875  1.3125 1.666666666666666  L 1.3125 14.333333333333334  C 1.3125 14.423611111111112  1.3449707031250002 14.501736111111112  1.409912109375 14.567708333333334  C 1.474853515625 14.633680555555555  1.5517578125 14.666666666666666  1.640625 14.666666666666666  L 5.25 14.666666666666666  L 5.25 13.666666666666666  C 5.25 13.569444444444445  5.28076171875 13.489583333333334  5.34228515625 13.427083333333334  C 5.40380859375 13.364583333333334  5.482421875000001 13.333333333333334  5.578125 13.333333333333334  L 6.234375 13.333333333333334  C 6.330078125 13.333333333333334  6.40869140625 13.364583333333334  6.47021484375 13.427083333333334  C 6.53173828125 13.489583333333334  6.5625 13.569444444444445  6.5625 13.666666666666666  L 6.5625 14.666666666666666  L 14.4375 14.666666666666666  L 14.4375 13.666666666666666  C 14.4375 13.569444444444445  14.46826171875 13.489583333333334  14.52978515625 13.427083333333334  C 14.59130859375 13.364583333333334  14.669921875 13.333333333333334  14.765625 13.333333333333334  L 15.421875 13.333333333333334  C 15.517578125000002 13.333333333333334  15.59619140625 13.364583333333334  15.65771484375 13.427083333333334  C 15.71923828125 13.489583333333334  15.75 13.569444444444445  15.75 13.666666666666666  L 15.75 14.666666666666666  L 19.359375 14.666666666666666  C 19.4482421875 14.666666666666666  19.525146484375 14.633680555555555  19.590087890625 14.567708333333334  Z M 20.51806640625 0.4895833333333339  C 20.83935546875 0.8159722222222214  21 1.208333333333334  21 1.666666666666666  L 21 14.333333333333334  C 21 14.791666666666666  20.83935546875 15.184027777777779  20.51806640625 15.510416666666666  C 20.19677734375 15.836805555555555  19.810546875 16  19.359375 16  L 1.640625 16  C 1.189453125 16  0.8032226562500001 15.836805555555555  0.48193359375 15.510416666666666  C 0.16064453125 15.184027777777779  0 14.791666666666666  0 14.333333333333334  L 0 1.666666666666666  C 0 1.208333333333334  0.16064453125 0.8159722222222214  0.48193359375 0.4895833333333339  C 0.8032226562500001 0.16319444444444287  1.189453125 0  1.640625 0  L 19.359375 0  C 19.810546875 0  20.19677734375 0.16319444444444287  20.51806640625 0.4895833333333339  Z " fill-rule="evenodd" />
    </mask>
  </defs>
  <g transform="matrix(1 0 0 1 -863 -2138 )">
    <path d="M 10.40771484375 9.223958333333332  C 10.46923828125 9.59548611111111  10.5 10.003472222222221  10.5 10.447916666666668  C 10.5 10.89236111111111  10.37353515625 11.262152777777775  10.12060546875 11.557291666666668  C 9.86767578125 11.852430555555554  9.556640625 12  9.1875 12  L 3.9375 12  C 3.568359375 12  3.25732421875 11.852430555555554  3.00439453125 11.557291666666668  C 2.7514648437500004 11.262152777777775  2.625 10.89236111111111  2.625 10.447916666666668  C 2.625 10.003472222222221  2.65576171875 9.59548611111111  2.71728515625 9.223958333333332  C 2.77880859375 8.852430555555554  2.8796386718750004 8.494791666666668  3.019775390625 8.151041666666668  C 3.159912109375 7.807291666666666  3.3666992187500004 7.536458333333334  3.64013671875 7.338541666666666  C 3.91357421875 7.140625  4.2451171875 7.041666666666666  4.634765625 7.041666666666666  C 4.67578125 7.069444444444445  4.7783203125 7.131944444444445  4.9423828125 7.229166666666666  C 5.1064453125 7.3263888888888875  5.234619140625 7.401041666666666  5.326904296875 7.453125  C 5.419189453125 7.505208333333334  5.54052734375 7.565972222222221  5.69091796875 7.635416666666666  C 5.841308593750001 7.704861111111111  5.98828125 7.755208333333334  6.1318359375 7.786458333333334  C 6.275390625 7.817708333333334  6.4189453125 7.833333333333334  6.5625 7.833333333333334  C 6.7060546875 7.833333333333334  6.849609375 7.817708333333334  6.9931640625 7.786458333333334  C 7.13671875 7.755208333333334  7.28369140625 7.704861111111111  7.43408203125 7.635416666666666  C 7.584472656250001 7.565972222222221  7.705810546875 7.505208333333334  7.798095703125 7.453125  C 7.890380859375001 7.401041666666666  8.018554687500002 7.3263888888888875  8.1826171875 7.229166666666666  C 8.346679687500002 7.131944444444445  8.449218750000002 7.069444444444445  8.490234375 7.041666666666666  C 8.879882812500002 7.041666666666666  9.211425781250002 7.140625  9.48486328125 7.338541666666666  C 9.75830078125 7.536458333333334  9.965087890625 7.807291666666666  10.105224609375 8.151041666666668  C 10.245361328125 8.494791666666668  10.34619140625 8.852430555555554  10.40771484375 9.223958333333332  Z M 8.208251953125 3.359375  C 8.662841796875002 3.8211805555555554  8.890136718750002 4.378472222222221  8.89013671875 5.03125  C 8.890136718750002 5.684027777777777  8.662841796875002 6.241319444444443  8.208251953125 6.703125  C 7.753662109375001 7.164930555555555  7.205078125000001 7.395833333333334  6.5625 7.395833333333334  C 5.919921875 7.395833333333334  5.371337890625 7.164930555555555  4.916748046875 6.703125  C 4.462158203125 6.241319444444443  4.23486328125 5.684027777777777  4.23486328125 5.03125  C 4.23486328125 4.378472222222221  4.462158203125 3.8211805555555554  4.916748046875 3.359375  C 5.371337890625 2.897569444444443  5.919921875 2.666666666666666  6.5625 2.666666666666666  C 7.205078125000001 2.666666666666666  7.753662109375001 2.897569444444443  8.208251953125 3.359375  Z M 18.28271484375 9.427083333333332  C 18.34423828125 9.489583333333332  18.375 9.569444444444443  18.375 9.666666666666668  L 18.375 10.333333333333332  C 18.375 10.430555555555554  18.34423828125 10.510416666666668  18.28271484375 10.572916666666668  C 18.22119140625 10.635416666666668  18.142578125 10.666666666666668  18.046875 10.666666666666668  L 12.140625 10.666666666666668  C 12.044921875 10.666666666666668  11.96630859375 10.635416666666668  11.90478515625 10.572916666666668  C 11.84326171875 10.510416666666668  11.8125 10.430555555555554  11.8125 10.333333333333332  L 11.8125 9.666666666666668  C 11.8125 9.569444444444443  11.84326171875 9.489583333333332  11.90478515625 9.427083333333332  C 11.96630859375 9.364583333333332  12.044921875 9.333333333333332  12.140625 9.333333333333332  L 18.046875 9.333333333333332  C 18.142578125 9.333333333333332  18.22119140625 9.364583333333332  18.28271484375 9.427083333333332  Z M 18.267333984375 6.776041666666666  C 18.339111328125 6.848958333333334  18.375 6.9375  18.375 7.041666666666666  L 18.375 7.625  C 18.375 7.729166666666666  18.339111328125 7.817708333333334  18.267333984375 7.890625  C 18.195556640625 7.963541666666666  18.1083984375 8  18.005859375 8  L 12.181640625 8  C 12.0791015625 8  11.991943359375 7.963541666666666  11.920166015625 7.890625  C 11.848388671875 7.817708333333334  11.8125 7.729166666666666  11.8125 7.625  L 11.8125 7.041666666666666  C 11.8125 6.9375  11.848388671875 6.848958333333334  11.920166015625 6.776041666666666  C 11.991943359375 6.703125  12.0791015625 6.666666666666666  12.181640625 6.666666666666666  L 18.005859375 6.666666666666666  C 18.1083984375 6.666666666666666  18.195556640625 6.703125  18.267333984375 6.776041666666666  Z M 18.28271484375 4.09375  C 18.34423828125 4.15625  18.375 4.236111111111109  18.375 4.333333333333334  L 18.375 5  C 18.375 5.097222222222221  18.34423828125 5.177083333333334  18.28271484375 5.239583333333334  C 18.22119140625 5.302083333333334  18.142578125 5.333333333333334  18.046875 5.333333333333334  L 12.140625 5.333333333333334  C 12.044921875 5.333333333333334  11.96630859375 5.302083333333334  11.90478515625 5.239583333333334  C 11.84326171875 5.177083333333334  11.8125 5.097222222222221  11.8125 5  L 11.8125 4.333333333333334  C 11.8125 4.236111111111109  11.84326171875 4.15625  11.90478515625 4.09375  C 11.96630859375 4.03125  12.044921875 4  12.140625 4  L 18.046875 4  C 18.142578125 4  18.22119140625 4.03125  18.28271484375 4.09375  Z M 19.590087890625 14.567708333333334  C 19.655029296875 14.501736111111112  19.687500000000004 14.423611111111112  19.6875 14.333333333333334  L 19.6875 1.666666666666666  C 19.687500000000004 1.5763888888888875  19.655029296875 1.4982638888888875  19.590087890625 1.432291666666666  C 19.525146484375 1.3663194444444429  19.4482421875 1.333333333333334  19.359375 1.333333333333334  L 1.640625 1.333333333333334  C 1.5517578125 1.333333333333334  1.474853515625 1.3663194444444429  1.409912109375 1.432291666666666  C 1.3449707031250002 1.4982638888888875  1.3125 1.5763888888888875  1.3125 1.666666666666666  L 1.3125 14.333333333333334  C 1.3125 14.423611111111112  1.3449707031250002 14.501736111111112  1.409912109375 14.567708333333334  C 1.474853515625 14.633680555555555  1.5517578125 14.666666666666666  1.640625 14.666666666666666  L 5.25 14.666666666666666  L 5.25 13.666666666666666  C 5.25 13.569444444444445  5.28076171875 13.489583333333334  5.34228515625 13.427083333333334  C 5.40380859375 13.364583333333334  5.482421875000001 13.333333333333334  5.578125 13.333333333333334  L 6.234375 13.333333333333334  C 6.330078125 13.333333333333334  6.40869140625 13.364583333333334  6.47021484375 13.427083333333334  C 6.53173828125 13.489583333333334  6.5625 13.569444444444445  6.5625 13.666666666666666  L 6.5625 14.666666666666666  L 14.4375 14.666666666666666  L 14.4375 13.666666666666666  C 14.4375 13.569444444444445  14.46826171875 13.489583333333334  14.52978515625 13.427083333333334  C 14.59130859375 13.364583333333334  14.669921875 13.333333333333334  14.765625 13.333333333333334  L 15.421875 13.333333333333334  C 15.517578125000002 13.333333333333334  15.59619140625 13.364583333333334  15.65771484375 13.427083333333334  C 15.71923828125 13.489583333333334  15.75 13.569444444444445  15.75 13.666666666666666  L 15.75 14.666666666666666  L 19.359375 14.666666666666666  C 19.4482421875 14.666666666666666  19.525146484375 14.633680555555555  19.590087890625 14.567708333333334  Z M 20.51806640625 0.4895833333333339  C 20.83935546875 0.8159722222222214  21 1.208333333333334  21 1.666666666666666  L 21 14.333333333333334  C 21 14.791666666666666  20.83935546875 15.184027777777779  20.51806640625 15.510416666666666  C 20.19677734375 15.836805555555555  19.810546875 16  19.359375 16  L 1.640625 16  C 1.189453125 16  0.8032226562500001 15.836805555555555  0.48193359375 15.510416666666666  C 0.16064453125 15.184027777777779  0 14.791666666666666  0 14.333333333333334  L 0 1.666666666666666  C 0 1.208333333333334  0.16064453125 0.8159722222222214  0.48193359375 0.4895833333333339  C 0.8032226562500001 0.16319444444444287  1.189453125 0  1.640625 0  L 19.359375 0  C 19.810546875 0  20.19677734375 0.16319444444444287  20.51806640625 0.4895833333333339  Z " fill-rule="nonzero" fill="rgba(242, 242, 242, 1)" stroke="none" transform="matrix(1 0 0 1 863 2138 )" class="fill" />
    <path d="M 10.40771484375 9.223958333333332  C 10.46923828125 9.59548611111111  10.5 10.003472222222221  10.5 10.447916666666668  C 10.5 10.89236111111111  10.37353515625 11.262152777777775  10.12060546875 11.557291666666668  C 9.86767578125 11.852430555555554  9.556640625 12  9.1875 12  L 3.9375 12  C 3.568359375 12  3.25732421875 11.852430555555554  3.00439453125 11.557291666666668  C 2.7514648437500004 11.262152777777775  2.625 10.89236111111111  2.625 10.447916666666668  C 2.625 10.003472222222221  2.65576171875 9.59548611111111  2.71728515625 9.223958333333332  C 2.77880859375 8.852430555555554  2.8796386718750004 8.494791666666668  3.019775390625 8.151041666666668  C 3.159912109375 7.807291666666666  3.3666992187500004 7.536458333333334  3.64013671875 7.338541666666666  C 3.91357421875 7.140625  4.2451171875 7.041666666666666  4.634765625 7.041666666666666  C 4.67578125 7.069444444444445  4.7783203125 7.131944444444445  4.9423828125 7.229166666666666  C 5.1064453125 7.3263888888888875  5.234619140625 7.401041666666666  5.326904296875 7.453125  C 5.419189453125 7.505208333333334  5.54052734375 7.565972222222221  5.69091796875 7.635416666666666  C 5.841308593750001 7.704861111111111  5.98828125 7.755208333333334  6.1318359375 7.786458333333334  C 6.275390625 7.817708333333334  6.4189453125 7.833333333333334  6.5625 7.833333333333334  C 6.7060546875 7.833333333333334  6.849609375 7.817708333333334  6.9931640625 7.786458333333334  C 7.13671875 7.755208333333334  7.28369140625 7.704861111111111  7.43408203125 7.635416666666666  C 7.584472656250001 7.565972222222221  7.705810546875 7.505208333333334  7.798095703125 7.453125  C 7.890380859375001 7.401041666666666  8.018554687500002 7.3263888888888875  8.1826171875 7.229166666666666  C 8.346679687500002 7.131944444444445  8.449218750000002 7.069444444444445  8.490234375 7.041666666666666  C 8.879882812500002 7.041666666666666  9.211425781250002 7.140625  9.48486328125 7.338541666666666  C 9.75830078125 7.536458333333334  9.965087890625 7.807291666666666  10.105224609375 8.151041666666668  C 10.245361328125 8.494791666666668  10.34619140625 8.852430555555554  10.40771484375 9.223958333333332  Z " stroke-width="0" stroke-dasharray="0" stroke="rgba(255, 255, 255, 0)" fill="none" transform="matrix(1 0 0 1 863 2138 )" class="stroke" mask="url(#Clip171)" />
    <path d="M 8.208251953125 3.359375  C 8.662841796875002 3.8211805555555554  8.890136718750002 4.378472222222221  8.89013671875 5.03125  C 8.890136718750002 5.684027777777777  8.662841796875002 6.241319444444443  8.208251953125 6.703125  C 7.753662109375001 7.164930555555555  7.205078125000001 7.395833333333334  6.5625 7.395833333333334  C 5.919921875 7.395833333333334  5.371337890625 7.164930555555555  4.916748046875 6.703125  C 4.462158203125 6.241319444444443  4.23486328125 5.684027777777777  4.23486328125 5.03125  C 4.23486328125 4.378472222222221  4.462158203125 3.8211805555555554  4.916748046875 3.359375  C 5.371337890625 2.897569444444443  5.919921875 2.666666666666666  6.5625 2.666666666666666  C 7.205078125000001 2.666666666666666  7.753662109375001 2.897569444444443  8.208251953125 3.359375  Z " stroke-width="0" stroke-dasharray="0" stroke="rgba(255, 255, 255, 0)" fill="none" transform="matrix(1 0 0 1 863 2138 )" class="stroke" mask="url(#Clip171)" />
    <path d="M 18.28271484375 9.427083333333332  C 18.34423828125 9.489583333333332  18.375 9.569444444444443  18.375 9.666666666666668  L 18.375 10.333333333333332  C 18.375 10.430555555555554  18.34423828125 10.510416666666668  18.28271484375 10.572916666666668  C 18.22119140625 10.635416666666668  18.142578125 10.666666666666668  18.046875 10.666666666666668  L 12.140625 10.666666666666668  C 12.044921875 10.666666666666668  11.96630859375 10.635416666666668  11.90478515625 10.572916666666668  C 11.84326171875 10.510416666666668  11.8125 10.430555555555554  11.8125 10.333333333333332  L 11.8125 9.666666666666668  C 11.8125 9.569444444444443  11.84326171875 9.489583333333332  11.90478515625 9.427083333333332  C 11.96630859375 9.364583333333332  12.044921875 9.333333333333332  12.140625 9.333333333333332  L 18.046875 9.333333333333332  C 18.142578125 9.333333333333332  18.22119140625 9.364583333333332  18.28271484375 9.427083333333332  Z " stroke-width="0" stroke-dasharray="0" stroke="rgba(255, 255, 255, 0)" fill="none" transform="matrix(1 0 0 1 863 2138 )" class="stroke" mask="url(#Clip171)" />
    <path d="M 18.267333984375 6.776041666666666  C 18.339111328125 6.848958333333334  18.375 6.9375  18.375 7.041666666666666  L 18.375 7.625  C 18.375 7.729166666666666  18.339111328125 7.817708333333334  18.267333984375 7.890625  C 18.195556640625 7.963541666666666  18.1083984375 8  18.005859375 8  L 12.181640625 8  C 12.0791015625 8  11.991943359375 7.963541666666666  11.920166015625 7.890625  C 11.848388671875 7.817708333333334  11.8125 7.729166666666666  11.8125 7.625  L 11.8125 7.041666666666666  C 11.8125 6.9375  11.848388671875 6.848958333333334  11.920166015625 6.776041666666666  C 11.991943359375 6.703125  12.0791015625 6.666666666666666  12.181640625 6.666666666666666  L 18.005859375 6.666666666666666  C 18.1083984375 6.666666666666666  18.195556640625 6.703125  18.267333984375 6.776041666666666  Z " stroke-width="0" stroke-dasharray="0" stroke="rgba(255, 255, 255, 0)" fill="none" transform="matrix(1 0 0 1 863 2138 )" class="stroke" mask="url(#Clip171)" />
    <path d="M 18.28271484375 4.09375  C 18.34423828125 4.15625  18.375 4.236111111111109  18.375 4.333333333333334  L 18.375 5  C 18.375 5.097222222222221  18.34423828125 5.177083333333334  18.28271484375 5.239583333333334  C 18.22119140625 5.302083333333334  18.142578125 5.333333333333334  18.046875 5.333333333333334  L 12.140625 5.333333333333334  C 12.044921875 5.333333333333334  11.96630859375 5.302083333333334  11.90478515625 5.239583333333334  C 11.84326171875 5.177083333333334  11.8125 5.097222222222221  11.8125 5  L 11.8125 4.333333333333334  C 11.8125 4.236111111111109  11.84326171875 4.15625  11.90478515625 4.09375  C 11.96630859375 4.03125  12.044921875 4  12.140625 4  L 18.046875 4  C 18.142578125 4  18.22119140625 4.03125  18.28271484375 4.09375  Z " stroke-width="0" stroke-dasharray="0" stroke="rgba(255, 255, 255, 0)" fill="none" transform="matrix(1 0 0 1 863 2138 )" class="stroke" mask="url(#Clip171)" />
    <path d="M 19.590087890625 14.567708333333334  C 19.655029296875 14.501736111111112  19.687500000000004 14.423611111111112  19.6875 14.333333333333334  L 19.6875 1.666666666666666  C 19.687500000000004 1.5763888888888875  19.655029296875 1.4982638888888875  19.590087890625 1.432291666666666  C 19.525146484375 1.3663194444444429  19.4482421875 1.333333333333334  19.359375 1.333333333333334  L 1.640625 1.333333333333334  C 1.5517578125 1.333333333333334  1.474853515625 1.3663194444444429  1.409912109375 1.432291666666666  C 1.3449707031250002 1.4982638888888875  1.3125 1.5763888888888875  1.3125 1.666666666666666  L 1.3125 14.333333333333334  C 1.3125 14.423611111111112  1.3449707031250002 14.501736111111112  1.409912109375 14.567708333333334  C 1.474853515625 14.633680555555555  1.5517578125 14.666666666666666  1.640625 14.666666666666666  L 5.25 14.666666666666666  L 5.25 13.666666666666666  C 5.25 13.569444444444445  5.28076171875 13.489583333333334  5.34228515625 13.427083333333334  C 5.40380859375 13.364583333333334  5.482421875000001 13.333333333333334  5.578125 13.333333333333334  L 6.234375 13.333333333333334  C 6.330078125 13.333333333333334  6.40869140625 13.364583333333334  6.47021484375 13.427083333333334  C 6.53173828125 13.489583333333334  6.5625 13.569444444444445  6.5625 13.666666666666666  L 6.5625 14.666666666666666  L 14.4375 14.666666666666666  L 14.4375 13.666666666666666  C 14.4375 13.569444444444445  14.46826171875 13.489583333333334  14.52978515625 13.427083333333334  C 14.59130859375 13.364583333333334  14.669921875 13.333333333333334  14.765625 13.333333333333334  L 15.421875 13.333333333333334  C 15.517578125000002 13.333333333333334  15.59619140625 13.364583333333334  15.65771484375 13.427083333333334  C 15.71923828125 13.489583333333334  15.75 13.569444444444445  15.75 13.666666666666666  L 15.75 14.666666666666666  L 19.359375 14.666666666666666  C 19.4482421875 14.666666666666666  19.525146484375 14.633680555555555  19.590087890625 14.567708333333334  Z " stroke-width="0" stroke-dasharray="0" stroke="rgba(255, 255, 255, 0)" fill="none" transform="matrix(1 0 0 1 863 2138 )" class="stroke" mask="url(#Clip171)" />
    <path d="M 20.51806640625 0.4895833333333339  C 20.83935546875 0.8159722222222214  21 1.208333333333334  21 1.666666666666666  L 21 14.333333333333334  C 21 14.791666666666666  20.83935546875 15.184027777777779  20.51806640625 15.510416666666666  C 20.19677734375 15.836805555555555  19.810546875 16  19.359375 16  L 1.640625 16  C 1.189453125 16  0.8032226562500001 15.836805555555555  0.48193359375 15.510416666666666  C 0.16064453125 15.184027777777779  0 14.791666666666666  0 14.333333333333334  L 0 1.666666666666666  C 0 1.208333333333334  0.16064453125 0.8159722222222214  0.48193359375 0.4895833333333339  C 0.8032226562500001 0.16319444444444287  1.189453125 0  1.640625 0  L 19.359375 0  C 19.810546875 0  20.19677734375 0.16319444444444287  20.51806640625 0.4895833333333339  Z " stroke-width="0" stroke-dasharray="0" stroke="rgba(255, 255, 255, 0)" fill="none" transform="matrix(1 0 0 1 863 2138 )" class="stroke" mask="url(#Clip171)" />
  </g>
</svg>