<?xml version="1.0" encoding="utf-8"?>
<svg version="1.1" xmlns:xlink="http://www.w3.org/1999/xlink" width="20px" height="20px" preserveAspectRatio="xMinYMid meet" viewBox="539 1634 20 18" xmlns="http://www.w3.org/2000/svg">
  <path d="M 218 1979  L 375 1979  A 5 5 0 0 0 380 1974 L 380 1648  A 5 5 0 0 1 385 1643 L 548 1643  " stroke-width="2" stroke-dasharray="0" stroke="rgba(88, 0, 170, 1)" fill="none" class="stroke" />
  <path d="M 219.5 1975.5  A 3.5 3.5 0 0 0 216 1979 A 3.5 3.5 0 0 0 219.5 1982.5 A 3.5 3.5 0 0 0 223 1979 A 3.5 3.5 0 0 0 219.5 1975.5 Z M 547 1650.6  L 554 1643  L 547 1635.4  L 547 1650.6  Z " fill-rule="nonzero" fill="rgba(88, 0, 170, 1)" stroke="none" class="fill" />
</svg>