<?xml version="1.0" encoding="utf-8"?>
<svg version="1.1" xmlns:xlink="http://www.w3.org/1999/xlink" width="20px" height="20px" preserveAspectRatio="xMinYMid meet" viewBox="1059 1756 20 18" xmlns="http://www.w3.org/2000/svg">
  <path d="M 812 1609  L 937 1609  A 5 5 0 0 1 942 1614 L 942 1760  A 5 5 0 0 0 947 1765 L 1068 1765  " stroke-width="2" stroke-dasharray="0" stroke="rgba(88, 0, 170, 1)" fill="none" class="stroke" />
  <path d="M 813.5 1605.5  A 3.5 3.5 0 0 0 810 1609 A 3.5 3.5 0 0 0 813.5 1612.5 A 3.5 3.5 0 0 0 817 1609 A 3.5 3.5 0 0 0 813.5 1605.5 Z M 1067 1772.6  L 1074 1765  L 1067 1757.4  L 1067 1772.6  Z " fill-rule="nonzero" fill="rgba(88, 0, 170, 1)" stroke="none" class="fill" />
</svg>