<?xml version="1.0" encoding="utf-8"?>
<svg version="1.1" xmlns:xlink="http://www.w3.org/1999/xlink" width="50px" height="50px" xmlns="http://www.w3.org/2000/svg">
  <defs>
    <pattern id="BGPattern" patternUnits="userSpaceOnUse" alignment="0 0" imageRepeat="None" />
    <mask fill="white" id="Clip104">
      <path d="M 27 22.506009615384613  L 27 45.10216346153847  L 46 34.61538461538461  L 46 15.504807692307693  L 27 22.506009615384613  Z M 4.026442307692308 11.478365384615385  L 25 19.110576923076923  L 45.97355769230769 11.478365384615385  L 25 3.8461538461538436  L 4.026442307692308 11.478365384615385  Z M 49.308894230769226 9.344951923076922  C 49.769631410256416 10.006009615384615  50 10.737179487179482  50 11.538461538461537  L 50 34.61538461538461  C 50 35.31650641025641  49.81971153846153 35.96754807692308  49.45913461538461 36.56850961538461  C 49.09855769230769 37.16947115384615  48.60777243589744 37.640224358974365  47.98677884615385 37.980769230769226  L 26.832932692307693 49.519230769230774  C 26.27203525641026 49.83974358974359  25.661057692307693 50  25 50  C 24.338942307692307 50  23.727964743589748 49.83974358974359  23.167067307692307 49.519230769230774  L 2.013221153846154 37.980769230769226  C 1.392227564102564 37.640224358974365  0.9014423076923078 37.16947115384615  0.5408653846153846 36.56850961538461  C 0.18028846153846154 35.96754807692308  0 35.31650641025641  0 34.61538461538461  L 0 11.538461538461537  C 0 10.737179487179482  0.2303685897435897 10.006009615384615  0.6911057692307692 9.344951923076922  C 1.151842948717949 8.68389423076923  1.7628205128205128 8.213141025641024  2.5240384615384617 7.9326923076923075  L 23.677884615384613 0.24038461538461453  C 24.118589743589748 0.08012820512819929  24.559294871794876 0  25 0  C 25.44070512820513 0  25.88141025641026 0.08012820512819929  26.322115384615387 0.24038461538461453  L 47.47596153846153 7.9326923076923075  C 48.237179487179496 8.213141025641024  48.84815705128205 8.68389423076923  49.308894230769226 9.344951923076922  Z " fill-rule="evenodd" />
    </mask>
  </defs>
  <g transform="matrix(1 0 0 1 -175 -1016 )">
    <path d="M 27 22.506009615384613  L 27 45.10216346153847  L 46 34.61538461538461  L 46 15.504807692307693  L 27 22.506009615384613  Z M 4.026442307692308 11.478365384615385  L 25 19.110576923076923  L 45.97355769230769 11.478365384615385  L 25 3.8461538461538436  L 4.026442307692308 11.478365384615385  Z M 49.308894230769226 9.344951923076922  C 49.769631410256416 10.006009615384615  50 10.737179487179482  50 11.538461538461537  L 50 34.61538461538461  C 50 35.31650641025641  49.81971153846153 35.96754807692308  49.45913461538461 36.56850961538461  C 49.09855769230769 37.16947115384615  48.60777243589744 37.640224358974365  47.98677884615385 37.980769230769226  L 26.832932692307693 49.519230769230774  C 26.27203525641026 49.83974358974359  25.661057692307693 50  25 50  C 24.338942307692307 50  23.727964743589748 49.83974358974359  23.167067307692307 49.519230769230774  L 2.013221153846154 37.980769230769226  C 1.392227564102564 37.640224358974365  0.9014423076923078 37.16947115384615  0.5408653846153846 36.56850961538461  C 0.18028846153846154 35.96754807692308  0 35.31650641025641  0 34.61538461538461  L 0 11.538461538461537  C 0 10.737179487179482  0.2303685897435897 10.006009615384615  0.6911057692307692 9.344951923076922  C 1.151842948717949 8.68389423076923  1.7628205128205128 8.213141025641024  2.5240384615384617 7.9326923076923075  L 23.677884615384613 0.24038461538461453  C 24.118589743589748 0.08012820512819929  24.559294871794876 0  25 0  C 25.44070512820513 0  25.88141025641026 0.08012820512819929  26.322115384615387 0.24038461538461453  L 47.47596153846153 7.9326923076923075  C 48.237179487179496 8.213141025641024  48.84815705128205 8.68389423076923  49.308894230769226 9.344951923076922  Z " fill-rule="nonzero" fill="rgba(0, 0, 170, 1)" stroke="none" transform="matrix(1 0 0 1 175 1016 )" class="fill" />
    <path d="M 27 22.506009615384613  L 27 45.10216346153847  L 46 34.61538461538461  L 46 15.504807692307693  L 27 22.506009615384613  Z " stroke-width="0" stroke-dasharray="0" stroke="rgba(255, 255, 255, 0)" fill="none" transform="matrix(1 0 0 1 175 1016 )" class="stroke" mask="url(#Clip104)" />
    <path d="M 4.026442307692308 11.478365384615385  L 25 19.110576923076923  L 45.97355769230769 11.478365384615385  L 25 3.8461538461538436  L 4.026442307692308 11.478365384615385  Z " stroke-width="0" stroke-dasharray="0" stroke="rgba(255, 255, 255, 0)" fill="none" transform="matrix(1 0 0 1 175 1016 )" class="stroke" mask="url(#Clip104)" />
    <path d="M 49.308894230769226 9.344951923076922  C 49.769631410256416 10.006009615384615  50 10.737179487179482  50 11.538461538461537  L 50 34.61538461538461  C 50 35.31650641025641  49.81971153846153 35.96754807692308  49.45913461538461 36.56850961538461  C 49.09855769230769 37.16947115384615  48.60777243589744 37.640224358974365  47.98677884615385 37.980769230769226  L 26.832932692307693 49.519230769230774  C 26.27203525641026 49.83974358974359  25.661057692307693 50  25 50  C 24.338942307692307 50  23.727964743589748 49.83974358974359  23.167067307692307 49.519230769230774  L 2.013221153846154 37.980769230769226  C 1.392227564102564 37.640224358974365  0.9014423076923078 37.16947115384615  0.5408653846153846 36.56850961538461  C 0.18028846153846154 35.96754807692308  0 35.31650641025641  0 34.61538461538461  L 0 11.538461538461537  C 0 10.737179487179482  0.2303685897435897 10.006009615384615  0.6911057692307692 9.344951923076922  C 1.151842948717949 8.68389423076923  1.7628205128205128 8.213141025641024  2.5240384615384617 7.9326923076923075  L 23.677884615384613 0.24038461538461453  C 24.118589743589748 0.08012820512819929  24.559294871794876 0  25 0  C 25.44070512820513 0  25.88141025641026 0.08012820512819929  26.322115384615387 0.24038461538461453  L 47.47596153846153 7.9326923076923075  C 48.237179487179496 8.213141025641024  48.84815705128205 8.68389423076923  49.308894230769226 9.344951923076922  Z " stroke-width="0" stroke-dasharray="0" stroke="rgba(255, 255, 255, 0)" fill="none" transform="matrix(1 0 0 1 175 1016 )" class="stroke" mask="url(#Clip104)" />
  </g>
</svg>