<?xml version="1.0" encoding="utf-8"?>
<svg version="1.1" xmlns:xlink="http://www.w3.org/1999/xlink" width="10px" height="41px" preserveAspectRatio="xMidYMin meet" viewBox="580 1082 8 41" xmlns="http://www.w3.org/2000/svg">
  <path d="M 607 1087  L 589 1087  A 5 5 0 0 0 584 1092 L 584 1113  A 5 5 0 0 1 579 1118 L 562 1118  " stroke-width="2" stroke-dasharray="0" stroke="rgba(0, 153, 204, 1)" fill="none" class="stroke" />
  <path d="M 605.5 1083.5  A 3.5 3.5 0 0 0 602 1087 A 3.5 3.5 0 0 0 605.5 1090.5 A 3.5 3.5 0 0 0 609 1087 A 3.5 3.5 0 0 0 605.5 1083.5 Z M 567.1071067811865 1122.2928932188136  L 562.814213562373 1118  L 567.1071067811865 1113.7071067811864  L 565.6928932188134 1112.2928932188136  L 560.6928932188134 1117.2928932188136  L 559.985786437627 1118  L 560.6928932188134 1118.7071067811864  L 565.6928932188134 1123.7071067811864  L 567.1071067811865 1122.2928932188136  Z " fill-rule="nonzero" fill="rgba(0, 153, 204, 1)" stroke="none" class="fill" />
</svg>