<?xml version="1.0" encoding="utf-8"?>
<svg version="1.1" xmlns:xlink="http://www.w3.org/1999/xlink" width="21px" height="20px" preserveAspectRatio="xMinYMid meet" viewBox="827 1125 21 18" xmlns="http://www.w3.org/2000/svg">
  <path d="M 839 1134  L 780 1134  A 5 5 0 0 1 775 1129 L 775 1123  A 5 5 0 0 0 770 1118 L 711 1118  " stroke-width="2" stroke-dasharray="0" stroke="rgba(0, 153, 204, 1)" fill="none" class="stroke" />
  <path d="M 837.5 1130.5  A 3.5 3.5 0 0 0 834 1134 A 3.5 3.5 0 0 0 837.5 1137.5 A 3.5 3.5 0 0 0 841 1134 A 3.5 3.5 0 0 0 837.5 1130.5 Z M 716.1071067811865 1122.2928932188136  L 711.814213562373 1118  L 716.1071067811865 1113.7071067811864  L 714.6928932188134 1112.2928932188136  L 709.6928932188134 1117.2928932188136  L 708.985786437627 1118  L 709.6928932188134 1118.7071067811864  L 714.6928932188134 1123.7071067811864  L 716.1071067811865 1122.2928932188136  Z " fill-rule="nonzero" fill="rgba(0, 153, 204, 1)" stroke="none" class="fill" />
</svg>